<svg id="logo-nankai" xmlns="http://www.w3.org/2000/svg" width="79" height="83" viewBox="0 0 79 83">
  <defs>
    <style>
      .cls-1 {
        fill: #e94709;
      }

      .cls-1, .cls-2, .cls-3 {
        fill-rule: evenodd;
      }

      .cls-2 {
        fill: #f8b500;
      }

      .cls-3 {
        fill: #231815;
      }
    </style>
  </defs>
  <path id="left" class="cls-1" d="M60,14.985L22.006,52.765,45.158,76.013C58.832,60.661,60,45.228,60,40.322V14.985Z" transform="translate(-22 -15)"/>
  <path id="right" class="cls-2" d="M62,15l38.991,37.754L77.226,75.987C63.193,60.645,62,45.223,62,40.32V15Z" transform="translate(-22 -15)"/>
  <path id="text" class="cls-3" d="M39.41,82L36.88,94.817,32.077,82H29.157L26,98h2.3L30.88,84.956,35.767,98h2.792l3.157-16H39.41ZM91.844,98H89.537l3.156-16H95ZM67.317,82l-2.53,12.816L59.985,82H57.064L53.908,98h2.3l2.575-13.043L63.675,98h2.792l3.156-16H67.317ZM51.127,98h2.306L50.869,82H47.912L39.091,98H41.4l2.3-4.171h6.817ZM44.8,91.823l4.277-7.756,1.14,7.756H44.8ZM86.664,98H88.97L86.4,82H83.449L75.716,96.023l-4.118-6.7L79.745,82H76.979l-8.006,7.328L74.342,98h2.59l2.3-4.171h6.819Zm-6.326-6.177,4.277-7.756,1.14,7.756H80.337Z" transform="translate(-22 -15)"/>
</svg>
