<svg id="logo-pc" xmlns="http://www.w3.org/2000/svg" xmlns:xlink="http://www.w3.org/1999/xlink" width="659" height="439" viewBox="0 0 659 439">
  <defs>
    <style>
      .cls-1 {
        fill: #fff;
        filter: url(#filter);
      }

      .cls-1, .cls-2, .cls-3, .cls-4, .cls-5, .cls-6, .cls-7 {
        fill-rule: evenodd;
      }

      .cls-2 {
        fill: #ffc600;
      }

      .cls-3 {
        fill: #ffba00;
      }

      .cls-4 {
        fill: #ffb100;
      }

      .cls-5 {
        fill: #ff9600;
      }

      .cls-6 {
        fill: #ff9400;
      }

      .cls-7 {
        fill: #333;
        stroke: #333;
        stroke-linejoin: round;
        stroke-width: 1px;
      }
    </style>
    <filter id="filter" x="471" y="283" width="659" height="439" filterUnits="userSpaceOnUse">
      <feOffset result="offset" dy="20" in="SourceAlpha"/>
      <feGaussianBlur result="blur" stdDeviation="6.325"/>
      <feFlood result="flood" flood-color="$shadowColor" flood-opacity="0.15"/>
      <feComposite result="composite" operator="in" in2="blur"/>
      <feBlend result="blend" in="SourceGraphic"/>
    </filter>
  </defs>
  <path id="base" class="cls-1" d="M574.455,311.125S692.5,302,802.68,302c115.433,0,223.26,9.13,223.26,9.13,33.44,0,60.54,32.81,60.54,73.282,0,0,3.52,49.588,3.52,97.808,0,50.109-3.52,98.923-3.52,98.923,0,40.472-27.1,73.282-60.54,73.282,0,0-112.17,7.585-229.758,7.585-107.719,0-221.727-7.585-221.727-7.585-33.44,0-60.549-32.81-60.549-73.282,0,0-3.906-53.1-3.906-104.073,0-47.255,3.906-92.658,3.906-92.658C513.906,343.935,541.015,311.125,574.455,311.125Z" transform="translate(-471 -283)"/>
  <path id="bg" class="cls-2" d="M647.9,469.453h31.365v26.775H647.9V469.453Z" transform="translate(-471 -283)"/>
  <path id="bg-2" data-name="bg" class="cls-3" d="M745.052,430.438h31.365v26.775H745.052V430.438Z" transform="translate(-471 -283)"/>
  <path id="bg-3" data-name="bg" class="cls-4" d="M827.672,451.858h44.37v44.37h-44.37v-44.37Z" transform="translate(-471 -283)"/>
  <path id="bg-4" data-name="bg" class="cls-5" d="M937.067,446.5h25.245v37.485H937.067V446.5Z" transform="translate(-471 -283)"/>
  <path id="bg-5" data-name="bg" class="cls-6" d="M639.482,558.193h25.245v23.715H639.482V558.193Z" transform="translate(-471 -283)"/>
  <path id="選ばれる_南海沿線を目指して" data-name="選ばれる 南海沿線を目指して" class="cls-7" d="M1009.91,565.123L838.035,609.137a3.946,3.946,0,0,1-4.826-2.8,3.894,3.894,0,0,1,.024-2.051,4.9,4.9,0,0,1-.206-1.339v-3.684c-0.068-.363-0.14-0.723-0.181-1.106q-0.175-1.62-.234-2.775-0.118-1.665-.147-3.3t-0.029-3.329v-2.84q0-2.077.029-4.75t0.088-5.586q0.058-2.913.176-5.434t0.263-4.317a6.382,6.382,0,0,1,.381-2.154q0.057-.073.351-0.36t0.644-.587q0.351-.3.644-0.558c0.2-.17.331-0.286,0.41-0.347a50.962,50.962,0,0,1,5.913-4.261,24.464,24.464,0,0,1,6.381-2.868,10.179,10.179,0,0,1,4.889-.262,8.256,8.256,0,0,1,3.746,1.838,8.691,8.691,0,0,1,2.371,3.5,12.977,12.977,0,0,1,.82,4.663,17.625,17.625,0,0,1-1.376,6.584,28.644,28.644,0,0,1-3.659,6.481,29.824,29.824,0,0,1-5.21,5.415,19.374,19.374,0,0,1-6.03,3.386q-0.06,1.069-.088,2.688t-0.2,3.422c-0.049.507-.143,1.026-0.21,1.537a4.91,4.91,0,0,1,.208,1.346v4.431l57.1-14.621c0.2-.165.375-0.334,0.589-0.5q1.464-1.106,3.19-2.429a15.221,15.221,0,0,0,3.191-3.425,19.338,19.338,0,0,0,2.459-5.272,26.826,26.826,0,0,0,1-7.914q0-2.985-.117-5.822t-0.351-5.758q-0.118-1.665-.234-3.36t-0.117-3.393a10.692,10.692,0,0,1,1.17-4.683,7.509,7.509,0,0,1,1.493-1.992,5.088,5.088,0,0,1,2.2-1.219,2.474,2.474,0,0,1,2.429.444,6.121,6.121,0,0,1,1.581,2.4,15.056,15.056,0,0,1,.878,3.622q0.264,2.066.381,4.052t0.117,3.685v2.635q0,2.752-.147,6.158a62.141,62.141,0,0,1-.7,6.955,39.817,39.817,0,0,1-1.727,6.915,20.243,20.243,0,0,1-2.659,5.148L1007.89,557.5A3.945,3.945,0,0,1,1009.91,565.123Zm-166.848,7.594a29.929,29.929,0,0,1,.029,3.973q0.936-.725,2.049-1.647a20.8,20.8,0,0,0,2.049-1.939,11.668,11.668,0,0,0,1.581-2.162,4.774,4.774,0,0,0,.644-2.373,3.038,3.038,0,0,0-.556-1.9,1.6,1.6,0,0,0-1.844-.37,7.645,7.645,0,0,0-2.225,1.051q-1.113.745-2.049,1.471Q842.916,570.826,843.062,572.717ZM984.1,545.026a2.7,2.7,0,0,0,1.112,1.3,2.654,2.654,0,0,0,2.108.094,12.229,12.229,0,0,0,1.7-.614,12.715,12.715,0,0,1,1.756-.629,1.91,1.91,0,0,1,2.195.45,4.025,4.025,0,0,1,.674,2.507,4.185,4.185,0,0,1-.732,2.339,8.275,8.275,0,0,1-1.844,1.971,14.369,14.369,0,0,1-2.488,1.533,17.82,17.82,0,0,1-9.075,1.706,5.146,5.146,0,0,1-3.454-2.123,9.142,9.142,0,0,1-1.376-4.422q-0.234-2.745-.234-6.2,0-2.751.176-5.581t0.527-6.087q-0.82.226-1.288,0.384t-0.761.238a5.665,5.665,0,0,1-3.25.075,1.986,1.986,0,0,1-1.375-2.139,3.434,3.434,0,0,1,.79-2.091,10.274,10.274,0,0,1,2.02-1.961,19.042,19.042,0,0,1,2.664-1.669,23.341,23.341,0,0,1,2.722-1.218,32.994,32.994,0,0,1,.234-3.694,20.2,20.2,0,0,1,.849-3.951,12.086,12.086,0,0,1,1.668-3.357,4.843,4.843,0,0,1,2.693-1.912,2.322,2.322,0,0,1,1.669.1,2.975,2.975,0,0,1,1.2,1.075,5.419,5.419,0,0,1,.7,1.71,8.645,8.645,0,0,1,.234,1.984,18.015,18.015,0,0,1-.176,2.449q-0.175,1.278-.644,3.221,0.995-.39,1.347-0.516c0.234-.084.448-0.153,0.644-0.207a13.644,13.644,0,0,1,2.078-.4,6.974,6.974,0,0,1,1.991.038,3.014,3.014,0,0,1,1.492.672,1.826,1.826,0,0,1,.586,1.449,3.365,3.365,0,0,1-.849,2.107,11.171,11.171,0,0,1-2.137,1.993,18.707,18.707,0,0,1-2.752,1.664,27.292,27.292,0,0,1-2.751,1.2q-0.351,2.5-.5,4.557t-0.322,4.158q-0.117,1.029-.205,2.076t-0.087,2.1q0,0.76.058,1.769A5.6,5.6,0,0,0,984.1,545.026Zm-29.228,6.4a4.824,4.824,0,0,0,.966,1.754,1.481,1.481,0,0,0,1.61.406,4.186,4.186,0,0,0,1.844-1.122,20.929,20.929,0,0,0,1.669-1.894q0.76-.912,1.668-1.923a4.315,4.315,0,0,1,2.079-1.332,2.253,2.253,0,0,1,2.312.417,2.877,2.877,0,0,1,.849,2.167,8.587,8.587,0,0,1-1.054,4.007,16.829,16.829,0,0,1-2.634,3.711,19.052,19.052,0,0,1-3.513,2.957,13.248,13.248,0,0,1-3.688,1.746,7.874,7.874,0,0,1-5.357-.106,8.1,8.1,0,0,1-3.542-3.036,13.2,13.2,0,0,1-1.412-2.945c-0.155.355-.333,0.715-0.537,1.081a21.59,21.59,0,0,1-3.162,4.265,25.828,25.828,0,0,1-4.069,3.52,13.414,13.414,0,0,1-3.981,2,8.971,8.971,0,0,1-5.532-.03,9.412,9.412,0,0,1-4.069-2.832,13.366,13.366,0,0,1-2.488-4.614,17.728,17.728,0,0,1-.849-5.415,29.132,29.132,0,0,1,.82-6.49,29.553,29.553,0,0,1,2.488-6.832,23.329,23.329,0,0,1,4.215-5.843,13.377,13.377,0,0,1,6.059-3.541,10.509,10.509,0,0,1,3.806-.373,7.045,7.045,0,0,1,3.161,1.032A6.412,6.412,0,0,1,944.7,534.5a7.268,7.268,0,0,1,.82,3.58,13.759,13.759,0,0,1-1.171,5.474,19.941,19.941,0,0,1-3.1,5.01,23.567,23.567,0,0,1-4.449,4.063,18.927,18.927,0,0,1-5.152,2.618,2.359,2.359,0,0,0,1.376,2.08,4.276,4.276,0,0,0,2.722.013,6.362,6.362,0,0,0,2.283-1.214q1.112-.891,2.166-1.913t2.079-1.889a5.515,5.515,0,0,1,2.078-1.158,3,3,0,0,1,1.328-.074c-0.055-.657-0.11-1.314-0.11-1.958a31.281,31.281,0,0,1,.819-6.7,31.649,31.649,0,0,1,2.518-7.162,23.755,23.755,0,0,1,4.361-6.176,13.888,13.888,0,0,1,6.352-3.738,6.9,6.9,0,0,1,3.952-.092,5.8,5.8,0,0,1,2.752,1.848,8.988,8.988,0,0,1,1.639,3.149,12.976,12.976,0,0,1,.556,3.77v0.585a3.313,3.313,0,0,1-.058.6,3.811,3.811,0,0,1-.059.631,3.954,3.954,0,0,1-.176.663,7.836,7.836,0,0,1-1.639,2.705,5.5,5.5,0,0,1-2.634,1.632,2.292,2.292,0,0,1-3.1-1.43,1.54,1.54,0,0,1-.117-0.641,5.274,5.274,0,0,0-.059-0.774v-1.7a2.606,2.606,0,0,0-.41-1.175,0.86,0.86,0,0,0-1-.194,3.581,3.581,0,0,0-1.9,1.782,18.583,18.583,0,0,0-1.58,3.42,30.786,30.786,0,0,0-1.083,3.84,15.511,15.511,0,0,0-.41,3.04q0,0.879.117,2.1A10.639,10.639,0,0,0,954.875,551.428Zm-21.62-4.941a15.8,15.8,0,0,0,2.166-1.386,9.118,9.118,0,0,0,1.756-1.742,3.284,3.284,0,0,0,.732-2.017,2.9,2.9,0,0,0-.41-1.468,1.023,1.023,0,0,0-1.288-.465,4.662,4.662,0,0,0-2.166,1.269,8.352,8.352,0,0,0-1.463,2.1,12.449,12.449,0,0,0-.908,2.445,11.988,11.988,0,0,0-.38,2.271Q932.113,547.093,933.255,546.487Zm-19.043-16.246a6.71,6.71,0,0,1,1.551-.661,3.7,3.7,0,0,1,2.078-.016,1.389,1.389,0,0,1,.966,1.52,3.182,3.182,0,0,1-.468,1.621,6.5,6.5,0,0,1-1.171,1.464,8.723,8.723,0,0,1-1.522,1.151,6.286,6.286,0,0,1-1.522.682,3.2,3.2,0,0,1-2.049-.022,1.492,1.492,0,0,1-.878-1.573,3.405,3.405,0,0,1,.439-1.672,5.682,5.682,0,0,1,1.112-1.419A7.912,7.912,0,0,1,914.212,530.241Zm-52.9,33.346q0-1.287.117-2.9a12.244,12.244,0,0,1,.644-3.134,8.607,8.607,0,0,1,1.552-2.739,5.49,5.49,0,0,1,2.839-1.718,2.024,2.024,0,0,1,1.7.177,3.37,3.37,0,0,1,1.142,1.266,7.449,7.449,0,0,1,.673,1.805,11.683,11.683,0,0,1,.293,1.852,21.717,21.717,0,0,1,3.161-4.588A10.243,10.243,0,0,1,878,550.8a10.677,10.677,0,0,1,2.781-.5,6.515,6.515,0,0,1,2.518.361,4.051,4.051,0,0,1,1.873,1.387,3.694,3.694,0,0,1,.586,1.216c0.1-.223.2-0.451,0.31-0.672a20.632,20.632,0,0,1,4.039-5.56,13.275,13.275,0,0,1,5.855-3.338,7.708,7.708,0,0,1,5.591.247,9.034,9.034,0,0,1,3.717,3.427,15.68,15.68,0,0,1,1.991,5.277,23.125,23.125,0,0,1,.41,5.859,37.94,37.94,0,0,1-.966,6.53,27.022,27.022,0,0,1-2.313,6.315,19.332,19.332,0,0,1-3.864,5.161,12.9,12.9,0,0,1-5.561,3.111,7.693,7.693,0,0,1-5.211-.147,9.211,9.211,0,0,1-3.747-3.009,14.227,14.227,0,0,1-2.283-4.845,21.776,21.776,0,0,1-.761-5.733,31.327,31.327,0,0,1,.761-6.62c0.049-.225.112-0.444,0.166-0.666a6.742,6.742,0,0,1-2.028,1.032,3.575,3.575,0,0,1-1.4.24q-0.585-.043-1.171-0.117-0.527-.088-1.053-0.149a2.584,2.584,0,0,0-1.171.175A5.611,5.611,0,0,0,874.982,561a10.9,10.9,0,0,0-1.639,1.915,13.8,13.8,0,0,0-1.258,2.307,16.382,16.382,0,0,0-.82,2.363,14.193,14.193,0,0,0-.264,2.209q-0.087,1.459-.087,3.1-0.06,1.715-.059,3.236a19.959,19.959,0,0,1-.117,2.432,20.578,20.578,0,0,1-.293,2.276,13.052,13.052,0,0,1-.732,2.573,8.251,8.251,0,0,1-1.317,2.236,4.078,4.078,0,0,1-2.107,1.34,2.3,2.3,0,0,1-1.727-.11,3.141,3.141,0,0,1-1.23-1.213,7.9,7.9,0,0,1-.819-2.028,19.82,19.82,0,0,1-.5-2.5q-0.175-1.356-.264-2.738t-0.117-2.631q-0.03-1.25,0-2.313t0.03-1.705q-0.06-2.033-.205-4.071T861.312,563.587Zm30.929,2.029a15.119,15.119,0,0,0,.732,2.814,5.893,5.893,0,0,0,1.142,1.969,1.464,1.464,0,0,0,1.551.48,2.828,2.828,0,0,0,1.61-1.321,9.506,9.506,0,0,0,1.083-2.522,18.988,18.988,0,0,0,.586-3.118,29.243,29.243,0,0,0,.175-3.063,17.918,17.918,0,0,0-.234-2.775,15.011,15.011,0,0,0-.673-2.713,5.268,5.268,0,0,0-1.113-1.919,1.486,1.486,0,0,0-1.551-.451A2.75,2.75,0,0,0,894,554.361a11.288,11.288,0,0,0-1.113,2.589,21.857,21.857,0,0,0-.673,3.024,18.392,18.392,0,0,0-.234,2.67A18.01,18.01,0,0,0,892.241,565.616ZM983.9,500.1L815.369,543.255v57.474a4.134,4.134,0,0,1-8.267,0v-58.62a4.089,4.089,0,0,1,.089-0.849A3.943,3.943,0,0,1,810,536.484l141.255-36.172q-2.085.009-4.168,0.012c-6.622,0-13.15-.093-18.839-0.279-6.715-.187-10.072-4.384-10.165-10.539,0-4.756-.093-12.217-0.093-19.678s0.093-14.921.093-19.771a4.249,4.249,0,0,1,4.383-4.383,4.033,4.033,0,0,1,4.2,4.29v0.093c-0.094,4.384-.094,11.751-0.094,19.119s0,14.641.094,18.838c0,2.332,1.119,3.73,3.45,3.824,5.316,0.279,12.217.373,19.492,0.373,4.987,0,10.185-.054,15.2-0.2a4.175,4.175,0,0,1,1.718-.374h16.065a4.205,4.205,0,0,1,4.2,4.168A3.934,3.934,0,0,1,983.9,500.1ZM973.1,391.819a9.234,9.234,0,0,0-3.513.734,7.138,7.138,0,0,0-3.018,3.065c-2.075,3.852-.5,9.354,4.786,9.144,2.476-.105,2.617,2.987.118,2.961-7.12-.026-9.572-7.284-7-12.55a9.28,9.28,0,0,1,.754-1.363c0.377-.55.259-0.524-0.189-0.367a30.759,30.759,0,0,0-2.97,1.31,20.633,20.633,0,0,1-2.122.786,1.472,1.472,0,1,1-.8-2.829c0.5-.131,1.863-0.419,2.617-0.629,1.155-.314,3.207-0.838,5.612-1.6a29,29,0,0,1,6.436-1.546,1.5,1.5,0,0,1,1.6,2.017C975.272,391.4,974.753,391.924,973.1,391.819Zm-32.024,10.795c-0.094-2.751.165-4.978,0.283-7.756,0.071-1.7.236-4.27,0.189-5.895a1.288,1.288,0,1,1,2.57-.052c-0.047,1.65-.212,4.139-0.33,5.895-0.165,2.777-.519,5.161-0.425,7.7,0.142,3.825,4.339,3.563,8.441-.026,1.533-1.337,2.971,1.074,1.627,2.279C948.836,408.928,941.292,409.688,941.079,402.614Zm-13.468-6.262c-2.9,0-5.187-.026-5.187-2.909,0-1.519.023-4.873,0.047-6.314a1.143,1.143,0,0,1,2.263-.026v0.026c0,0.707-.023,1.7-0.047,2.673a42.088,42.088,0,0,0,5.871-2.2,1.253,1.253,0,0,1,.5-0.131,1.291,1.291,0,0,1,1.2,1.31,1.236,1.236,0,0,1-.873,1.179,45.6,45.6,0,0,1-6.719,1.991V393c0,1.048.636,1.231,3.253,1.231,2.547,0,3.514-.314,3.514-1.834a1.006,1.006,0,0,1,1.108-1.021,1.222,1.222,0,0,1,1.32,1.257C933.859,396.011,931.077,396.352,927.611,396.352Zm-7.05-.393a0.839,0.839,0,0,1,.33-0.079,1.055,1.055,0,0,1,.873,1.153c0,0.786-.33.943-2.948,2.122v2.856c0,0.419.071,2.8,0.095,3.721v0.1a2.746,2.746,0,0,1-3.018,2.935c-1.25,0-2.122-.236-2.122-1.415a1.072,1.072,0,0,1,.919-1.2,0.6,0.6,0,0,1,.213.026,3.337,3.337,0,0,0,.754.1,0.826,0.826,0,0,0,.967-0.865v-5.345a9.283,9.283,0,0,1-2.476.786,1.175,1.175,0,0,1-1.155-1.257,1.14,1.14,0,0,1,.825-1.153c0.919-.262,1.863-0.577,2.806-0.891v-4.114h-2.24a1.162,1.162,0,0,1,0-2.305h2.24l-0.024-4.192a1.14,1.14,0,0,1,1.132-1.232,1.108,1.108,0,0,1,1.108,1.232v4.192h1.7a1.159,1.159,0,0,1,0,2.305h-1.7v3.3C919.453,396.483,920.042,396.221,920.561,395.959Zm9.6,12.628c-0.731.053-1.579,0.079-2.428,0.079-0.943,0-1.886-.026-2.641-0.079a2.555,2.555,0,0,1-2.593-2.515c0-.393-0.024-0.838-0.024-1.31,0-1.546.047-3.38,0.094-4.506a2.372,2.372,0,0,1,2.476-2.411c0.967-.026,2.169-0.052,3.277-0.052,0.731,0,1.391.026,1.957,0.052a2.467,2.467,0,0,1,2.382,2.227c0.023,1.1.07,2.882,0.07,4.376,0,0.6,0,1.179-.023,1.6A2.69,2.69,0,0,1,930.157,408.587Zm0.354-7.755a0.961,0.961,0,0,0-1.014-1.048c-0.5-.026-1.226-0.026-1.957-0.026s-1.438,0-1.91.026c-1.061.026-1.061,0.786-1.061,2.253h5.966C930.535,401.566,930.511,401.12,930.511,400.832Zm-5.965,3.144c0,0.6.023,1.179,0.047,1.546,0.024,0.838.259,1,3.112,1,1.981,0,2.782,0,2.83-1.048,0.023-.367.023-0.891,0.023-1.494h-6.012Zm-7.023,31.066a3.782,3.782,0,0,1,4.1-3.73H942.7l0.56-6.994c0.186-2.7,2.518-4.011,4.756-4.011,2.145,0,4.29,1.306,4.29,3.731v0.373l-0.559,6.9H969.1a3.74,3.74,0,1,1,0,7.461h-18l-0.373,4.57c2.8,0,5.5.093,7.367,0.186,4.29,0.28,7.461,2.984,7.554,6.715,0.094,4.663.187,9.139,0.187,13.523,0,5.315-.093,10.538-0.187,15.854-0.093,4.383-2.611,7.274-7.834,7.647-2.331.186-6.061,0.28-9.7,0.28-3.077,0-6.061-.094-7.927-0.28-4.383-.466-7.087-3.357-7.087-7.647C933,473.839,933,468.056,933,462.554c0-4.1,0-8.113.094-11.937,0.093-4.01,2.331-6.808,6.9-7.088,0.559,0,1.119-.093,1.772-0.093l0.373-4.663H921.627A3.782,3.782,0,0,1,917.523,435.042Zm23.5,43.273c0,2.238.186,2.518,8.113,2.518,2.145,0,4.29-.093,5.689-0.093,2.518-.093,2.8-1.026,2.8-6.715H940.931C940.931,475.517,941.025,476.916,941.025,478.315Zm-0.187-10.352h16.973v-5.782H940.838v5.782Zm0.187-15.854c0,1.212-.094,2.518-0.094,3.917h16.694c0-4.1,0-6.342-2.518-6.342-1.306-.093-3.544-0.093-5.875-0.093-2.239,0-4.57,0-6.062.093A2.127,2.127,0,0,0,941.025,452.109ZM918.456,425.53a4.992,4.992,0,0,1-.466,1.865q-3.078,6.435-6.435,12.59L910.342,499.3a4.4,4.4,0,0,1-4.663,4.2,4.058,4.058,0,0,1-4.29-4.1V499.3l1.119-45.137q-2.1,2.8-4.2,5.316a5.449,5.449,0,0,1-4.2,2.145,4.352,4.352,0,0,1-4.476-4.1,4.44,4.44,0,0,1,1.3-2.984c8.487-9.326,13.8-18.372,18.372-30.869a4.007,4.007,0,0,1,3.917-2.8C915.751,420.867,918.456,422.919,918.456,425.53Zm-13.721-17.571c-0.92.052-2,.078-3.089,0.078-5.352,0-7.309-.052-7.4-3.589-0.047-1.572-.071-4.192-0.071-6.865,0-2.646.024-5.371,0.071-7.1a2.874,2.874,0,0,1,3.041-3.144c0.967-.027,3.018-0.079,4.881-0.079,1.273,0,2.476.026,3.23,0.079a2.876,2.876,0,0,1,2.924,2.934c0.047,1.677.071,4.795,0.071,7.756,0,2.593-.024,5.056-0.048,6.366C908.272,406.832,907.022,407.854,904.735,407.959Zm-8.347-4.035c0.048,1.755.731,1.781,5.023,1.781,1.06,0,2.145-.026,2.923-0.078,1.816-.105,1.816-0.891,1.816-4.088h-9.809C896.341,402.509,896.365,403.347,896.388,403.924Zm9.714-12.655c-0.07-1.756-.613-1.782-4.739-1.782-1.3,0-2.522.026-3.277,0.079-1.65.105-1.745,0.55-1.745,3.825h9.809C906.15,392.553,906.126,391.819,906.1,391.269Zm0.071,4.349h-9.855v3.694h9.855v-3.694Zm-20.093,2.358c-0.991.419-2.052,0.943-3,1.441a23.231,23.231,0,0,1,.048,2.882,1.5,1.5,0,0,1-1.25,1.625c-0.59.026-1.132-.472-1.061-1.494,0.024-.55.047-1.153,0.047-1.7-0.212.131-.424,0.262-0.613,0.393-2.924,2.1-2.57,3.668-1.25,4.4,1.25,0.707,3.561.183,4.669-.21,2.075-.707,2.735,2.123.566,2.751-1.391.393-4.6,0.786-6.437-.366-3.183-1.992-2.617-5.529,1.65-8.647,0.331-.235.708-0.524,1.156-0.812-0.637-2.2-2.452-1.939-3.985.026-0.023.027-.071,0.079-0.094,0.105a5.471,5.471,0,0,1-.543.681c-1.3,1.284-3.017-.209-1.6-1.624a12.793,12.793,0,0,0,1.91-2.463,22.78,22.78,0,0,0,1.108-2.332,4.321,4.321,0,0,1-2.923-.288c-1.7-.943-0.543-3.406,1.108-2.175a3.28,3.28,0,0,0,2.216.053c0.094-.026.236-0.026,0.354-0.053a12.055,12.055,0,0,0,.259-2.2,1.187,1.187,0,0,1,2.358-.131,5.486,5.486,0,0,1-.189,1.52l-0.047.105a7.727,7.727,0,0,0,.99-0.472c1.3-.864,2.57,1.31.825,2.28a12.266,12.266,0,0,1-2.593.864,28.122,28.122,0,0,1-1.132,2.647,3.365,3.365,0,0,1,3.961,2.279c0.967-.55,1.957-1.1,2.877-1.546a17.376,17.376,0,0,0,1.839-.969c1.768-1.1,2.829,1.52,1.32,2.358A26.145,26.145,0,0,1,886.08,397.976Zm-17.288,9.563c-1.108,0-3.442-2.751-4.881-5.947l0.024,0.314,0.142,3.747v0.183a2.828,2.828,0,0,1-3.042,3.092c-1.792,0-2.193-.472-2.193-1.336a1.031,1.031,0,0,1,.873-1.179,0.53,0.53,0,0,1,.188.026,4.968,4.968,0,0,0,1.108.183c0.637,0,1.038-.314,1.038-1.519L862,396.9c-0.543,0-1.085-.026-1.6-0.052a2.4,2.4,0,0,1-2.452-2.385c-0.023-.419-0.023-0.812-0.023-1.231,0-1,.047-1.991.07-2.961a2.318,2.318,0,0,1,2.358-2.279c0.377-.027.755-0.027,1.132-0.027a14.133,14.133,0,0,0,.306-1.755,0.926,0.926,0,0,1,1.014-.786,1.143,1.143,0,0,1,1.25,1.074,4.883,4.883,0,0,1-.354,1.441c0.731,0,1.462.026,2.217,0.053a2.365,2.365,0,0,1,2.216,2.1c0.047,0.786.047,1.6,0.047,2.41,0,0.681,0,1.336-.024,1.939a2.491,2.491,0,0,1-2.357,2.411c-0.637.026-1.25,0.052-1.863,0.052v0.472a15.987,15.987,0,0,0,1.25,3.039,12.057,12.057,0,0,0,2.145-2.122,0.876,0.876,0,0,1,.708-0.367,1.27,1.27,0,0,1,1.131,1.257c0,1.127-2.8,2.8-2.97,2.909a12.333,12.333,0,0,0,3.206,3.144,1.173,1.173,0,0,1,.566,1.022A1.264,1.264,0,0,1,868.792,407.539Zm-2.641-16.689a0.913,0.913,0,0,0-.966-0.97c-0.755-.026-1.486-0.052-2.193-0.052s-1.415.026-2.1,0.052a0.934,0.934,0,0,0-.967,1c0,0.183-.024.367-0.024,0.576h6.248v-0.6Zm-0.023,3.144c0-.236.023-0.472,0.023-0.734H859.88c0,0.262.023,0.55,0.023,0.786,0.024,0.917.731,0.969,3.113,0.969S866.081,394.989,866.128,393.994Zm-11.294-15.638c-2.5-1.808-1.391-5.057,1.391-5.161a3.475,3.475,0,0,1,3.725,3.537,3.108,3.108,0,0,0,1.368-.839c1.721-1.7,1.65-4.192.306-5.188-1.226-.917-3.772-1.1-6.154.446a5.416,5.416,0,0,0-1.98,1.965c-0.849,1.389-3.207-.157-1.745-1.756a89.552,89.552,0,0,0,7.12-8.462c0.26-.367.024-0.262-0.165-0.158a17.563,17.563,0,0,1-3.961,1.337,1.222,1.222,0,1,1-.613-2.358,33.422,33.422,0,0,0,5.187-1.284c1.887-.6,3.443,1.257,2.264,2.725-0.755.943-1.7,1.965-2.641,2.934s-1.886,1.913-2.735,2.83a6.585,6.585,0,0,1,6.626-.079c3.395,2.253,2.287,6.865-.189,8.856C860.3,379.561,856.626,379.666,854.834,378.356Zm1.462-3.249a0.845,0.845,0,0,0-.331,1.625,3.882,3.882,0,0,0,1.981.393C857.97,375.919,857.333,375,856.3,375.107Zm-3.112,10.529a1.142,1.142,0,0,1,1.178,1.074,18.94,18.94,0,0,1-2.4,5.371c0.377,0.341.754,0.734,1.061,1.048a29.677,29.677,0,0,0,1.791-3.773,0.957,0.957,0,0,1,.92-0.681,1.123,1.123,0,0,1,1.132,1.1c0,0.786-2.146,4.454-3.773,6.839,0.92-.1,1.816-0.236,2.4-0.315-0.141-.288-0.306-0.576-0.448-0.812a0.911,0.911,0,0,1-.141-0.472,0.872,0.872,0,0,1,.9-0.812,0.857,0.857,0,0,1,.613.288,7.416,7.416,0,0,1,1.438,3.092,1.148,1.148,0,0,1-.542.97,0.4,0.4,0,0,1,.188-0.027c0.59-.026,1.274-0.052,1.981-0.052,0.825,0,2.051.026,2.051,1.572a4.256,4.256,0,0,1-.118.917c-1.037,4.3-3.678,7.074-4.55,7.074a1.285,1.285,0,0,1-1.132-1.231,1.023,1.023,0,0,1,.448-0.812,9.988,9.988,0,0,0,3.254-5.241,0.262,0.262,0,0,0-.26-0.288c-0.141,0-1.579.079-1.674,0.079a0.881,0.881,0,0,1-.825-1,1.116,1.116,0,0,1,.4-0.891,1.046,1.046,0,0,1-.283.053,0.726,0.726,0,0,1-.707-0.681l-0.024-.079c-0.377.079-.943,0.183-1.6,0.314L854.5,407.7a1.128,1.128,0,0,1-1.108,1.2,1.067,1.067,0,0,1-1.038-1.179V407.7l0.071-9.092c-1.2.183-2.641,0.367-2.782,0.367a0.949,0.949,0,0,1-.872-1.048,0.882,0.882,0,0,1,.754-0.97c0.283-.026.637-0.052,1.037-0.078,0.425-.55.92-1.2,1.392-1.939a23.6,23.6,0,0,0-2.665-2.437,1.081,1.081,0,0,1-.448-0.864,1,1,0,0,1,.943-1.022,1.447,1.447,0,0,1,.637.236,19.821,19.821,0,0,0,1.815-4.481A0.9,0.9,0,0,1,853.184,385.636ZM850.8,400.02a1.074,1.074,0,0,1,1.038,1.153,17.147,17.147,0,0,1-1.533,5.423,1.09,1.09,0,0,1-.919.577,1.04,1.04,0,0,1-1.038-1.022,1.3,1.3,0,0,1,.189-0.681,12.987,12.987,0,0,0,1.367-4.533A0.913,0.913,0,0,1,850.8,400.02Zm-4.721-2.489c-1.344,0-3.678-3.59-4.9-7.991a0.82,0.82,0,0,0-.99-0.551l-2.523.053H837.64a1.039,1.039,0,0,1-1.014-1.127,1.016,1.016,0,0,1,1.014-1.1l3.113-.027a2.462,2.462,0,0,1,2.381,1.782A13.147,13.147,0,0,0,847,395.094a1.316,1.316,0,0,1,.471,1A1.486,1.486,0,0,1,846.081,397.531Zm-5.635-24.441c0.118-1.389.542-4.219,0.613-5.791,0.071-1.86-.283-3.275-3.584-0.235a29.65,29.65,0,0,0-3.371,3.406,42.724,42.724,0,0,0,.188,7.781c0.283,1.808-2.192,2.411-2.381.21a45.908,45.908,0,0,1-.024-4.847c-0.495.943-.919,1.939-1.3,2.7-1.061,2.07-3.443.472-2.146-1.231a2.058,2.058,0,0,1,.189-0.236A52.167,52.167,0,0,0,832.147,369c0.047-.524.07-1.021,0.118-1.545a8.322,8.322,0,0,0-1.792.943c-1.627,1.153-2.358-1.415-1.085-2.07,0.849-.445,1.981-0.969,3.089-1.441,0.165-1.965.353-3.721,0.471-4.873a1.1,1.1,0,1,1,2.169.262c-0.165.943-.33,2.253-0.5,3.772,0.755-.1,1.415.682,1.061,1.913,0.283-.288.566-0.576,0.826-0.812,3.654-3.328,7.073-3.092,6.766,2.122-0.094,1.572-.471,4.349-0.589,5.843-0.236,2.987,1.155,2.672,2.735.812,1.2-1.415,2.688.5,1.7,1.729C844.124,379.3,839.9,378.88,840.446,373.09Zm-11.129,13.646c0.731,0,3.985,1.965,3.985,3.406a1.392,1.392,0,0,1-1.226,1.415,1.025,1.025,0,0,1-.8-0.445,9.271,9.271,0,0,0-2.735-2.332,0.9,0.9,0,0,1-.5-0.786A1.325,1.325,0,0,1,829.317,386.736Zm2.1,7.677a1.386,1.386,0,0,1,.542,1.126,1.367,1.367,0,0,1-1.132,1.442,0.978,0.978,0,0,1-.683-0.289,8.964,8.964,0,0,0-3.018-1.677,0.917,0.917,0,0,1-.613-0.89,1.282,1.282,0,0,1,1.179-1.284A7.557,7.557,0,0,1,831.416,394.413Zm-6.655-34.555a7.91,7.91,0,0,0-1.862-1.414,0.886,0.886,0,1,1,.707-1.625,6.982,6.982,0,0,1,2.287,1.415C826.789,359.23,825.539,360.8,824.761,359.858Zm-0.849.629c0.873,1.022-.424,2.542-1.155,1.572a8.008,8.008,0,0,0-1.839-1.467,1.244,1.244,0,0,1-.424-0.341v0.184c-0.047.733-.071,1.834-0.071,3.118,0.4-.131.825-0.236,1.2-0.367a1.242,1.242,0,1,1,.519,2.41c-0.566.158-1.132,0.315-1.7,0.446,0.023,2.043.094,4.087,0.141,5.371,0.024,0.655.118,1.52,0.141,2.358a11.189,11.189,0,0,1,2.665,1.913c1.344,1.362-.33,3.642-1.509,2.253a11.321,11.321,0,0,0-1.462-1.363c-0.9,2.07-3.772,3.826-6.342,2.2a3.094,3.094,0,0,1,.353-5.5,6.076,6.076,0,0,1,4.15-.314c0-.419-0.047-0.812-0.071-1.31-0.071-1.075-.118-3.092-0.188-5.162a14.588,14.588,0,0,1-3.867.184,1.268,1.268,0,1,1,.471-2.49,8.931,8.931,0,0,0,3.325-.078c-0.024-1.467-.047-2.8-0.024-3.616a1.156,1.156,0,0,1,2.146-.655,0.948,0.948,0,0,1,1.32-.838A7.159,7.159,0,0,1,823.912,360.487Zm-5.54,14.856a3.863,3.863,0,0,0-3.254-.157,0.921,0.921,0,0,0-.141,1.546,2.357,2.357,0,0,0,3.418-1.389h-0.023Zm-8.653.026c-0.189.655-.33,1.232-0.425,1.651-0.188.733,0.118,1.467-.471,2.1-0.613.629-1.674,0.524-2.075-.891a26.246,26.246,0,0,1-.377-9.2c0.306-3.171.825-6.105,0.943-7.808,0.141-2.122,2.617-1.6,2.381.052-0.165,1.179-.566,3.459-0.872,5.686a32.2,32.2,0,0,0-.448,5.476c0.047,0.471.07,0.55,0.306,0.026,0.071-.157.236-0.629,0.283-0.76,0.542-1.258,2.334-.367,1.486,1.6A16.99,16.99,0,0,0,809.719,375.369Zm0.023,14.066a1.4,1.4,0,0,1-1.2,1.441,0.952,0.952,0,0,1-.778-0.446,8.834,8.834,0,0,0-2.122-1.991,0.989,0.989,0,0,1-.448-0.812,1.24,1.24,0,0,1,1.179-1.179C806.96,386.448,809.742,388.1,809.742,389.435Zm-1.768,4.637a1.317,1.317,0,0,1,.519,1.1,1.338,1.338,0,0,1-1.132,1.415,1.008,1.008,0,0,1-.637-0.262,8.885,8.885,0,0,0-2.5-1.546,0.887,0.887,0,0,1-.589-0.865,1.235,1.235,0,0,1,1.131-1.258A7.956,7.956,0,0,1,807.974,394.072Zm-6.584-14.091c-1.485.157-3.7,0.314-5.941,0.314-5.942,0-7.781-1.179-9.479-3.223-0.66.839-2.452,3.092-3.371,3.092a1.381,1.381,0,0,1-1.25-1.363,1.153,1.153,0,0,1,.566-0.969,11.681,11.681,0,0,0,3.018-2.751c0.024-1.415.094-2.646,0.094-3.825,0-.917-0.023-1.206-0.99-1.206-0.377,0-.684.027-1.037,0.027a1,1,0,0,1-1.132-1.127,1.063,1.063,0,0,1,.943-1.179h1.438c1.674,0,2.971.21,2.971,2.463,0,1.52-.094,3.3-0.094,4.978a5.622,5.622,0,0,0,1.061,1.1,1.187,1.187,0,0,1-.165-0.628,0.811,0.811,0,0,1,.754-0.865,7.055,7.055,0,0,0,3.56-1.493,0.666,0.666,0,0,1,.448-0.184,1.029,1.029,0,0,1,.826,1.074,0.89,0.89,0,0,1-.354.76,10,10,0,0,1-4.079,1.834h-0.283c0.9,0.524,2.216,1.048,5.517,1.048,2.452,0,5.117-.288,6.908-0.445h0.118a1.171,1.171,0,0,1,1.132,1.257A1.252,1.252,0,0,1,801.39,379.981Zm-4.951-6.76a9.986,9.986,0,0,0,4.079,1.415,0.9,0.9,0,0,1,.849.969,1.122,1.122,0,0,1-1.061,1.179,12.387,12.387,0,0,1-4.81-1.886,0.851,0.851,0,0,1-.425-0.76,1.037,1.037,0,0,1,.92-1.048A0.974,0.974,0,0,1,796.439,373.221Zm4.645-2.2a0.85,0.85,0,0,1,.872.917,0.864,0.864,0,0,1-.872.917l-6.531-.052-6.272.052a0.864,0.864,0,0,1-.872-0.917,0.85,0.85,0,0,1,.872-0.917l3.136,0.026v-1.6l-2.264.026a0.9,0.9,0,0,1,0-1.808l2.264,0.026v-0.733a0.781,0.781,0,0,1,.5-0.734,7.778,7.778,0,0,1-.778.026c-2.334,0-3.23-.34-3.23-2.829,0-.839.023-2.175,1.862-2.175h1.368c0.684,0,.9,0,0.9-0.6,0-.366-0.047-0.471-0.377-0.5h-3.018a0.828,0.828,0,0,1-.826-0.917,0.9,0.9,0,0,1,.8-0.97h0.8c1.108,0,2.381.026,2.758,0.026,1.25,0,1.721.577,1.721,2.437,0,2.227-.542,2.227-3.678,2.227-0.377,0-.424.183-0.424,0.865,0,0.655.189,0.681,1.391,0.681,0.8,0,1.415-.052,1.462-0.865a0.831,0.831,0,0,1,.872-0.838,0.978,0.978,0,0,1,1.038.969,2.2,2.2,0,0,1-1.91,2.358,0.862,0.862,0,0,1,.778.839v0.733l1.132,0.027h1.084v-0.76a0.846,0.846,0,0,1,.8-0.839c-1.6-.34-1.6-1.572-1.6-2.384,0-1.179.023-2.489,1.839-2.489h1.438c0.849,0,.919-0.026.919-0.6,0-.366-0.047-0.471-0.377-0.5h-3.183a0.814,0.814,0,0,1-.8-0.891,0.909,0.909,0,0,1,.8-1h0.8c1.155,0,2.5.026,2.876,0.026,1.368,0,1.745.708,1.745,2.437,0,2.175-.448,2.227-3.8,2.227-0.448,0-.448.236-0.448,0.838,0,0.656.094,0.708,1.485,0.708,1.179,0,1.722-.052,1.769-1a0.831,0.831,0,0,1,.872-0.838,1.019,1.019,0,0,1,1.061,1c0,2.411-2.051,2.621-3.678,2.621-0.354,0-.684-0.027-1.014-0.053a0.781,0.781,0,0,1,.5.734v0.733l2.452-.026a0.9,0.9,0,0,1,0,1.808l-2.452-.026v1.6Zm-5.447-1.572-1.084-.026-1.132.026v1.6l1.155,0.026,1.061-.026v-1.6Zm-9.5-5.895a0.922,0.922,0,0,1-.8-0.551,7.329,7.329,0,0,0-2.311-2.279,0.931,0.931,0,0,1-.471-0.812,1.262,1.262,0,0,1,1.2-1.179c0.707,0,3.655,2.017,3.655,3.353A1.466,1.466,0,0,1,786.135,363.553Zm-14.386,96.483c-2.518.093-4.943,0.187-7.367,0.187V461.9a53.7,53.7,0,0,0,4.943,10.818,45.561,45.561,0,0,0,8.486-7.554,3.6,3.6,0,0,1,2.8-1.305,4.74,4.74,0,0,1,4.476,4.476c0,4.01-11.1,9.979-11.75,10.352a46.829,46.829,0,0,0,12.683,11.191,4.093,4.093,0,0,1,2.238,3.637,4.718,4.718,0,0,1-4.663,4.57c-4.383,0-13.616-9.792-19.3-21.17l0.094,1.119,0.559,13.336v0.653c0,4.943-2.611,11-12.03,11-7.088,0-8.673-1.679-8.673-4.756,0-2.145,1.212-4.2,3.45-4.2a2.32,2.32,0,0,1,.746.093,21.7,21.7,0,0,0,4.384.653c2.518,0,4.1-1.119,4.1-5.409l-0.187-29.19c-2.145,0-4.29-.094-6.341-0.187-5.876-.373-9.606-3.73-9.7-8.487-0.094-1.492-.094-2.891-0.094-4.383,0-3.544.187-7.087,0.28-10.538,0.187-4.1,3.264-7.834,9.326-8.114,1.492-.093,2.985-0.093,4.477-0.093a45.711,45.711,0,0,0,1.212-6.248c0.187-1.866,2.052-2.8,4.01-2.8,2.425,0,4.943,1.305,4.943,3.824,0,0.373-.093,1.771-1.4,5.129,2.891,0,5.782.093,8.767,0.186,4.569,0.094,8.579,3.824,8.766,7.461,0.186,2.8.186,5.689,0.186,8.58,0,2.425,0,4.756-.093,6.9C780.889,456.026,776.972,459.756,771.749,460.036Zm1.4-21.356c-0.093-2.052-1.305-3.358-3.823-3.451-2.985-.093-5.876-0.187-8.674-0.187s-5.595.094-8.3,0.187c-2.8.093-3.73,1.772-3.823,3.544,0,0.653-.094,1.306-0.094,2.052h24.714V438.68Zm-24.807,8.58c0,0.932.093,1.958,0.093,2.8,0.094,3.264,2.891,3.451,12.311,3.451s12.123-.093,12.31-3.637c0-.84.093-1.679,0.093-2.611H748.341Zm16.77-81.037L596.579,409.38v57.474a4.134,4.134,0,0,1-8.267,0v-58.62a4.089,4.089,0,0,1,.089-0.849,3.943,3.943,0,0,1,2.809-4.776L763.087,358.6A3.945,3.945,0,1,1,765.111,366.223ZM616.374,445.767c2.984,0,9.7,2.052,14.735,5.6a4.769,4.769,0,0,1,2.145,4.01c0,2.611-2.052,5.129-4.476,5.129a4.112,4.112,0,0,1-2.705-1.025c-4.1-3.265-7.927-4.57-11.937-5.969a3.293,3.293,0,0,1-2.425-3.171A4.783,4.783,0,0,1,616.374,445.767ZM628.5,470.948a4.041,4.041,0,0,1,3.823-2.519,4.435,4.435,0,0,1,4.57,4.477c0,2.891-6.808,17.066-13.709,25.926a5.909,5.909,0,0,1-4.476,2.425,5.027,5.027,0,0,1-5.037-4.756,4.4,4.4,0,0,1,1.213-2.985C620.384,487.081,625.327,478.035,628.5,470.948Zm0.28,65.939c4.383-.093,8.953-0.186,13.522-0.186a86.524,86.524,0,0,0,2.891-11.192c0.28-2.051,2.425-2.984,4.663-2.984,2.612,0,5.5,1.4,5.5,4.1,0,2.611-3.264,9.605-3.451,9.978,8.393,0,16.973.094,25.367,0.28,5.688,0.093,11.284,4.2,11.377,10.911,0.187,10.539.187,20.8,0.373,31.336l0.187,13.149v0.187c0,5.5-4.57,12.4-17.346,12.4-5.876,0-11.192-.746-11.192-5.409a4.068,4.068,0,0,1,4.29-4.1,5.338,5.338,0,0,1,1.213.093,35.412,35.412,0,0,0,6.155.653c4.1,0,7.367-1.212,7.367-5.409,0-31.429-.186-37.677-0.279-39.356-0.187-5.315-2.052-6.248-6.622-6.341-6.808-.094-13.616-0.187-20.237-0.187-6.715,0-13.243.093-19.585,0.187-5.316.093-6.808,1.585-6.9,6.341-0.186,8.487-.28,16.974-0.28,25.367v25.367c0,2.7-2.331,4.1-4.569,4.1-2.332,0-4.663-1.4-4.663-4.01v-0.093c0.186-17.347.186-36.651,0.559-55.024C617.213,541.084,621.783,536.98,628.778,536.887Zm14.362,17.16c2.238-.093,5.036-0.187,7.927-0.187,3.544,0,7.181.094,10.165,0.187,3.824,0.186,8.207,2.891,8.393,7.461,0.094,2.331.187,5.222,0.187,8.02,0,2.891-.093,5.689-0.187,7.834a8.921,8.921,0,0,1-8.673,8.766c-2.611.094-5.782,0.187-8.859,0.187s-6.156-.093-8.767-0.187c-4.57-.28-7.554-3.917-7.74-8.673,0-1.958-.094-4.663-0.094-7.367,0-2.8.094-5.689,0.094-8.021C635.679,558.057,638.29,554.327,643.14,554.047Zm0.466,21.636c0.093,2.611,1.212,2.891,9.326,2.891,6.248,0,8.3-.373,8.393-2.984,0.093-1.026.093-2.705,0.093-4.57,0-2.425,0-5.129-.093-6.715-0.186-3.077-2.611-3.077-8.113-3.077-2.425,0-4.943,0-6.622.093-2.984.187-3.077,2.238-3.077,7.927C643.513,571.673,643.513,574.191,643.606,575.683Zm9.046-110.331c2.891-.093,6.622-0.187,10.352-0.187,4.476,0,8.953.094,12.03,0.187,5.036,0.186,9.7,3.357,9.886,8.207,0.186,3.823.373,9.7,0.373,14.362,0,1.4-.093,2.7-0.093,3.823-0.187,5.036-3.637,8.58-9.979,9.047-2.705.186-6.528,0.279-10.445,0.279-4.383,0-8.86-.093-12.031-0.279-6.9-.373-9.7-4.1-9.885-8.86-0.093-1.585-.093-3.357-0.093-5.223,0-4.476.186-9.512,0.279-12.776C643.233,468.989,646.963,465.632,652.652,465.352Zm-0.839,24.434c0.186,3.264,2.331,3.451,12.31,3.451,3.078,0,6.155-.094,7.927-0.187,3.824-.28,4.1-2.7,4.1-7.554,0-11.471,0-12.777-3.917-12.963-1.959-.093-5.13-0.093-8.394-0.093-3.171,0-6.248,0-8.113.093-2.612.093-3.637,1.492-3.731,3.077-0.093,2.332-.28,6.715-0.28,10.352C651.719,487.454,651.719,488.76,651.813,489.786ZM633.72,441.2a4.187,4.187,0,0,1-3.171-1.586,36.075,36.075,0,0,0-10.818-8.3,3.18,3.18,0,0,1-1.958-2.8c0-2.238,2.331-4.476,5.036-4.476,2.891,0,15.761,6.994,15.761,12.124A5.174,5.174,0,0,1,633.72,441.2Zm18.186-6.342c2.331,0,4.756,1.679,4.756,4.29,0,3.357-9.419,24.714-16.32,24.714-2.518,0-4.85-2.145-4.85-4.383a3.559,3.559,0,0,1,1.306-2.7c6.155-5.689,9.046-11.751,11.1-18.838A4.083,4.083,0,0,1,651.906,434.856Zm17.813-.839c-0.467-1.493-1.586-1.959-3.917-1.959l-9.979.187H655.73a3.86,3.86,0,0,1-4.011-4.01,3.788,3.788,0,0,1,4.011-3.917l12.31-.094c4.2,0,8.207,2.425,9.419,6.342,2.891,9.139,7.274,16.694,15.3,23.222a4.511,4.511,0,0,1,1.865,3.544,5.583,5.583,0,0,1-5.5,5.129C683.8,462.461,674.568,449.684,669.719,434.017Zm39.173,40.568a3.456,3.456,0,0,1,3.544-3.264,4.016,4.016,0,0,1,4.1,4.1c0,2.8-2.891,14.455-6.061,19.305a4.395,4.395,0,0,1-3.638,2.051c-2.051,0-4.1-1.492-4.1-3.637a4.3,4.3,0,0,1,.746-2.424A42.874,42.874,0,0,0,708.892,474.585Zm25.46-3.078c1.026,1.4,4.85,7.927,4.85,11.658a4.148,4.148,0,0,1-4.2,4.1,3.3,3.3,0,0,1-3.451-3.171,26.784,26.784,0,0,0-3.171-9.419,3.44,3.44,0,0,1-.466-1.492c0-1.772,1.865-2.985,3.637-2.985A3.244,3.244,0,0,1,734.352,471.507Zm12.4-5.689c3.264,0,8.113.093,8.113,5.6a13.761,13.761,0,0,1-.466,3.264c-4.1,15.294-14.549,25.18-18,25.18a4.8,4.8,0,0,1-4.477-4.383,3.568,3.568,0,0,1,1.772-2.891c8.394-5.6,12.87-16.974,12.87-18.652a0.978,0.978,0,0,0-1.026-1.026c-0.559,0-6.248.28-6.621,0.28a3.25,3.25,0,0,1-3.264-3.544,3.805,3.805,0,0,1,1.585-3.171,4.694,4.694,0,0,1-1.119.187,2.773,2.773,0,0,1-2.8-2.425l-0.093-.28c-1.492.28-3.73,0.653-6.342,1.119l0.187,33.574a4.233,4.233,0,0,1-4.383,4.29,3.985,3.985,0,0,1-4.1-4.2v-0.093l0.28-32.361c-4.756.652-10.445,1.3-11,1.3a3.5,3.5,0,0,1-3.45-3.73,3.227,3.227,0,0,1,2.984-3.451c1.119-.093,2.518-0.186,4.1-0.28,1.679-1.958,3.638-4.29,5.5-6.9a91.073,91.073,0,0,0-10.539-8.673,3.61,3.61,0,0,1,1.959-6.715,6.186,6.186,0,0,1,2.518.84,66.736,66.736,0,0,0,7.181-15.948,3.525,3.525,0,0,1,3.73-2.611c2.239,0,4.663,1.492,4.663,3.824,0,1.4-3.544,10.538-9.512,19.118,1.492,1.212,2.984,2.611,4.2,3.73a101.217,101.217,0,0,0,7.088-13.429,3.765,3.765,0,0,1,3.637-2.425c2.239,0,4.477,1.585,4.477,3.917,0,2.8-8.487,15.854-14.922,24.341,3.637-.373,7.181-0.84,9.513-1.119-0.56-1.026-1.213-2.052-1.772-2.891a3.013,3.013,0,0,1-.56-1.679c0-1.679,1.772-2.891,3.544-2.891a3.554,3.554,0,0,1,2.425,1.026c1.585,1.678,5.689,7.927,5.689,11a4.012,4.012,0,0,1-2.145,3.451,1.821,1.821,0,0,1,.746-0.093C741.253,465.911,743.958,465.818,746.756,465.818ZM710.2,593.029h28.724V529.893c0-3.078,2.425-4.57,4.849-4.57,2.518,0,4.943,1.492,4.943,4.57v23.874h25.273a4.059,4.059,0,0,1,4.1,4.29c0,2.238-1.4,4.477-4.1,4.477H748.714v30.5h33.2a3.984,3.984,0,0,1,4.01,4.29,4.119,4.119,0,0,1-4.01,4.384H710.2c-2.7,0-4.1-2.239-4.1-4.477A3.931,3.931,0,0,1,710.2,593.029Zm77.446-189.367a1.009,1.009,0,0,1,0-2.018l3.348,0.026,0.024-1.781-3.584.026a0.983,0.983,0,0,1,0-1.965h2.122a0.983,0.983,0,0,1-.212-0.314,8.135,8.135,0,0,0-.825-1.6,0.707,0.707,0,0,1-.118-0.419,1.073,1.073,0,0,1,1.084-.917c0.9,0,1.745,1.834,1.745,2.306a1.172,1.172,0,0,1-.5.969h1.674c0.024-.052.047-0.078,0.071-0.131a9.315,9.315,0,0,0,1.014-2.594,0.749,0.749,0,0,1,.778-0.6A1.184,1.184,0,0,1,795.5,395.7a7.442,7.442,0,0,1-.92,2.253h2.051a0.983,0.983,0,0,1,0,1.965l-3.513-.026,0.024,1.781,3.348-.026a1.01,1.01,0,0,1,0,2.018l-3.348-.026,0.024,3.432a1.1,1.1,0,0,1-1.109,1.153,1.064,1.064,0,0,1-1.084-1.153l0.023-3.432Zm7.734,2.515c0.071,0,.118.026,0.188,0.026a10.465,10.465,0,0,0,1.486.157,1.323,1.323,0,0,0,1.6-1.388c0-.812.024-1.782,0.024-2.8,0-2.07-.024-4.349-0.1-6.052-0.047-1.389-.471-1.625-1.579-1.651-1.627-.026-3.325-0.052-4.975-0.052s-3.277.026-4.81,0.052c-1.3.026-1.627,0.419-1.65,1.651-0.048,3.223-.048,7.939-0.071,11.869a1.021,1.021,0,0,1-1.085,1.048,1.063,1.063,0,0,1-1.132-1.048c0.024-3.747.048-9.17,0.118-12.97a2.622,2.622,0,0,1,2.806-2.646c1.486-.026,3.065-0.052,4.669-0.052v-1.808h-7.758a1.14,1.14,0,0,1,0-2.28h7.734v-1.388a1.229,1.229,0,1,1,2.452,0l-0.024,1.388h7.781a1.145,1.145,0,0,1,0,2.28h-7.781v1.808c1.627,0,3.231,0,4.81.052a2.8,2.8,0,0,1,2.735,2.83c0.024,1.651.047,6.576,0.071,7.572l0.047,2.62v0.052c0,1.651-.849,3.38-3.772,3.38-2.217,0-2.782-.5-2.782-1.467A1.066,1.066,0,0,1,795.378,406.177Zm30.02-7.7a1.029,1.029,0,0,1-1.038,1.127h-1.744c-0.071,1.231-.165,2.41-0.283,3.458h1.32a0.985,0.985,0,0,1,.967,1.074,1,1,0,0,1-.967,1.075h-1.674c-0.684,2.593-2.1,3.8-4.1,3.8a7.092,7.092,0,0,1-1.863-.289,0.954,0.954,0,0,1-.637-1,1.159,1.159,0,0,1,1.014-1.258,1.617,1.617,0,0,1,.33.053,3.563,3.563,0,0,0,1.179.209,1.86,1.86,0,0,0,1.792-1.493l-6.578.052h-0.047a2.225,2.225,0,0,1-2.5-2.306,4.081,4.081,0,0,1,.118-0.89c0.189-.734.33-1.572,0.472-2.489h-0.825a1.013,1.013,0,0,1-1.085-1.075,1.087,1.087,0,0,1,1.085-1.152h1.108c0.094-.839.212-1.7,0.306-2.542,0.236-2.044.991-2.725,2.877-2.777,1.014-.026,2.263-0.053,3.466-0.053,0.731,0,1.438,0,2.051.027,1.556,0.052,2.617.838,2.617,2.462,0,0.839-.023,1.835-0.047,2.883h1.65A1.021,1.021,0,0,1,825.4,398.474Zm-12.591,3.8V402.4a0.713,0.713,0,0,0,.731.734l1.839-.026c0.165-1.127.283-2.332,0.4-3.59h-2.57C813.067,400.57,812.925,401.566,812.807,402.273Zm0.943-7.231c-0.07.655-.165,1.519-0.282,2.41h2.475c0.1-1.231.189-2.41,0.236-3.432C814.34,394.02,813.868,394.046,813.75,395.042Zm3.631,8.07,2.806-.027c0.142-1.048.26-2.279,0.33-3.563h-2.711C817.688,400.78,817.547,402.011,817.381,403.112Zm0.8-9.092c-0.047,1.022-.118,2.2-0.212,3.432h2.593c0.024-.891.024-1.729,0.024-2.463C820.588,394.02,819.951,394.02,818.183,394.02Zm-11.93,13.7a1.383,1.383,0,0,1-1.108.655,1.285,1.285,0,0,1-1.226-1.284,1.312,1.312,0,0,1,.306-0.838,21.8,21.8,0,0,0,3.3-6.393,1.029,1.029,0,0,1,.967-0.734,1.147,1.147,0,0,1,1.131,1.2A21.5,21.5,0,0,1,806.253,407.723Zm18.037-18.576a1.078,1.078,0,0,1-1.014,1.2H813.185a24.886,24.886,0,0,1-2.17,3.2,1.259,1.259,0,0,1-.943.5,1.174,1.174,0,0,1-1.179-1.127,1.358,1.358,0,0,1,.354-0.838,21.222,21.222,0,0,0,3.537-5.9,0.976,0.976,0,0,1,.943-0.655,1.176,1.176,0,0,1,1.179,1.153,3.883,3.883,0,0,1-.5,1.362l8.865-.079A1.069,1.069,0,0,1,824.29,389.147Zm18.231,9.2a2.484,2.484,0,0,1,2.5,2.306c0.047,1.074.094,2.725,0.094,4.035,0,0.393-.023.759-0.023,1.074a2.5,2.5,0,0,1-2.523,2.541c-0.684.053-1.65,0.079-2.641,0.079-1.108,0-2.24-.026-3.041-0.079a2.384,2.384,0,0,1-2.5-2.489c-0.024-.445-0.024-0.943-0.024-1.467,0-1.258.047-2.673,0.071-3.59a2.4,2.4,0,0,1,2.428-2.41c0.731-.026,1.674-0.052,2.617-0.052C840.611,398.291,841.743,398.317,842.521,398.343Zm-5.824,2.882c-0.023.655-.071,1.887-0.071,2.908,0,0.42,0,.786.024,1.075,0.047,0.917.589,0.969,3.112,0.969,0.778,0,1.556-.026,2-0.052,0.967-.079,1.038-0.76,1.038-2.123,0-3.222,0-3.589-.99-3.642-0.5-.026-1.3-0.026-2.122-0.026-0.8,0-1.58,0-2.052.026A0.872,0.872,0,0,0,836.7,401.225Zm-8.417,7.2a1.339,1.339,0,0,1-1.273-1.336,1.312,1.312,0,0,1,.306-0.838,28.8,28.8,0,0,0,3.443-6.341,1.021,1.021,0,0,1,.966-0.707,1.183,1.183,0,0,1,1.156,1.257c0,0.812-1.722,4.8-3.466,7.284A1.455,1.455,0,0,1,828.28,408.43Zm7.38-17.79a1.053,1.053,0,0,1,1.014-.865,1.207,1.207,0,0,1,1.2,1.206c0,0.943-2.381,6.943-4.126,6.943a1.293,1.293,0,0,1-1.226-1.232,1.044,1.044,0,0,1,.33-0.759A11.08,11.08,0,0,0,835.66,390.64Zm19.976,9.065a0.791,0.791,0,0,1,.707.367,8.615,8.615,0,0,1,1.226,3.275,1.105,1.105,0,0,1-1.061,1.153,0.87,0.87,0,0,1-.872-0.891,8.111,8.111,0,0,0-.8-2.646,1.036,1.036,0,0,1-.118-0.419A0.9,0.9,0,0,1,855.636,399.705Zm-28.952,36.83c-2.985,0-4.383-1.866-4.383-3.824a4.076,4.076,0,0,1,4.383-4.01h49.054c2.985,0,4.477,1.958,4.477,4.01,0,1.865-1.492,3.824-4.383,3.824h-0.094l-14.828-.094v11.192c1.959,0,3.73,0,5.316.093,5.689,0.186,10.165,3.73,10.258,9.139,0.094,6.808.28,13.15,0.28,19.865,0,4.29-.093,8.766-0.28,13.522-0.279,5.876-4.569,8.767-10.911,9.233-4.1.28-10.259,0.466-16.32,0.466-5.5,0-11-.186-14.829-0.373-7.46-.373-10.631-3.917-10.911-9.7-0.187-5.036-.28-9.885-0.28-14.735,0-6.248.093-12.4,0.28-18.838,0.093-4.85,3.917-8.487,9.419-8.58,1.679,0,3.451-.093,5.5-0.093v-11.1h-11.75Zm34.226,55.582c0.933,0,1.959-.093,2.705-0.093,3.357-.186,4.2-1.492,4.29-4.01,0.186-4.29.279-8.58,0.279-12.777q0-8.114-.279-16.227c-0.094-2.891-1.213-3.73-4.011-3.823l-2.984-.094v37.024Zm-14.642.094h6.808V455h-6.808v37.211Zm0-44.672h6.808V436.348l-6.808.093v11.1Zm-10.258,7.648c-3.264.186-4.2,1.4-4.2,3.823-0.093,5.5-.186,11.191-0.186,16.787,0,4.01,0,8.114.186,12.031,0.093,3.17.839,4.01,4.943,4.2,0.559,0,1.026.093,1.678,0.093V455.093C837.5,455.093,836.756,455.187,836.01,455.187Zm-21.73-30.963a4.015,4.015,0,0,1,4.01-2.891c2.425,0,5.13,1.866,5.13,4.384,0,2.238-6.155,14.362-6.9,15.76L815.4,498.832a4.293,4.293,0,0,1-4.569,4.1,3.984,3.984,0,0,1-4.29-4.011v-0.093l1.025-42.246c-4.2,6.061-6.434,7.927-8.859,7.927a4.128,4.128,0,0,1-4.2-3.917,4.927,4.927,0,0,1,1.306-2.985C803.928,448.565,809.99,437,814.28,424.224Z" transform="translate(-471 -283)"/>
</svg>
