<svg id="logo-header" xmlns="http://www.w3.org/2000/svg" width="349" height="62.969" viewBox="0 0 349 62.969">
  <defs>
    <style>
      .cls-1 {
        fill: #ffc600;
      }

      .cls-1, .cls-2, .cls-3, .cls-4, .cls-5, .cls-6, .cls-7 {
        fill-rule: evenodd;
      }

      .cls-2 {
        fill: #ffba00;
      }

      .cls-3 {
        fill: #ffb100;
      }

      .cls-4 {
        fill: #ff9600;
      }

      .cls-5 {
        fill: #ff9400;
      }

      .cls-6, .cls-7 {
        fill: #333;
      }

      .cls-7 {
        stroke: #333;
        stroke-linejoin: round;
        stroke-width: 1px;
      }
    </style>
  </defs>
  <path id="bg" class="cls-1" d="M39.317,68.272h13.64V79.917H39.317V68.272Z" transform="translate(-21 -21)"/>
  <path id="bg-2" data-name="bg" class="cls-2" d="M81.568,51.306h13.64V62.949H81.568V51.306Z" transform="translate(-21 -21)"/>
  <path id="bg-3" data-name="bg" class="cls-3" d="M117.5,60.621h19.3v19.3H117.5v-19.3Z" transform="translate(-21 -21)"/>
  <path id="bg-4" data-name="bg" class="cls-4" d="M165.072,58.292h10.979v16.3H165.072v-16.3Z" transform="translate(-21 -21)"/>
  <path id="bg-5" data-name="bg" class="cls-5" d="M197.657,61.864h10.979V72.178H197.657V61.864Z" transform="translate(-21 -21)"/>
  <path id="沿線価値向上Project" class="cls-6" d="M368.567,62.466l-83.7,21.443a1.921,1.921,0,0,1-2.35-1.365,1.887,1.887,0,0,1-.019-0.873,2.112,2.112,0,0,1-.07-0.518V79.1c-0.033-.177-0.068-0.353-0.088-0.539-0.057-.526-0.1-0.976-0.114-1.352-0.039-.541-0.062-1.076-0.072-1.606s-0.014-1.07-.014-1.622V72.6q0-1.012.014-2.314T282.2,67.56q0.028-1.42.086-2.647t0.128-2.1a3.121,3.121,0,0,1,.185-1.049q0.028-.036.171-0.175c0.095-.093.2-0.188,0.314-0.286l0.314-.272c0.095-.083.161-0.139,0.2-0.169a24.735,24.735,0,0,1,2.88-2.076,11.908,11.908,0,0,1,3.107-1.4,4.956,4.956,0,0,1,2.381-.128,4.02,4.02,0,0,1,1.825.9,4.233,4.233,0,0,1,1.154,1.707,6.319,6.319,0,0,1,.4,2.272,8.582,8.582,0,0,1-.67,3.208,13.943,13.943,0,0,1-1.781,3.157,14.555,14.555,0,0,1-2.538,2.638,9.432,9.432,0,0,1-2.936,1.65q-0.03.521-.043,1.31t-0.1,1.667c-0.019.2-.056,0.4-0.081,0.593a2.14,2.14,0,0,1,.08.552v2.419L315.076,72.2c0.1-.08.183-0.163,0.287-0.241q0.713-.539,1.553-1.184a7.419,7.419,0,0,0,1.554-1.668,9.444,9.444,0,0,0,1.2-2.568,13.107,13.107,0,0,0,.484-3.855q0-1.455-.057-2.837t-0.171-2.8q-0.057-.811-0.114-1.637t-0.057-1.653a5.239,5.239,0,0,1,.57-2.282,3.655,3.655,0,0,1,.727-0.97,2.475,2.475,0,0,1,1.069-.594,1.207,1.207,0,0,1,1.184.216,2.978,2.978,0,0,1,.769,1.172,7.357,7.357,0,0,1,.428,1.765q0.129,1.006.185,1.974t0.057,1.8v1.284q0,1.341-.071,3a30.515,30.515,0,0,1-.342,3.388,19.424,19.424,0,0,1-.841,3.369,9.849,9.849,0,0,1-1.3,2.508L367.581,58.75A1.922,1.922,0,0,1,368.567,62.466Zm-81.253,3.7a14.624,14.624,0,0,1,.014,1.936q0.456-.353,1-0.8a10.073,10.073,0,0,0,1-.945,5.694,5.694,0,0,0,.77-1.053,2.336,2.336,0,0,0,.313-1.156,1.475,1.475,0,0,0-.271-0.924,0.779,0.779,0,0,0-.9-0.181,3.73,3.73,0,0,0-1.083.512q-0.541.363-1,.717Q287.243,65.245,287.314,66.166ZM356,52.675a1.32,1.32,0,0,0,.542.635,1.291,1.291,0,0,0,1.026.045,5.956,5.956,0,0,0,.827-0.3,6.15,6.15,0,0,1,.856-0.307,0.93,0.93,0,0,1,1.069.219,1.967,1.967,0,0,1,.328,1.222,2.033,2.033,0,0,1-.357,1.139,4.019,4.019,0,0,1-.9.96,6.941,6.941,0,0,1-1.212.747,8.658,8.658,0,0,1-4.419.831,2.507,2.507,0,0,1-1.682-1.034,4.462,4.462,0,0,1-.67-2.154q-0.114-1.338-.114-3.021,0-1.34.086-2.719t0.256-2.966q-0.4.11-.627,0.187c-0.152.052-.276,0.09-0.37,0.116a2.76,2.76,0,0,1-1.583.036,0.967,0.967,0,0,1-.67-1.042,1.678,1.678,0,0,1,.385-1.019,5.023,5.023,0,0,1,.984-0.955,9.281,9.281,0,0,1,1.3-.813,11.287,11.287,0,0,1,1.326-.593,15.834,15.834,0,0,1,.114-1.8,9.814,9.814,0,0,1,.413-1.925,5.862,5.862,0,0,1,.813-1.636,2.355,2.355,0,0,1,1.311-.931,1.129,1.129,0,0,1,.813.047,1.446,1.446,0,0,1,.584.524,2.626,2.626,0,0,1,.342.833,4.188,4.188,0,0,1,.114.967,8.767,8.767,0,0,1-.085,1.193q-0.086.623-.314,1.57,0.484-.19.656-0.252c0.114-.041.218-0.074,0.313-0.1a6.615,6.615,0,0,1,1.013-.193,3.4,3.4,0,0,1,.969.018,1.472,1.472,0,0,1,.727.328,0.889,0.889,0,0,1,.285.706,1.639,1.639,0,0,1-.413,1.026,5.45,5.45,0,0,1-1.041.971,9.129,9.129,0,0,1-1.34.811,13.408,13.408,0,0,1-1.34.583q-0.171,1.217-.242,2.22t-0.157,2.025q-0.057.5-.1,1.011c-0.028.341-.043,0.682-0.043,1.024q0,0.371.029,0.862A2.726,2.726,0,0,0,356,52.675Zm-14.233,3.119a2.34,2.34,0,0,0,.47.855,0.721,0.721,0,0,0,.785.2,2.04,2.04,0,0,0,.9-0.547,10.211,10.211,0,0,0,.812-0.922q0.37-.444.813-0.937a2.094,2.094,0,0,1,1.012-.649,1.1,1.1,0,0,1,1.126.2,1.4,1.4,0,0,1,.413,1.056A4.189,4.189,0,0,1,347.581,57,8.211,8.211,0,0,1,346.3,58.81a9.277,9.277,0,0,1-1.71,1.441,6.46,6.46,0,0,1-1.8.851,3.831,3.831,0,0,1-2.608-.052,3.936,3.936,0,0,1-1.725-1.479,6.425,6.425,0,0,1-.7-1.478,5.29,5.29,0,0,1-.246.57,10.54,10.54,0,0,1-1.54,2.078,12.663,12.663,0,0,1-1.981,1.715,6.542,6.542,0,0,1-1.939.976,4.37,4.37,0,0,1-2.694-.014,4.584,4.584,0,0,1-1.982-1.38,6.516,6.516,0,0,1-1.211-2.248,8.633,8.633,0,0,1-.414-2.639,14.22,14.22,0,0,1,.4-3.162,14.381,14.381,0,0,1,1.212-3.328,11.378,11.378,0,0,1,2.053-2.847,6.5,6.5,0,0,1,2.95-1.725,5.127,5.127,0,0,1,1.854-.182,3.427,3.427,0,0,1,1.539.5,3.12,3.12,0,0,1,1.055,1.136,3.541,3.541,0,0,1,.4,1.744,6.7,6.7,0,0,1-.57,2.667,9.709,9.709,0,0,1-1.511,2.441,11.481,11.481,0,0,1-2.167,1.98,9.2,9.2,0,0,1-2.509,1.275,1.151,1.151,0,0,0,.67,1.014,2.082,2.082,0,0,0,1.326.006,3.093,3.093,0,0,0,1.112-.591q0.541-.434,1.055-0.932t1.012-.92a2.679,2.679,0,0,1,1.012-.564,1.463,1.463,0,0,1,.646-0.036c-0.026-.32-0.053-0.64-0.053-0.954a15.272,15.272,0,0,1,.4-3.262,15.441,15.441,0,0,1,1.226-3.489,11.58,11.58,0,0,1,2.124-3.009,6.765,6.765,0,0,1,3.093-1.821A3.36,3.36,0,0,1,346,43.049a2.824,2.824,0,0,1,1.34.9,4.387,4.387,0,0,1,.8,1.534,6.327,6.327,0,0,1,.271,1.836v0.285a1.571,1.571,0,0,1-.029.293,1.8,1.8,0,0,1-.028.307,1.907,1.907,0,0,1-.086.323,3.814,3.814,0,0,1-.8,1.318,2.674,2.674,0,0,1-1.283.8,1.116,1.116,0,0,1-1.511-.7,0.759,0.759,0,0,1-.057-0.312,2.711,2.711,0,0,0-.028-0.377V48.429a1.282,1.282,0,0,0-.2-0.573,0.42,0.42,0,0,0-.485-0.095,1.743,1.743,0,0,0-.926.868,9.029,9.029,0,0,0-.77,1.666,14.835,14.835,0,0,0-.527,1.871,7.519,7.519,0,0,0-.2,1.481q0,0.428.057,1.025A5.179,5.179,0,0,0,341.765,55.794Zm-10.529-2.407a7.716,7.716,0,0,0,1.055-.675,4.406,4.406,0,0,0,.855-0.849,1.6,1.6,0,0,0,.357-0.982,1.41,1.41,0,0,0-.2-0.715,0.5,0.5,0,0,0-.627-0.227,2.267,2.267,0,0,0-1.055.618,4.077,4.077,0,0,0-.713,1.023,6.072,6.072,0,0,0-.441,1.191,5.87,5.87,0,0,0-.186,1.106Q330.68,53.683,331.236,53.387Zm-9.273-7.915a3.288,3.288,0,0,1,.755-0.322,1.8,1.8,0,0,1,1.012-.008,0.677,0.677,0,0,1,.471.74,1.561,1.561,0,0,1-.228.79,3.2,3.2,0,0,1-.571.713,4.251,4.251,0,0,1-.741.561,3.048,3.048,0,0,1-.741.332,1.56,1.56,0,0,1-1-.011,0.728,0.728,0,0,1-.428-0.767,1.667,1.667,0,0,1,.214-0.815A2.765,2.765,0,0,1,321.25,46,3.848,3.848,0,0,1,321.963,45.472ZM296.2,61.718c0-.418.018-0.889,0.057-1.413a5.925,5.925,0,0,1,.313-1.527,4.182,4.182,0,0,1,.756-1.334,2.673,2.673,0,0,1,1.382-.837,0.988,0.988,0,0,1,.827.086,1.635,1.635,0,0,1,.556.617,3.578,3.578,0,0,1,.328.879,5.7,5.7,0,0,1,.143.9,10.592,10.592,0,0,1,1.539-2.235,4.989,4.989,0,0,1,2.224-1.368,5.193,5.193,0,0,1,1.354-.244,3.168,3.168,0,0,1,1.226.176,1.97,1.97,0,0,1,.912.676,1.815,1.815,0,0,1,.29.611c0.053-.113.09-0.234,0.147-0.346a10.027,10.027,0,0,1,1.967-2.709,6.456,6.456,0,0,1,2.851-1.626,3.75,3.75,0,0,1,2.722.12,4.4,4.4,0,0,1,1.811,1.669,7.642,7.642,0,0,1,.969,2.571,11.265,11.265,0,0,1,.2,2.854,18.456,18.456,0,0,1-.471,3.181,13.153,13.153,0,0,1-1.126,3.077,9.435,9.435,0,0,1-1.881,2.514,6.294,6.294,0,0,1-2.709,1.516,3.745,3.745,0,0,1-2.537-.072,4.479,4.479,0,0,1-1.825-1.466,6.94,6.94,0,0,1-1.112-2.361,10.625,10.625,0,0,1-.37-2.793,15.294,15.294,0,0,1,.37-3.225c0.025-.114.067-0.221,0.094-0.334a3.25,3.25,0,0,1-1,.513,1.738,1.738,0,0,1-.685.117q-0.285-.021-0.57-0.057-0.257-.043-0.513-0.073a1.258,1.258,0,0,0-.57.086,2.715,2.715,0,0,0-1.012.592,5.324,5.324,0,0,0-.8.933,6.7,6.7,0,0,0-.613,1.124,8.012,8.012,0,0,0-.4,1.151,6.844,6.844,0,0,0-.128,1.076q-0.043.711-.043,1.509-0.029.836-.028,1.576a9.939,9.939,0,0,1-.057,1.185,10.3,10.3,0,0,1-.143,1.109,6.408,6.408,0,0,1-.356,1.253,4.024,4.024,0,0,1-.642,1.089,1.983,1.983,0,0,1-1.026.653,1.12,1.12,0,0,1-.841-0.054,1.531,1.531,0,0,1-.6-0.591,3.832,3.832,0,0,1-.4-0.988,9.6,9.6,0,0,1-.242-1.217q-0.085-.661-0.129-1.334t-0.057-1.282q-0.014-.609,0-1.127t0.015-.831q-0.03-.99-0.1-1.983T296.2,61.718Zm15.061,0.988a7.339,7.339,0,0,0,.357,1.371,2.863,2.863,0,0,0,.556.959,0.712,0.712,0,0,0,.755.234,1.379,1.379,0,0,0,.784-0.644,4.671,4.671,0,0,0,.528-1.229,9.3,9.3,0,0,0,.285-1.519,14.244,14.244,0,0,0,.085-1.492,8.733,8.733,0,0,0-.114-1.352,7.251,7.251,0,0,0-.328-1.322,2.566,2.566,0,0,0-.541-0.935,0.725,0.725,0,0,0-.756-0.22,1.339,1.339,0,0,0-.755.664,5.524,5.524,0,0,0-.542,1.261,10.613,10.613,0,0,0-.328,1.474,8.956,8.956,0,0,0-.114,1.3A8.8,8.8,0,0,0,311.263,62.706ZM273.828,51.813V80.029a1.8,1.8,0,0,1-1.8,1.8H271.6a1.8,1.8,0,0,1-1.8-1.8V51.038a1.812,1.812,0,0,1,.029-0.287,1.917,1.917,0,0,1,1.382-2.237l83.7-21.442a1.922,1.922,0,0,1,.986,3.716ZM259.836,81.171H228.647a1.81,1.81,0,0,1-1.784-1.947,1.709,1.709,0,0,1,1.784-1.825h12.492V49.942a2.134,2.134,0,0,1,4.258,0V60.324h10.991a1.765,1.765,0,0,1,1.785,1.866,1.811,1.811,0,0,1-1.785,1.947H245.4V77.4h14.439a1.732,1.732,0,0,1,1.744,1.866A1.791,1.791,0,0,1,259.836,81.171Zm-47.86,1.379c-2.555,0-4.867-.325-4.867-2.352a1.77,1.77,0,0,1,1.866-1.784,2.308,2.308,0,0,1,.527.041,15.4,15.4,0,0,0,2.677.284c1.785,0,3.2-.527,3.2-2.352,0-13.668-.081-16.385-0.122-17.115-0.081-2.312-.892-2.717-2.879-2.758-2.961-.04-5.922-0.081-8.8-0.081-2.92,0-5.759.041-8.517,0.081-2.312.041-2.961,0.69-3,2.758-0.081,3.691-.122,7.381-0.122,11.032V81.333a2.024,2.024,0,0,1-4.015.041V81.333c0.081-7.544.081-15.939,0.243-23.929,0.041-2.6,2.028-4.38,5.07-4.421,1.906-.041,3.893-0.081,5.881-0.081a37.747,37.747,0,0,0,1.257-4.867,1.816,1.816,0,0,1,2.028-1.3c1.135,0,2.393.608,2.393,1.785,0,1.136-1.42,4.177-1.5,4.34,3.65,0,7.381.04,11.032,0.122a4.867,4.867,0,0,1,4.948,4.745c0.081,4.583.081,9.044,0.162,13.627l0.081,5.718v0.081C219.52,79.548,217.533,82.55,211.976,82.55Zm-32.731-.973c-3.042.081-6.449,0.122-9.815,0.122-2.88,0-5.719-.041-8.193-0.122-2.92-.081-4.38-1.906-4.421-4.583,0-2.068-.04-5.313-0.04-8.558s0.04-6.489.04-8.6a1.849,1.849,0,0,1,1.907-1.906,1.754,1.754,0,0,1,1.825,1.866v0.041c-0.041,1.906-.041,5.11-0.041,8.314s0,6.368.041,8.193a1.453,1.453,0,0,0,1.5,1.663c2.312,0.122,5.313.162,8.477,0.162,2.879,0,5.921-.041,8.72-0.162h0.081a1.647,1.647,0,0,1,1.7,1.744A1.754,1.754,0,0,1,179.245,81.576ZM179,54.93h-7.827l-0.163,1.987c1.217,0,2.393.041,3.2,0.081,1.866,0.122,3.245,1.3,3.286,2.92,0.04,2.028.081,3.975,0.081,5.881,0,2.312-.041,4.583-0.081,6.895-0.041,1.906-1.136,3.163-3.407,3.326-1.014.081-2.636,0.122-4.218,0.122-1.339,0-2.636-.04-3.448-0.122a3.184,3.184,0,0,1-3.082-3.326c-0.04-2.515-.04-5.029-0.04-7.422,0-1.785,0-3.529.04-5.191a2.914,2.914,0,0,1,3-3.082c0.244,0,.487-0.041.771-0.041l0.162-2.028h-8.922a1.63,1.63,0,1,1,0-3.245h9.166l0.243-3.042a1.931,1.931,0,0,1,2.068-1.744,1.711,1.711,0,0,1,1.866,1.622v0.162l-0.243,3H179A1.627,1.627,0,1,1,179,54.93Zm-12.207,17.2c0,0.973.081,1.1,3.528,1.1,0.933,0,1.866-.041,2.474-0.041,1.095-.04,1.217-0.446,1.217-2.92h-7.26C166.753,70.91,166.794,71.518,166.794,72.127Zm-0.082-4.5h7.382V65.11h-7.382v2.514Zm1.014-7.949a0.925,0.925,0,0,0-.932,1.054c0,0.527-.041,1.095-0.041,1.7h7.26c0-1.785,0-2.758-1.095-2.758-0.568-.041-1.542-0.041-2.555-0.041C169.389,59.635,168.375,59.635,167.726,59.675Zm-13.749-4.218L153.45,81.252a1.912,1.912,0,0,1-2.028,1.825,1.765,1.765,0,0,1-1.865-1.784V81.252l0.486-19.63q-0.912,1.217-1.825,2.312a2.367,2.367,0,0,1-1.825.933,1.893,1.893,0,0,1-1.947-1.784,1.933,1.933,0,0,1,.568-1.3A37.9,37.9,0,0,0,153,48.36a1.742,1.742,0,0,1,1.7-1.217,2.256,2.256,0,0,1,2.272,2.028,2.16,2.16,0,0,1-.2.811Q155.438,52.781,153.977,55.457Zm-15.535-1.5H138.4l-6.449-.041v4.867c0.852,0,1.622,0,2.312.041,2.474,0.081,4.42,1.622,4.461,3.975,0.041,2.961.122,5.719,0.122,8.639,0,1.866-.041,3.812-0.122,5.881-0.122,2.555-1.987,3.812-4.745,4.015-1.785.122-4.462,0.2-7.1,0.2-2.393,0-4.785-.081-6.448-0.162-3.245-.162-4.624-1.7-4.746-4.218-0.081-2.19-.121-4.3-0.121-6.408,0-2.717.04-5.394,0.121-8.193a3.867,3.867,0,0,1,4.1-3.731c0.73,0,1.5-.041,2.393-0.041V53.957h-5.111a1.693,1.693,0,0,1-1.906-1.663,1.772,1.772,0,0,1,1.906-1.744H138.4a1.763,1.763,0,0,1,1.946,1.744A1.738,1.738,0,0,1,138.442,53.957Zm-6.489,24.172c0.405,0,.852-0.041,1.176-0.041,1.46-.081,1.825-0.649,1.866-1.744,0.081-1.866.121-3.731,0.121-5.556q0-3.529-.121-7.057c-0.041-1.257-.528-1.622-1.744-1.663l-1.3-.041v16.1Zm-9.774-16.1c-0.406,0-.73.041-1.055,0.041-1.419.081-1.825,0.608-1.825,1.663-0.04,2.393-.081,4.867-0.081,7.3,0,1.744,0,3.528.081,5.232,0.041,1.379.365,1.744,2.15,1.825,0.243,0,.446.041,0.73,0.041v-16.1Zm6.367-8.152-2.961.041v4.826h2.961V53.876Zm0,8.111h-2.961V78.17h2.961V61.987ZM112.161,81.049a1.867,1.867,0,0,1-1.987,1.785,1.732,1.732,0,0,1-1.866-1.744V81.049l0.446-18.372c-1.825,2.636-2.8,3.447-3.853,3.447a1.8,1.8,0,0,1-1.825-1.7,2.144,2.144,0,0,1,.568-1.3,41.349,41.349,0,0,0,8.03-14.519,1.746,1.746,0,0,1,1.744-1.257,2.175,2.175,0,0,1,2.231,1.906c0,0.973-2.677,6.246-3,6.854Zm-13.832-.324c-1.906,0-5.921-4.258-8.4-9.206L89.974,72l0.243,5.8v0.284c0,2.15-1.136,4.786-5.232,4.786-3.082,0-3.772-.73-3.772-2.068a1.635,1.635,0,0,1,1.5-1.825,1.007,1.007,0,0,1,.325.041,9.435,9.435,0,0,0,1.906.284c1.095,0,1.784-.487,1.784-2.352L86.649,64.258c-0.933,0-1.866-.041-2.758-0.081-2.555-.162-4.177-1.622-4.218-3.691-0.041-.649-0.041-1.257-0.041-1.906,0-1.541.081-3.082,0.122-4.583,0.081-1.785,1.419-3.407,4.056-3.529,0.649-.041,1.3-0.041,1.947-0.041a19.871,19.871,0,0,0,.527-2.717,1.567,1.567,0,0,1,1.744-1.217,1.91,1.91,0,0,1,2.15,1.663,6.91,6.91,0,0,1-.608,2.231c1.257,0,2.514.041,3.812,0.081a3.907,3.907,0,0,1,3.812,3.245c0.081,1.217.081,2.474,0.081,3.731,0,1.055,0,2.069-.041,3a4.074,4.074,0,0,1-4.056,3.731c-1.1.041-2.15,0.081-3.2,0.081v0.73a23.376,23.376,0,0,0,2.15,4.7,19.82,19.82,0,0,0,3.691-3.285,1.567,1.567,0,0,1,1.217-.568,2.061,2.061,0,0,1,1.947,1.947c0,1.744-4.826,4.34-5.11,4.5a20.372,20.372,0,0,0,5.516,4.867,1.78,1.78,0,0,1,.974,1.582A2.052,2.052,0,0,1,98.329,80.725ZM93.787,54.89a1.5,1.5,0,0,0-1.663-1.5c-1.3-.041-2.555-0.081-3.772-0.081s-2.434.041-3.61,0.081A1.521,1.521,0,0,0,83.08,54.93c0,0.284-.04.568-0.04,0.892H93.787V54.89Zm-0.041,4.867c0-.365.041-0.73,0.041-1.136H83c0,0.406.041,0.852,0.041,1.217,0.04,1.419,1.257,1.5,5.353,1.5S93.665,61.3,93.746,59.757ZM74.441,61.338a1.448,1.448,0,0,1,1.541-1.257,1.545,1.545,0,0,1,1.055.446c0.689,0.73,2.474,3.447,2.474,4.786a1.745,1.745,0,0,1-.933,1.5,0.79,0.79,0,0,1,.324-0.041c1.014-.041,2.19-0.081,3.407-0.081,1.419,0,3.529.04,3.529,2.433a5.989,5.989,0,0,1-.2,1.419C83.85,77.2,79.308,81.5,77.807,81.5a2.089,2.089,0,0,1-1.947-1.906,1.552,1.552,0,0,1,.771-1.257,15.219,15.219,0,0,0,5.6-8.111,0.426,0.426,0,0,0-.446-0.446c-0.243,0-2.717.122-2.88,0.122a1.413,1.413,0,0,1-1.419-1.541,1.655,1.655,0,0,1,.689-1.379,2.039,2.039,0,0,1-.487.081A1.205,1.205,0,0,1,76.469,66l-0.041-.122c-0.649.122-1.622,0.284-2.758,0.487l0.081,14.6a1.841,1.841,0,0,1-1.906,1.866,1.733,1.733,0,0,1-1.785-1.825V80.968l0.122-14.073c-2.068.284-4.542,0.568-4.786,0.568a1.523,1.523,0,0,1-1.5-1.622,1.4,1.4,0,0,1,1.3-1.5c0.487-.041,1.095-0.081,1.785-0.122,0.73-.852,1.582-1.866,2.393-3a39.61,39.61,0,0,0-4.583-3.772,1.57,1.57,0,0,1,.852-2.92,2.688,2.688,0,0,1,1.1.365,29.007,29.007,0,0,0,3.123-6.935,1.533,1.533,0,0,1,1.622-1.136,1.9,1.9,0,0,1,2.028,1.663c0,0.608-1.541,4.583-4.137,8.314,0.649,0.527,1.3,1.136,1.825,1.622a44.074,44.074,0,0,0,3.082-5.84,1.637,1.637,0,0,1,1.582-1.054,1.852,1.852,0,0,1,1.947,1.7c0,1.217-3.691,6.895-6.489,10.585,1.582-.162,3.123-0.365,4.137-0.487-0.243-.446-0.527-0.892-0.771-1.257A1.309,1.309,0,0,1,74.441,61.338Zm-7.057,7.746a1.747,1.747,0,0,1,1.785,1.785,24.537,24.537,0,0,1-2.636,8.4,1.911,1.911,0,0,1-1.582.892,1.711,1.711,0,0,1-1.785-1.582,1.87,1.87,0,0,1,.325-1.055A18.648,18.648,0,0,0,65.843,70.5,1.5,1.5,0,0,1,67.384,69.085ZM57.243,65.232c-2.312,0-6.327-5.556-8.436-12.37-0.2-.649-0.689-0.852-1.7-0.852l-4.34.081H42.723a1.678,1.678,0,0,1-1.744-1.744,1.647,1.647,0,0,1,1.744-1.7l5.354-.041a4.2,4.2,0,0,1,4.1,2.758,20.054,20.054,0,0,0,6.651,10.1A1.961,1.961,0,0,1,59.636,63,2.428,2.428,0,0,1,57.243,65.232ZM43.129,55.092c0,1.46-4.1,10.748-7.1,10.748a2.12,2.12,0,0,1-2.109-1.906,1.549,1.549,0,0,1,.568-1.176,16.654,16.654,0,0,0,4.826-8.193,1.775,1.775,0,0,1,1.744-1.338A1.984,1.984,0,0,1,43.129,55.092Zm-9.977.892a1.82,1.82,0,0,1-1.379-.689,15.7,15.7,0,0,0-4.7-3.61,1.383,1.383,0,0,1-.852-1.217,2.175,2.175,0,0,1,2.19-1.947c1.257,0,6.854,3.042,6.854,5.272A2.25,2.25,0,0,1,33.152,55.985Zm-0.2,6.165A2.182,2.182,0,0,1,31,64.38a1.787,1.787,0,0,1-1.176-.446,15.967,15.967,0,0,0-5.191-2.6,1.432,1.432,0,0,1-1.054-1.379,2.08,2.08,0,0,1,2.028-1.987,13.835,13.835,0,0,1,6.408,2.433A2.074,2.074,0,0,1,32.949,62.149ZM30.88,68.922a1.757,1.757,0,0,1,1.663-1.095,1.929,1.929,0,0,1,1.987,1.947c0,1.257-2.961,7.422-5.962,11.275A2.57,2.57,0,0,1,26.622,82.1a2.186,2.186,0,0,1-2.19-2.068,1.912,1.912,0,0,1,.527-1.3A43.331,43.331,0,0,0,30.88,68.922Zm10.5-2.433c1.257-.041,2.88-0.081,4.5-0.081,1.947,0,3.893.041,5.232,0.081,2.19,0.081,4.218,1.46,4.3,3.569,0.081,1.663.162,4.218,0.162,6.246,0,0.608-.041,1.176-0.041,1.663-0.081,2.19-1.582,3.731-4.34,3.934-1.176.081-2.839,0.122-4.542,0.122-1.906,0-3.853-.041-5.232-0.122-3-.162-4.218-1.784-4.3-3.853-0.04-.689-0.04-1.46-0.04-2.271,0-1.947.081-4.137,0.122-5.556C37.289,68.071,38.911,66.611,41.385,66.489ZM41.02,77.115c0.081,1.419,1.014,1.5,5.354,1.5,1.338,0,2.677-.04,3.447-0.081,1.663-.122,1.785-1.176,1.785-3.285,0-4.989,0-5.556-1.7-5.637-0.852-.041-2.231-0.041-3.65-0.041-1.379,0-2.717,0-3.529.041A1.436,1.436,0,0,0,41.1,70.95c-0.041,1.014-.122,2.92-0.122,4.5C40.979,76.1,40.979,76.669,41.02,77.115ZM75.7,68.6a1.411,1.411,0,0,1,1.217.568c0.446,0.608,2.109,3.447,2.109,5.07A1.8,1.8,0,0,1,77.2,76.02a1.433,1.433,0,0,1-1.5-1.379,11.656,11.656,0,0,0-1.379-4.1A1.287,1.287,0,0,1,75.7,68.6Zm123.787-8.152c0.973-.041,2.19-0.081,3.447-0.081,1.541,0,3.123.041,4.421,0.081A3.675,3.675,0,0,1,211,63.691c0.04,1.014.081,2.271,0.081,3.488,0,1.257-.041,2.474-0.081,3.407a3.88,3.88,0,0,1-3.772,3.812c-1.136.04-2.515,0.081-3.853,0.081s-2.677-.041-3.812-0.081a3.643,3.643,0,0,1-3.367-3.772c0-.852-0.04-2.028-0.04-3.2,0-1.217.04-2.474,0.04-3.488A3.412,3.412,0,0,1,199.485,60.446Zm0.2,9.409c0.041,1.136.528,1.257,4.056,1.257,2.717,0,3.61-.162,3.65-1.3,0.041-.446.041-1.176,0.041-1.987,0-1.054,0-2.231-.041-2.92-0.081-1.338-1.135-1.338-3.528-1.338-1.055,0-2.15,0-2.88.041-1.3.081-1.338,0.973-1.338,3.447C199.647,68.111,199.647,69.206,199.687,69.855Z" transform="translate(-21 -21)"/>
  <path id="選ばれる南海沿線を目指して" class="cls-7" d="M227.286,28.826c-0.1.318-.477,0.693-1.67,0.618a6.742,6.742,0,0,0-2.538.524A5.128,5.128,0,0,0,220.9,32.16c-1.5,2.753-.358,6.687,3.459,6.537,1.789-.075,1.891,2.135.085,2.117-5.145-.019-6.917-5.207-5.06-8.972a6.621,6.621,0,0,1,.545-0.974c0.273-.393.187-0.375-0.136-0.262a22.337,22.337,0,0,0-2.147.936,15.134,15.134,0,0,1-1.533.562,1.054,1.054,0,1,1-.579-2.023c0.357-.094,1.346-0.3,1.891-0.45,0.834-.225,2.317-0.6,4.054-1.142a21.167,21.167,0,0,1,4.651-1.105A1.076,1.076,0,0,1,227.286,28.826Zm-25.15,8.335c-0.068-1.967.119-3.559,0.2-5.544,0.051-1.217.171-3.053,0.137-4.214a0.93,0.93,0,1,1,1.857-.037c-0.034,1.18-.154,2.959-0.239,4.214-0.119,1.985-.375,3.69-0.307,5.506,0.1,2.735,3.135,2.547,6.1-.019,1.107-.955,2.146.768,1.175,1.63C207.741,41.675,202.289,42.218,202.136,37.161ZM192.4,32.685c-2.1,0-3.748-.019-3.748-2.079,0-1.086.017-3.484,0.034-4.514a0.827,0.827,0,0,1,1.635-.019v0.019c0,0.506-.017,1.218-0.034,1.91a30.538,30.538,0,0,0,4.242-1.573,0.844,0.844,0,0,1,1.227.843,0.884,0.884,0,0,1-.63.843,33.186,33.186,0,0,1-4.856,1.424v0.749c0,0.749.46,0.88,2.351,0.88,1.84,0,2.539-.225,2.539-1.311a0.725,0.725,0,0,1,.8-0.73,0.881,0.881,0,0,1,.954.9C196.919,32.441,194.908,32.685,192.4,32.685ZM187.31,32.4a0.614,0.614,0,0,1,.238-0.056,0.756,0.756,0,0,1,.631.824c0,0.562-.239.674-2.13,1.517V36.73c0,0.3.051,2,.068,2.66v0.075a1.973,1.973,0,0,1-2.18,2.1c-0.9,0-1.534-.169-1.534-1.011a0.769,0.769,0,0,1,.665-0.861,0.43,0.43,0,0,1,.153.019,2.419,2.419,0,0,0,.545.075,0.594,0.594,0,0,0,.7-0.618V35.344a6.776,6.776,0,0,1-1.789.562,0.843,0.843,0,0,1-.835-0.9,0.816,0.816,0,0,1,.6-0.824c0.665-.187,1.346-0.412,2.028-0.637V30.606h-1.619a0.83,0.83,0,0,1,0-1.648h1.619l-0.017-3a0.819,0.819,0,0,1,.817-0.88,0.8,0.8,0,0,1,.8.88v3h1.227a0.828,0.828,0,0,1,0,1.648h-1.227v2.36C186.509,32.778,186.935,32.591,187.31,32.4Zm-11.436,8.578c-0.664.038-1.448,0.056-2.232,0.056-3.867,0-5.281-.037-5.349-2.566-0.034-1.124-.051-3-0.051-4.907,0-1.892.017-3.839,0.051-5.076a2.066,2.066,0,0,1,2.2-2.248c0.7-.019,2.181-0.056,3.527-0.056,0.92,0,1.789.019,2.334,0.056a2.068,2.068,0,0,1,2.113,2.1c0.034,1.2.051,3.427,0.051,5.544,0,1.854-.017,3.615-0.034,4.551C178.43,40.176,177.527,40.907,175.874,40.982ZM169.843,38.1c0.034,1.255.528,1.274,3.629,1.274,0.767,0,1.55-.019,2.112-0.056,1.312-.075,1.312-0.637,1.312-2.922h-7.087C169.809,37.086,169.826,37.685,169.843,38.1Zm7.019-9.046c-0.051-1.255-.443-1.274-3.424-1.274-0.937,0-1.823.019-2.368,0.056-1.193.075-1.261,0.393-1.261,2.735H176.9C176.9,29.969,176.879,29.444,176.862,29.051Zm0.051,3.109h-7.121V34.8h7.121V32.16Zm-14.86,1.686c-0.715.3-1.482,0.674-2.163,1.03a16.482,16.482,0,0,1,.034,2.06,1.073,1.073,0,0,1-.9,1.161,0.838,0.838,0,0,1-.767-1.068c0.017-.393.034-0.824,0.034-1.217-0.153.094-.306,0.187-0.443,0.281-2.112,1.5-1.857,2.622-.9,3.147,0.9,0.506,2.573.131,3.374-.15,1.5-.506,1.976,1.517.409,1.967-1.006.281-3.323,0.562-4.652-.262-2.3-1.423-1.891-3.952,1.193-6.181,0.239-.169.511-0.375,0.835-0.581-0.46-1.573-1.772-1.386-2.879.019l-0.069.075a4.006,4.006,0,0,1-.391.487c-0.937.918-2.181-.15-1.159-1.161a9.167,9.167,0,0,0,1.38-1.76,16.228,16.228,0,0,0,.8-1.667,3.156,3.156,0,0,1-2.113-.206c-1.226-.674-0.392-2.435.8-1.555a2.4,2.4,0,0,0,1.6.037c0.069-.019.171-0.019,0.256-0.037a8.567,8.567,0,0,0,.187-1.573,0.858,0.858,0,0,1,1.7-.094,3.878,3.878,0,0,1-.136,1.086l-0.034.075a5.722,5.722,0,0,0,.715-0.337c0.937-.618,1.857.936,0.6,1.629a8.962,8.962,0,0,1-1.874.618,20.338,20.338,0,0,1-.818,1.892,2.436,2.436,0,0,1,2.862,1.629c0.7-.393,1.414-0.787,2.078-1.1a12.59,12.59,0,0,0,1.329-.693,0.97,0.97,0,1,1,.954,1.686A18.958,18.958,0,0,1,162.053,33.846ZM149.9,40.682c-0.8,0-2.487-1.967-3.526-4.252l0.017,0.225,0.1,2.678v0.131a2.03,2.03,0,0,1-2.2,2.21c-1.294,0-1.584-.337-1.584-0.955a0.738,0.738,0,0,1,.63-0.843,0.394,0.394,0,0,1,.137.019,3.624,3.624,0,0,0,.8.131c0.46,0,.75-0.225.75-1.086L145,33.078c-0.392,0-.784-0.019-1.159-0.038a1.728,1.728,0,0,1-1.771-1.7c-0.018-.3-0.018-0.581-0.018-0.88,0-.712.035-1.423,0.052-2.116a1.665,1.665,0,0,1,1.7-1.63c0.273-.019.545-0.019,0.818-0.019a10.216,10.216,0,0,0,.222-1.255,0.667,0.667,0,0,1,.732-0.562,0.823,0.823,0,0,1,.9.768,3.445,3.445,0,0,1-.256,1.03c0.529,0,1.057.019,1.6,0.038a1.7,1.7,0,0,1,1.6,1.5c0.034,0.562.034,1.142,0.034,1.723,0,0.487,0,.955-0.017,1.386a1.789,1.789,0,0,1-1.7,1.723c-0.46.019-.9,0.038-1.346,0.038v0.337a11.3,11.3,0,0,0,.9,2.173,8.661,8.661,0,0,0,1.55-1.517,0.635,0.635,0,0,1,.511-0.262,0.912,0.912,0,0,1,.818.9c0,0.805-2.027,2-2.147,2.079a8.882,8.882,0,0,0,2.317,2.248,0.836,0.836,0,0,1,.409.73A0.907,0.907,0,0,1,149.9,40.682Zm-1.908-11.931a0.656,0.656,0,0,0-.7-0.693c-0.545-.019-1.074-0.037-1.585-0.037s-1.022.019-1.516,0.037a0.671,0.671,0,0,0-.7.712c0,0.131-.017.262-0.017,0.412h4.514V28.751ZM147.977,31c0-.169.017-0.337,0.017-0.524h-4.531c0,0.187.017,0.393,0.017,0.562,0.017,0.656.528,0.693,2.248,0.693S147.943,31.711,147.977,31Zm-8.109.73a0.627,0.627,0,0,1,.647-0.581,0.62,0.62,0,0,1,.443.206A5.268,5.268,0,0,1,142,33.565a0.817,0.817,0,0,1-.391.693,0.3,0.3,0,0,1,.136-0.019c0.426-.019.92-0.038,1.431-0.038,0.6,0,1.482.019,1.482,1.124a3.03,3.03,0,0,1-.085.655c-0.75,3.072-2.658,5.057-3.288,5.057a0.923,0.923,0,0,1-.818-0.88,0.73,0.73,0,0,1,.324-0.581,7.126,7.126,0,0,0,2.351-3.746,0.188,0.188,0,0,0-.188-0.206c-0.1,0-1.141.056-1.209,0.056a0.632,0.632,0,0,1-.6-0.712,0.792,0.792,0,0,1,.289-0.637,0.779,0.779,0,0,1-.2.037,0.522,0.522,0,0,1-.511-0.487l-0.017-.056c-0.273.056-.682,0.131-1.159,0.225l0.034,6.743a0.81,0.81,0,0,1-.8.862,0.766,0.766,0,0,1-.749-0.843V40.794l0.051-6.5c-0.869.131-1.908,0.262-2.01,0.262a0.681,0.681,0,0,1-.631-0.749,0.632,0.632,0,0,1,.545-0.693c0.2-.019.46-0.037,0.75-0.056,0.307-.393.664-0.861,1-1.386a17.055,17.055,0,0,0-1.925-1.742,0.771,0.771,0,0,1-.324-0.618,0.716,0.716,0,0,1,.682-0.73,1.06,1.06,0,0,1,.46.169,14.1,14.1,0,0,0,1.312-3.2,0.65,0.65,0,0,1,.681-0.524,0.822,0.822,0,0,1,.852.768,13.462,13.462,0,0,1-1.738,3.839c0.273,0.244.545,0.524,0.767,0.749a21.21,21.21,0,0,0,1.3-2.7,0.688,0.688,0,0,1,.664-0.487,0.808,0.808,0,0,1,.818.787c0,0.562-1.551,3.184-2.726,4.888,0.664-.075,1.312-0.169,1.738-0.225-0.1-.206-0.222-0.412-0.324-0.581A0.647,0.647,0,0,1,139.868,31.729ZM136.9,35.307a0.771,0.771,0,0,1,.75.824,12.17,12.17,0,0,1-1.107,3.877,0.79,0.79,0,0,1-.665.412,0.746,0.746,0,0,1-.749-0.73,0.928,0.928,0,0,1,.136-0.487,9.2,9.2,0,0,0,.988-3.24A0.657,0.657,0,0,1,136.9,35.307Zm-3.411-1.779c-0.971,0-2.658-2.566-3.544-5.713a0.592,0.592,0,0,0-.715-0.393l-1.823.037h-0.017a0.745,0.745,0,0,1-.733-0.805,0.73,0.73,0,0,1,.733-0.787l2.249-.019a1.775,1.775,0,0,1,1.72,1.274,9.387,9.387,0,0,0,2.794,4.664,0.936,0.936,0,0,1,.341.712A1.067,1.067,0,0,1,133.492,33.527Zm-5.929-4.682c0,0.674-1.721,4.963-2.981,4.963a0.929,0.929,0,0,1-.886-0.88,0.746,0.746,0,0,1,.238-0.543,7.885,7.885,0,0,0,2.028-3.783,0.759,0.759,0,0,1,.732-0.618A0.868,0.868,0,0,1,127.563,28.845Zm-4.191.412a0.741,0.741,0,0,1-.579-0.318,6.705,6.705,0,0,0-1.976-1.667,0.642,0.642,0,0,1-.358-0.562,0.952,0.952,0,0,1,.92-0.9c0.528,0,2.879,1.4,2.879,2.435A1,1,0,0,1,123.372,29.257ZM123.287,32.1a0.979,0.979,0,0,1-.818,1.03,0.712,0.712,0,0,1-.494-0.206,6.49,6.49,0,0,0-2.181-1.2,0.658,0.658,0,0,1-.443-0.637,0.921,0.921,0,0,1,.852-0.918A5.5,5.5,0,0,1,122.9,31.3,0.987,0.987,0,0,1,123.287,32.1Zm-6.751,2.9c-0.051.88-.119,1.723-0.2,2.472h0.954a0.707,0.707,0,0,1,.7.768,0.717,0.717,0,0,1-.7.768h-1.21c-0.494,1.854-1.516,2.716-2.964,2.716a5.191,5.191,0,0,1-1.346-.206,0.681,0.681,0,0,1-.46-0.712,0.831,0.831,0,0,1,.733-0.9,1.221,1.221,0,0,1,.238.038,2.6,2.6,0,0,0,.852.15,1.342,1.342,0,0,0,1.3-1.068l-4.754.038h-0.034a1.6,1.6,0,0,1-1.8-1.648,2.869,2.869,0,0,1,.085-0.637c0.136-.524.238-1.124,0.34-1.779h-0.6a0.728,0.728,0,0,1-.784-0.768,0.781,0.781,0,0,1,.784-0.824h0.8c0.068-.6.153-1.217,0.221-1.817,0.171-1.461.716-1.948,2.079-1.985,0.732-.019,1.635-0.038,2.5-0.038,0.528,0,1.039,0,1.482.019a1.7,1.7,0,0,1,1.892,1.761c0,0.6-.018,1.311-0.035,2.06H117.8a0.8,0.8,0,0,1,0,1.592h-1.261Zm-7.087,1.91v0.094a0.512,0.512,0,0,0,.528.524l1.329-.019c0.119-.805.2-1.667,0.29-2.566h-1.857C109.636,35.7,109.534,36.412,109.449,36.917Zm0.681-5.169c-0.051.468-.119,1.086-0.2,1.723h1.789c0.068-.88.136-1.723,0.17-2.454C110.556,31.018,110.216,31.036,110.13,31.748Zm2.624,5.769,2.028-.019c0.1-.749.187-1.629,0.238-2.547h-1.959C112.976,35.85,112.873,36.73,112.754,37.517Zm0.579-6.5c-0.034.73-.085,1.573-0.153,2.454h1.874c0.017-.637.017-1.236,0.017-1.761C115.071,31.018,114.611,31.018,113.333,31.018Zm3.68-2.622h-7.291a17.818,17.818,0,0,1-1.568,2.285,0.914,0.914,0,0,1-.681.356,0.844,0.844,0,0,1-.852-0.805,0.968,0.968,0,0,1,.255-0.6,15.1,15.1,0,0,0,2.556-4.214,0.705,0.705,0,0,1,.681-0.468,0.846,0.846,0,0,1,.852.824,2.759,2.759,0,0,1-.357.974l6.405-.056A0.862,0.862,0,0,1,117.013,28.4Zm-10.648.375a0.69,0.69,0,0,1-.562-0.318,6.359,6.359,0,0,0-1.533-1.424,0.7,0.7,0,0,1-.324-0.581A0.892,0.892,0,0,1,104.8,25.6c0.426,0,2.436,1.18,2.436,2.135A1,1,0,0,1,106.365,28.77Zm-0.034,3.072a0.959,0.959,0,0,1-.818,1.011,0.728,0.728,0,0,1-.459-0.187,6.469,6.469,0,0,0-1.806-1.1,0.633,0.633,0,0,1-.426-0.618,0.886,0.886,0,0,1,.817-0.9,5.77,5.77,0,0,1,2.317,1.011A0.936,0.936,0,0,1,106.331,31.842ZM95.339,28.508V29.8c1.175,0,2.334,0,3.475.037a2.011,2.011,0,0,1,1.976,2.023c0.017,1.18.034,4.7,0.051,5.413l0.034,1.873v0.038c0,1.18-.613,2.416-2.725,2.416-1.6,0-2.01-.356-2.01-1.049a0.765,0.765,0,0,1,.716-0.843c0.051,0,.085.019,0.136,0.019a7.674,7.674,0,0,0,1.073.112,0.953,0.953,0,0,0,1.158-.993c0-.581.017-1.274,0.017-2,0-1.48-.017-3.109-0.068-4.327-0.034-.993-0.341-1.161-1.142-1.18-1.175-.019-2.4-0.037-3.595-0.037s-2.368.019-3.476,0.037a0.981,0.981,0,0,0-1.192,1.18c-0.034,2.3-.034,5.675-0.051,8.485a0.734,0.734,0,0,1-.784.749A0.764,0.764,0,0,1,88.115,41c0.017-2.678.034-6.555,0.085-9.271a1.885,1.885,0,0,1,2.027-1.892C91.3,29.819,92.442,29.8,93.6,29.8V28.508H88a0.815,0.815,0,0,1,0-1.629h5.588V25.886a0.887,0.887,0,1,1,1.772,0l-0.017.993h5.623a0.818,0.818,0,0,1,0,1.629H95.339ZM77.446,40.2a1.968,1.968,0,0,1,1.005-3.69,2.5,2.5,0,0,1,2.692,2.528,2.243,2.243,0,0,0,.988-0.6c1.244-1.217,1.193-3,.222-3.708a4.137,4.137,0,0,0-4.447.318,3.894,3.894,0,0,0-1.431,1.4,0.9,0.9,0,1,1-1.261-1.255,64.272,64.272,0,0,0,5.145-6.05c0.188-.262.017-0.187-0.119-0.112a12.769,12.769,0,0,1-2.862.955,0.875,0.875,0,1,1-.443-1.686,24.32,24.32,0,0,0,3.748-.918c1.363-.431,2.487.9,1.636,1.948-0.545.674-1.227,1.4-1.908,2.1s-1.363,1.367-1.976,2.023a4.8,4.8,0,0,1,4.787-.056c2.453,1.611,1.653,4.907-.136,6.331A5.188,5.188,0,0,1,77.446,40.2ZM78.5,37.873a0.6,0.6,0,0,0-.238,1.161,2.824,2.824,0,0,0,1.431.281A1.2,1.2,0,0,0,78.5,37.873ZM67.05,36.43c0.085-.993.392-3.015,0.443-4.139,0.051-1.33-.2-2.341-2.59-0.169a21.325,21.325,0,0,0-2.436,2.435A30.219,30.219,0,0,0,62.6,40.12a0.886,0.886,0,1,1-1.721.15,32.3,32.3,0,0,1-.017-3.465c-0.358.674-.665,1.386-0.937,1.929-0.767,1.48-2.487.337-1.55-.88a1.5,1.5,0,0,1,.136-0.169,37.233,37.233,0,0,0,2.538-4.177c0.034-.375.051-0.73,0.085-1.105a6.07,6.07,0,0,0-1.295.674c-1.175.824-1.7-1.011-.784-1.48,0.613-.318,1.431-0.693,2.232-1.03,0.119-1.4.255-2.66,0.341-3.484a0.792,0.792,0,1,1,1.567.187c-0.119.674-.238,1.611-0.358,2.7,0.545-.075,1.022.487,0.767,1.367,0.2-.206.409-0.412,0.6-0.581,2.641-2.379,5.111-2.21,4.889,1.517-0.068,1.124-.341,3.109-0.426,4.177-0.17,2.135.835,1.91,1.976,0.581,0.869-1.011,1.942.356,1.227,1.236C69.708,40.869,66.658,40.57,67.05,36.43ZM55.716,26.972a5.716,5.716,0,0,0-1.346-1.011,0.634,0.634,0,1,1,.511-1.161,5.038,5.038,0,0,1,1.653,1.011C57.182,26.523,56.279,27.646,55.716,26.972Zm-1.448,1.573A5.781,5.781,0,0,0,52.939,27.5a0.9,0.9,0,0,1-.307-0.243v0.131c-0.034.524-.051,1.311-0.051,2.229,0.29-.094.6-0.169,0.869-0.262a0.89,0.89,0,1,1,.375,1.723c-0.409.112-.818,0.225-1.227,0.318,0.017,1.461.068,2.922,0.1,3.84,0.017,0.468.085,1.086,0.1,1.686a8.1,8.1,0,0,1,1.925,1.367c0.971,0.974-.238,2.6-1.09,1.611a8.071,8.071,0,0,0-1.056-.974A3.246,3.246,0,0,1,48,40.495a2.2,2.2,0,0,1,.256-3.933,4.436,4.436,0,0,1,3-.225c0-.3-0.034-0.581-0.051-0.936-0.051-.768-0.085-2.21-0.136-3.69a10.663,10.663,0,0,1-2.794.131,0.907,0.907,0,1,1,.341-1.779,6.519,6.519,0,0,0,2.4-.056C51,28.957,50.98,28,51,27.422a0.837,0.837,0,0,1,1.55-.468,0.685,0.685,0,0,1,.954-0.6,5.179,5.179,0,0,1,1.6,1.068C55.733,28.152,54.8,29.238,54.268,28.545Zm-3.169,9.5a2.82,2.82,0,0,0-2.351-.112,0.655,0.655,0,0,0-.1,1.1,1.709,1.709,0,0,0,2.47-.993H51.1Zm-6.253.019c-0.136.468-.238,0.88-0.307,1.18a2.687,2.687,0,0,1-.341,1.5c-0.443.45-1.21,0.375-1.5-.637a18.583,18.583,0,0,1-.273-6.574c0.221-2.266.6-4.364,0.681-5.581a0.873,0.873,0,1,1,1.721.037c-0.119.843-.409,2.472-0.63,4.064a22.881,22.881,0,0,0-.324,3.915c0.034,0.337.051,0.393,0.221,0.019,0.051-.112.17-0.45,0.2-0.543,0.392-.9,1.687-0.262,1.073,1.142A12.166,12.166,0,0,0,44.847,38.06ZM34.536,41.581c-4.293,0-5.622-.843-6.849-2.3-0.477.6-1.772,2.21-2.436,2.21a0.991,0.991,0,0,1-.9-0.974,0.823,0.823,0,0,1,.409-0.693,8.4,8.4,0,0,0,2.181-1.967c0.017-1.011.068-1.892,0.068-2.735,0-.656-0.017-0.862-0.716-0.862-0.273,0-.494.019-0.75,0.019a0.717,0.717,0,0,1-.818-0.805,0.762,0.762,0,0,1,.681-0.843h1.039c1.21,0,2.147.15,2.147,1.761,0,1.086-.068,2.36-0.068,3.559a4.063,4.063,0,0,0,.767.787,0.844,0.844,0,0,1-.119-0.45,0.583,0.583,0,0,1,.545-0.618A5.124,5.124,0,0,0,32.287,36.6a0.482,0.482,0,0,1,.324-0.131,0.737,0.737,0,0,1,.6.768,0.634,0.634,0,0,1-.256.543A7.268,7.268,0,0,1,30,39.09H29.8c0.647,0.375,1.6.749,3.987,0.749,1.772,0,3.7-.206,4.992-0.318h0.085a0.84,0.84,0,0,1,.818.9,0.9,0.9,0,0,1-.852.936C37.756,41.469,36.154,41.581,34.536,41.581Zm0.716-5.057A7.269,7.269,0,0,0,38.2,37.536a0.648,0.648,0,0,1,.613.693,0.8,0.8,0,0,1-.767.843,9.014,9.014,0,0,1-3.476-1.349,0.606,0.606,0,0,1-.307-0.543,0.744,0.744,0,0,1,.665-0.749A0.711,0.711,0,0,1,35.251,36.524Zm3.356-1.573a0.611,0.611,0,0,1,.63.655,0.62,0.62,0,0,1-.63.656l-4.719-.037-4.532.037a0.62,0.62,0,0,1-.63-0.656,0.611,0.611,0,0,1,.63-0.655l2.266,0.019V33.827l-1.636.019a0.646,0.646,0,0,1,0-1.292l1.636,0.019V32.048a0.558,0.558,0,0,1,.358-0.524c-0.187.019-.375,0.019-0.562,0.019-1.687,0-2.334-.244-2.334-2.023a1.257,1.257,0,0,1,1.346-1.555h0.988c0.494,0,.647,0,0.647-0.431,0-.262-0.034-0.337-0.273-0.356H29.612a0.594,0.594,0,0,1-.6-0.655A0.645,0.645,0,0,1,29.6,25.83h0.579c0.8,0,1.721.019,1.993,0.019,0.9,0,1.244.412,1.244,1.742,0,1.592-.392,1.592-2.658,1.592-0.273,0-.307.131-0.307,0.618,0,0.468.136,0.487,1.005,0.487,0.579,0,1.022-.037,1.056-0.618a0.6,0.6,0,0,1,.63-0.6,0.7,0.7,0,0,1,.75.693,1.575,1.575,0,0,1-1.38,1.686,0.619,0.619,0,0,1,.562.6v0.525l0.818,0.019h0.784V32.048a0.607,0.607,0,0,1,.579-0.6,1.433,1.433,0,0,1-1.158-1.7c0-.843.017-1.779,1.329-1.779h1.039c0.613,0,.664-0.019.664-0.431,0-.262-0.034-0.337-0.273-0.356h-2.3a0.584,0.584,0,0,1-.579-0.637,0.652,0.652,0,0,1,.579-0.712h0.579c0.835,0,1.806.019,2.078,0.019,0.988,0,1.261.506,1.261,1.742,0,1.555-.324,1.592-2.743,1.592-0.324,0-.324.169-0.324,0.6,0,0.468.068,0.506,1.073,0.506,0.852,0,1.244-.037,1.278-0.712a0.6,0.6,0,0,1,.63-0.6,0.733,0.733,0,0,1,.767.712c0,1.723-1.482,1.873-2.658,1.873-0.256,0-.494-0.019-0.733-0.038a0.558,0.558,0,0,1,.358.524v0.525l1.772-.019a0.646,0.646,0,0,1,0,1.292l-1.772-.019V34.97Zm-3.935-1.124-0.784-.019-0.818.019V34.97l0.835,0.019,0.767-.019V33.827Zm-6.866-4.214a0.667,0.667,0,0,1-.579-0.393,5.271,5.271,0,0,0-1.67-1.63,0.664,0.664,0,0,1-.341-0.581,0.908,0.908,0,0,1,.869-0.843c0.511,0,2.641,1.442,2.641,2.4A1.051,1.051,0,0,1,27.806,29.613ZM90.432,34.52a0.673,0.673,0,0,1,.681-0.693h1.533a0.707,0.707,0,0,1-.153-0.225,5.754,5.754,0,0,0-.6-1.142,0.5,0.5,0,0,1-.085-0.3A0.773,0.773,0,0,1,92.6,31.5c0.647,0,1.261,1.311,1.261,1.648a0.837,0.837,0,0,1-.358.693h1.21c0.017-.037.034-0.056,0.051-0.094a6.618,6.618,0,0,0,.733-1.854,0.541,0.541,0,0,1,.562-0.431,0.853,0.853,0,0,1,.886.749,5.283,5.283,0,0,1-.664,1.611h1.482a0.7,0.7,0,0,1,0,1.4l-2.538-.019,0.017,1.274,2.419-.019a0.721,0.721,0,0,1,0,1.442l-2.419-.019,0.017,2.454a0.788,0.788,0,0,1-.8.824,0.765,0.765,0,0,1-.784-0.824l0.017-2.454-2.419.019a0.721,0.721,0,0,1,0-1.442l2.419,0.019L93.7,35.213l-2.59.019A0.677,0.677,0,0,1,90.432,34.52Zm15.2,0.674a0.742,0.742,0,0,1,.7-0.524,0.825,0.825,0,0,1,.818.861,15.3,15.3,0,0,1-2.436,5.282,1,1,0,0,1-.8.468,0.919,0.919,0,0,1-.664-1.517A15.533,15.533,0,0,0,105.633,35.194Zm16.785,0.038a0.738,0.738,0,0,1,.7-0.506,0.85,0.85,0,0,1,.834.9,17.359,17.359,0,0,1-2.5,5.207,1.055,1.055,0,0,1-.818.487,0.962,0.962,0,0,1-.92-0.955,0.929,0.929,0,0,1,.222-0.6A20.488,20.488,0,0,0,122.418,35.232Zm4.413-1.124c0.528-.019,1.209-0.037,1.891-0.037,0.817,0,1.635.019,2.2,0.037a1.788,1.788,0,0,1,1.806,1.648c0.034,0.768.068,1.948,0.068,2.884,0,0.281-.017.543-0.017,0.768a1.8,1.8,0,0,1-1.823,1.817c-0.494.038-1.192,0.056-1.908,0.056-0.8,0-1.618-.019-2.2-0.056a1.713,1.713,0,0,1-1.806-1.779c-0.017-.318-0.017-0.674-0.017-1.049,0-.9.034-1.91,0.051-2.566A1.726,1.726,0,0,1,126.831,34.108Zm-0.154,4.907c0.034,0.656.426,0.693,2.249,0.693,0.562,0,1.125-.019,1.448-0.037,0.7-.056.75-0.543,0.75-1.517,0-2.3,0-2.566-.716-2.6-0.357-.019-0.937-0.019-1.533-0.019-0.579,0-1.141,0-1.482.019a0.627,0.627,0,0,0-.682.618c-0.017.468-.051,1.349-0.051,2.079C126.66,38.547,126.66,38.809,126.677,39.015ZM140.4,35.082a0.574,0.574,0,0,1,.511.262,6.122,6.122,0,0,1,.886,2.341,0.794,0.794,0,0,1-.767.824,0.626,0.626,0,0,1-.63-0.637,5.764,5.764,0,0,0-.579-1.892,0.742,0.742,0,0,1-.086-0.3A0.645,0.645,0,0,1,140.4,35.082Zm50.151-1.33c0.7-.019,1.567-0.037,2.368-0.037,0.528,0,1,.019,1.414.037a1.773,1.773,0,0,1,1.721,1.592c0.017,0.787.051,2.06,0.051,3.128,0,0.431,0,.843-0.017,1.142a1.933,1.933,0,0,1-1.84,1.817c-0.528.038-1.142,0.056-1.755,0.056-0.681,0-1.363-.019-1.908-0.056a1.838,1.838,0,0,1-1.874-1.8c0-.281-0.017-0.6-0.017-0.937,0-1.1.034-2.416,0.068-3.221A1.7,1.7,0,0,1,190.547,33.752Zm3.952,2.135a0.69,0.69,0,0,0-.732-0.749c-0.358-.019-0.886-0.019-1.414-0.019s-1.04,0-1.38.019c-0.767.019-.767,0.562-0.767,1.611h4.31C194.516,36.412,194.5,36.093,194.5,35.887Zm-4.276,3.353c0.017,0.6.188,0.712,2.249,0.712,1.431,0,2.01,0,2.044-.749,0.017-.262.017-0.637,0.017-1.068h-4.344C190.189,38.566,190.206,38.978,190.223,39.24Z" transform="translate(-21 -21)"/>
</svg>
