<svg xmlns="http://www.w3.org/2000/svg" width="0" height="0" style="position:absolute;top:0;left:0;">
<clipPath id="path-mv-pc">
<path d="M245,135c92.254-10.594,329.956-23.01,555.284-23.01S1231.66,120.87,1337,132c105.07,11.1,130.38,49.137,135,131,4.59,81.4,8,164.292,8,219.441S1479.56,620.683,1470,710c-8.95,83.562-27.59,117.848-140.22,126.418-119.96,9.128-314.6,15.592-529.733,15.592S369.9,845.8,261,836c-79.294-7.139-122.984-35.981-129-118s-12-170.663-12-237.143c0-97.137,7.676-178.384,11-234.857S165.8,144.1,245,135Z" transform="translate(-120 -112)"/>
</clipPath>
</svg>