<svg id="heading-project" xmlns="http://www.w3.org/2000/svg" width="396.375" height="142.34" viewBox="0 0 396.375 142.34">
  <defs>
    <style>
      .cls-1 {
        fill: #323232;
      }

      .cls-1, .cls-2 {
        fill-rule: evenodd;
      }

      .cls-2 {
        fill: #ff9400;
      }
    </style>
  </defs>
  <path id="text-black" class="cls-1" d="M633.384,3441.95a31.651,31.651,0,0,1-6.43,2.12,51.9,51.9,0,0,1-6.431,1.03q-0.821,5.61-1.163,10.32t-0.753,9.5c-0.184,1.55-.342,3.13-0.479,4.72s-0.205,3.21-.205,4.85q0,1.785.137,4.17a15.355,15.355,0,0,0,.958,4.58,9.253,9.253,0,0,0,2.6,3.76,7.17,7.17,0,0,0,4.926,1.57,23.911,23.911,0,0,0,3.968-.34,25.836,25.836,0,0,1,4.105-.34,5.631,5.631,0,0,1,5.131,2.46,11.5,11.5,0,0,1,1.573,6.29,7.708,7.708,0,0,1-1.71,4.99,12.922,12.922,0,0,1-4.31,3.42,24.727,24.727,0,0,1-5.815,1.98,29.022,29.022,0,0,1-6.089.68q-9.717,0-15.119-2.52a17.573,17.573,0,0,1-8.073-7.18,26.739,26.739,0,0,1-3.215-11.21q-0.549-6.57-.547-14.63,0-6.435.41-12.92t1.231-13.88c-1.278,0-2.281.02-3.01,0.07s-1.323.07-1.778,0.07a14.527,14.527,0,0,1-7.594-1.92,6.391,6.391,0,0,1-2.343-2.32,33.05,33.05,0,0,1,.632,6.29v1.37a7.048,7.048,0,0,1-.136,1.36,8.234,8.234,0,0,1-.137,1.44,7.374,7.374,0,0,1-.411,1.43,12.6,12.6,0,0,1-3.831,5.27,9.461,9.461,0,0,1-6.157,2.12q-5.337,0-7.252-5.34a4.116,4.116,0,0,1-.274-1.57,13.347,13.347,0,0,0-.136-1.84v-3.97a7.879,7.879,0,0,0-.958-3.01,2.546,2.546,0,0,0-2.326-1.09q-2.328,0-4.447,2.94a31.381,31.381,0,0,0-3.694,6.97,57.8,57.8,0,0,0-2.532,8.27,32.649,32.649,0,0,0-.957,6.84c0,1.37.089,3.03,0.273,4.99a28.948,28.948,0,0,0,1.1,5.67,15.531,15.531,0,0,0,2.258,4.72,4.439,4.439,0,0,0,3.762,1.98,7.244,7.244,0,0,0,4.31-1.43,32.649,32.649,0,0,0,3.9-3.35c1.184-1.1,2.484-2.23,3.9-3.42a7.372,7.372,0,0,1,4.858-1.78,6.573,6.573,0,0,1,5.4,2.46,8.7,8.7,0,0,1,1.984,5.61,16.359,16.359,0,0,1-2.463,8.68,26.448,26.448,0,0,1-6.157,6.97,30.364,30.364,0,0,1-8.209,4.65,24.336,24.336,0,0,1-8.62,1.71,20.876,20.876,0,0,1-12.52-3.69,28.173,28.173,0,0,1-8.278-9.37,42.98,42.98,0,0,1-4.515-12.37,63.465,63.465,0,0,1-1.368-12.71,66.116,66.116,0,0,1,1.915-15.11,56.578,56.578,0,0,1,5.884-15.11,37.345,37.345,0,0,1,10.193-11.62,24.108,24.108,0,0,1,14.846-4.65,17.706,17.706,0,0,1,9.236,2.33,19.982,19.982,0,0,1,6.43,6.08,28.613,28.613,0,0,1,3.629,7.78c0-.02,0-0.04,0-0.06a6.125,6.125,0,0,1,1.847-4.37,15.967,15.967,0,0,1,4.721-3.28,32.606,32.606,0,0,1,6.225-2.19,42.581,42.581,0,0,1,6.363-1.09,73.072,73.072,0,0,1,.547-8.48,39.523,39.523,0,0,1,1.984-8.68,20.072,20.072,0,0,1,3.9-6.77,8.1,8.1,0,0,1,6.294-2.73,6.257,6.257,0,0,1,3.9,1.3,10.294,10.294,0,0,1,2.805,3.28,16.584,16.584,0,0,1,1.642,4.44,22.1,22.1,0,0,1,.547,4.79,39.447,39.447,0,0,1-.41,5.6,67.4,67.4,0,0,1-1.5,7.11c1.55-.18,2.6-0.29,3.147-0.34s1.047-.07,1.5-0.07a30.8,30.8,0,0,1,4.857.41,18.227,18.227,0,0,1,4.652,1.37,10,10,0,0,1,3.489,2.53,5.543,5.543,0,0,1,1.369,3.76,5.912,5.912,0,0,1-1.984,4.37A17.5,17.5,0,0,1,633.384,3441.95Zm-116.1,53.53a41.145,41.145,0,0,1-9.51,5.6,24.172,24.172,0,0,1-9.3,2.12,23.471,23.471,0,0,1-12.93-3.62,32.613,32.613,0,0,1-9.509-9.23,43.259,43.259,0,0,1-5.815-12.37,46.724,46.724,0,0,1-1.984-13.19,61.341,61.341,0,0,1,1.915-14.63,52.434,52.434,0,0,1,5.815-14.36,36.733,36.733,0,0,1,9.852-10.94,23.291,23.291,0,0,1,14.161-4.37,25.351,25.351,0,0,1,8.894,1.57,21.964,21.964,0,0,1,12.451,11.28,20.187,20.187,0,0,1,1.916,8.89,27.082,27.082,0,0,1-2.737,12.03,31.772,31.772,0,0,1-7.252,9.7,37.159,37.159,0,0,1-10.4,6.64,34.194,34.194,0,0,1-12.041,2.8,7.742,7.742,0,0,0,3.215,5.74,11.173,11.173,0,0,0,6.363,1.78,11.362,11.362,0,0,0,5.336-1.37,46.427,46.427,0,0,0,5.062-3.08c1.642-1.13,3.261-2.16,4.858-3.07a9.712,9.712,0,0,1,4.857-1.37,7.645,7.645,0,0,1,4.926,1.78,5.694,5.694,0,0,1,2.189,4.65,16.278,16.278,0,0,1-2.942,9.09A33.911,33.911,0,0,1,517.288,3495.48Zm-22.713-41.5a26.735,26.735,0,0,0,5.062-1.84,14.339,14.339,0,0,0,4.105-2.94,5.9,5.9,0,0,0,1.71-4.24,8.269,8.269,0,0,0-.958-3.69,3.153,3.153,0,0,0-3.01-1.91,8.064,8.064,0,0,0-5.062,1.57,13.176,13.176,0,0,0-3.421,3.96,22.186,22.186,0,0,0-2.121,5.13,24.511,24.511,0,0,0-.889,5.06C491.267,3454.8,492.8,3454.44,494.575,3453.98Zm-37.354,44.16a76.089,76.089,0,0,1-4.036,15.04,32.7,32.7,0,0,1-7.663,11.9q-2.738,2.6-6.43,5.47a74.873,74.873,0,0,1-7.868,5.33,52.575,52.575,0,0,1-8.415,4.03,23.172,23.172,0,0,1-8.072,1.57c-2.919,0-5.084-.79-6.5-2.39a9.637,9.637,0,0,1-2.12-6.63c0-2.92.776-5.1,2.326-6.56a22.445,22.445,0,0,1,5.746-3.83q3.421-1.635,7.457-3.62a23.877,23.877,0,0,0,7.457-5.95,32.491,32.491,0,0,0,5.747-10.73q2.325-6.765,2.326-17.84,0-6.975-.274-13.68-0.274-6.69-.821-13.67-0.274-3.96-.547-8c-0.184-2.68-.273-5.35-0.273-7.99a21.35,21.35,0,0,1,.684-5.2A17.893,17.893,0,0,1,438,3430.4a11.8,11.8,0,0,1,3.489-3.69,8.914,8.914,0,0,1,5.131-1.44,7.215,7.215,0,0,1,5.678,2.6,20.431,20.431,0,0,1,3.695,6.63,42.389,42.389,0,0,1,2.052,9.03c0.411,3.32.706,6.56,0.889,9.7s0.274,6.04.274,8.68v6.16q0,6.42-.342,14.28A133.358,133.358,0,0,1,457.221,3498.14Zm-4.447-83.26a14.206,14.206,0,0,1-3.557,1.71,11.716,11.716,0,0,1-3.558.62,8.449,8.449,0,0,1-4.789-1.37,4.729,4.729,0,0,1-2.052-4.24,6.468,6.468,0,0,1,1.026-3.62,8.757,8.757,0,0,1,2.6-2.6,13.327,13.327,0,0,1,7.046-2.12,9.645,9.645,0,0,1,4.858,1.3,4.458,4.458,0,0,1,2.257,4.17,5.976,5.976,0,0,1-1.094,3.49A10.14,10.14,0,0,1,452.774,3414.88Zm-93.726,36.78a8.187,8.187,0,0,1-3.283-.34c-0.913-.32-1.826-0.66-2.737-1.03q-1.232-.54-2.463-1.02a5.977,5.977,0,0,0-2.736-.34,9.686,9.686,0,0,0-4.858,1.5,16.8,16.8,0,0,0-3.831,3.42,22.1,22.1,0,0,0-2.941,4.58,29.459,29.459,0,0,0-1.916,4.99,29.781,29.781,0,0,0-.616,4.99c-0.137,2.23-.2,4.63-0.2,7.18q-0.138,3.96-.137,7.52a44.9,44.9,0,0,1-.273,5.6,43.669,43.669,0,0,1-.685,5.13,24.672,24.672,0,0,1-1.71,5.54,13.244,13.244,0,0,1-3.079,4.37,6.981,6.981,0,0,1-4.925,1.78,6.279,6.279,0,0,1-4.037-1.37,10.989,10.989,0,0,1-2.873-3.62,24.435,24.435,0,0,1-1.916-5.27,53.867,53.867,0,0,1-1.163-6.15c-0.273-2.19-.478-4.37-0.615-6.56s-0.229-4.26-.274-6.22-0.047-3.76,0-5.4,0.068-2.96.068-3.97q-0.137-4.785-.478-9.64t-0.342-9.63q0-3.015.273-6.7a24.2,24.2,0,0,1,1.5-6.91,13.97,13.97,0,0,1,3.626-5.4,9.464,9.464,0,0,1,6.636-2.19,5.683,5.683,0,0,1,3.968,1.51,11.577,11.577,0,0,1,2.668,3.69,22.447,22.447,0,0,1,1.574,4.65,30.459,30.459,0,0,1,.684,4.51,34.032,34.032,0,0,1,7.389-8.68,17.618,17.618,0,0,1,10.672-3.63,24.535,24.535,0,0,1,6.5.62,18.7,18.7,0,0,1,5.884,2.46,14.105,14.105,0,0,1,4.378,4.44,12.836,12.836,0,0,1,1.847,6.43,7.466,7.466,0,0,1-2.6,6.7A11.363,11.363,0,0,1,359.048,3451.66Zm-62.529,5.13a46.385,46.385,0,0,1-12.178,9.29,33.993,33.993,0,0,1-14.093,4.04q-0.138,2.46-.2,6.22c-0.047,2.51-.2,5.12-0.479,7.86s-0.662,5.47-1.163,8.2a33.429,33.429,0,0,1-2.189,7.39,15.534,15.534,0,0,1-3.694,5.33,7.974,7.974,0,0,1-5.542,2.05,7.771,7.771,0,0,1-6.088-2.53,16.833,16.833,0,0,1-3.421-6.09,35.835,35.835,0,0,1-1.574-7.45q-0.41-3.885-.547-6.63-0.276-3.96-.342-7.79t-0.068-7.79v-6.63q0-4.86.068-11.08t0.205-12.99q0.135-6.765.411-12.57c0.181-3.88.387-7.18,0.615-9.92s0.524-4.32.89-4.78a8.321,8.321,0,0,1,.821-0.62c0.455-.32.958-0.63,1.5-0.95s1.047-.62,1.5-0.89,0.774-.46.958-0.55a83.04,83.04,0,0,1,13.819-6.15,45.536,45.536,0,0,1,14.914-2.6,25.441,25.441,0,0,1,11.425,2.53,27.746,27.746,0,0,1,8.757,6.7,29.108,29.108,0,0,1,5.541,9.71,34.55,34.55,0,0,1-1.3,25.9A46.535,46.535,0,0,1,296.519,3456.79Zm-13.2-28.92a4.7,4.7,0,0,0-4.31-2.05,13.948,13.948,0,0,0-5.2,1.03c-1.734.68-3.331,1.39-4.789,2.11,0.274,3.2.524,6.29,0.752,9.3a70.328,70.328,0,0,1,.069,9.3q2.187-1.095,4.789-2.53a33.21,33.21,0,0,0,4.789-3.21,18.255,18.255,0,0,0,3.694-4.04,9.007,9.007,0,0,0,1.5-5.12A8.757,8.757,0,0,0,283.315,3427.87Z" transform="translate(-244.938 -3399.16)"/>
  <path id="text-orange" class="cls-2" d="M409.674,3503.07a30.284,30.284,0,0,0,9.031-9.57,47.9,47.9,0,0,0,5.4-13.27,78.347,78.347,0,0,0,2.258-14.62,57.111,57.111,0,0,0-.958-13.95,47.542,47.542,0,0,0-4.652-13.6,31.518,31.518,0,0,0-8.688-10.39A20.759,20.759,0,0,0,399,3423.5a23.2,23.2,0,0,0-13.683,4.03,32.352,32.352,0,0,0-9.441,10.39,50.252,50.252,0,0,0-5.473,14.08,66.577,66.577,0,0,0-1.779,14.97,56.434,56.434,0,0,0,1.779,13.88,44.887,44.887,0,0,0,5.336,12.78,32.154,32.154,0,0,0,8.757,9.44,20.5,20.5,0,0,0,12.178,3.69A22.7,22.7,0,0,0,409.674,3503.07Zm-8-56.06a17.356,17.356,0,0,1,2.6,5.2,41.944,41.944,0,0,1,1.574,6.76,45.047,45.047,0,0,1,.547,6.64,65.388,65.388,0,0,1-.41,7.04,37.8,37.8,0,0,1-1.369,6.9,16.29,16.29,0,0,1-2.531,5.2,4.652,4.652,0,0,1-3.762,2.05,4.5,4.5,0,0,1-3.626-2.12,19.33,19.33,0,0,1-2.668-5.33,42.711,42.711,0,0,1-1.711-7.05,44.958,44.958,0,0,1-.616-7.1,39.817,39.817,0,0,1,.548-6.09,42.681,42.681,0,0,1,1.573-6.63,19.294,19.294,0,0,1,2.6-5.33,4.465,4.465,0,0,1,3.626-2.19A4.52,4.52,0,0,1,401.67,3447.01Z" transform="translate(-244.938 -3399.16)"/>
</svg>
