<svg xmlns="http://www.w3.org/2000/svg" width="0" height="0" style="position:absolute;top:0;left:0;">&gt;
<clipPath id="path-mv-sp">
<path d="M349.277,96.038C354.216,127.627,360,209.018,360,286.173s-4.14,147.707-9.329,183.778c-5.175,35.977-22.908,44.643-61.074,46.225-37.949,1.573-76.595,2.739-102.306,2.739s-64.451-.15-106.092-3.423c-38.958-3.064-54.942-9.447-58.938-48.014C18.01,426.4,15,359.757,15,286.092s2.893-147.287,7.464-184.576c3.328-27.151,16.775-42.111,55.013-44.17s79.566-4.109,110.56-4.109c45.287,0,83.166,2.628,109.494,3.766S345.036,68.917,349.277,96.038Z" transform="translate(-15 -53.25)"/>
</clipPath>
</svg>