<svg id="logo-note" xmlns="http://www.w3.org/2000/svg" width="65" height="16.031" viewBox="0 0 65 16.031">
<path id="icon" class="logo-note__icon" d="M1353.97,57.009h-1.88a1.127,1.127,0,0,1-.4-0.046,0.811,0.811,0,0,1,0-1.536,1.12,1.12,0,0,1,.4-0.046h1.22V54.156a1.374,1.374,0,0,1,.04-0.413,0.8,0.8,0,0,1,1.52,0,1.062,1.062,0,0,1,.05.413v1.891a1.79,1.79,0,0,1-.02.332,0.85,0.85,0,0,1-.6.608,1.6,1.6,0,0,1-.33.023h0Zm6.01,6.946h-10.04V55.021a0.4,0.4,0,0,1,.12-0.292l2.6-2.631a0.4,0.4,0,0,1,.29-0.12h7.03V63.955ZM1348.42,53.52a1.622,1.622,0,0,0-.48.986c0,0.063-.01.155-0.01,0.246v10.1c0,0.132.01,0.2,0.01,0.252a1.02,1.02,0,0,0,.86.865,2.089,2.089,0,0,0,.25.012h11.82a2.089,2.089,0,0,0,.25-0.012,1.031,1.031,0,0,0,.86-0.865c0-.052.01-0.121,0.01-0.252V51.078c0-.132-0.01-0.2-0.01-0.252a1.031,1.031,0,0,0-.86-0.865,2.1,2.1,0,0,0-.25-0.012h-8.19c-0.09,0-.18.006-0.24,0.012a1.554,1.554,0,0,0-.97.481Z" transform="translate(-1347.94 -49.938)"/>
<path id="text" class="logo-note__text" d="M1385.48,54.065A4.941,4.941,0,1,1,1380.26,59,4.978,4.978,0,0,1,1385.48,54.065Zm22.76,0.045c3.22,0,4.69,2.444,4.69,5.114a4.527,4.527,0,0,1-.02.52,0.171,0.171,0,0,1-.16.18h-6.57a2.216,2.216,0,0,0,2.36,1.855,3.227,3.227,0,0,0,2.24-.849,0.168,0.168,0,0,1,.23-0.014l0.02,0.014,1.27,1.12a0.166,0.166,0,0,1,.03.26,4.848,4.848,0,0,1-3.82,1.618A4.912,4.912,0,0,1,1408.24,54.11Zm-10.67-2.24a0.167,0.167,0,0,1,.18.181v2.24h2.09a0.167,0.167,0,0,1,.18.181v1.9a0.167,0.167,0,0,1-.18.181h-2.09v4.107a0.776,0.776,0,0,0,.85.916,2.44,2.44,0,0,0,1.17-.238c0.12-.062.22-0.023,0.22,0.1v1.776a0.256,0.256,0,0,1-.13.226,3.884,3.884,0,0,1-2.04.487c-1.5,0-2.57-.526-2.77-2.2a6.948,6.948,0,0,1-.03-0.734V56.554h-0.97a0.17,0.17,0,0,1-.19-0.181v-1.9a0.17,0.17,0,0,1,.19-0.181h0.97v-2.24a0.167,0.167,0,0,1,.18-0.181h2.37Zm-24.1,2.2a2.99,2.99,0,0,1,3.18,2.557,5.488,5.488,0,0,1,.09,1.092v5.81a0.17,0.17,0,0,1-.19.181h-2.36a0.163,0.163,0,0,1-.18-0.181V58.409a1.634,1.634,0,0,0-1.66-1.923,1.655,1.655,0,0,0-1.7,1.923v5.114a0.17,0.17,0,0,1-.19.181h-2.36a0.17,0.17,0,0,1-.19-0.181V54.472a0.17,0.17,0,0,1,.19-0.181h2.36a0.17,0.17,0,0,1,.19.181v1.075A3.437,3.437,0,0,1,1373.47,54.065Zm12.01,2.308A2.627,2.627,0,1,0,1388,59,2.512,2.512,0,0,0,1385.48,56.373Zm22.76-.124a2.177,2.177,0,0,0-2.1,1.956l-0.02.058h4.15A2.064,2.064,0,0,0,1408.24,56.249Z" transform="translate(-1347.94 -49.938)"/>
</svg>