<svg xmlns="http://www.w3.org/2000/svg" width="749.906" height="15683.55" viewBox="0 0 749.906 15683.55">
  <defs>
    <style>
      .cls-1 {
        fill: #f6f2e8;
        fill-rule: evenodd;
      }
    </style>
  </defs>
  <path id="bg-contents-sp" class="cls-1" d="M484.083,0.244S395.621,167.553,352.454,256.209C130.129,712.812,91.308,910.157,91.308,1048.13c0,172.16,72.362,317.77,187.945,464.61,84.721,107.63,186.462,194.07,322.322,384.03C967.816,2408.85.626,3690.61,0.626,3690.61L-0.391,4367.6S746.151,2978.2,728.5,2189.04c-4.07-182.02-96.616-310.98-206.673-435.4C346.659,1555.62,124.07,1361.82,124.07,1034.11,124.07,737.588,635.683.275,635.683,0.275ZM435.546,5915.21c222.325,456.6,261.146,653.95,261.146,791.92,0,172.16-72.363,317.77-187.945,464.61-84.721,107.63-186.462,194.07-322.322,384.03C-161.82,8042.69,749.9,9302.16,749.9,9302.16l-0.37,654.9S42.918,8589.4,59.5,7848.04c4.07-182.02,96.616-310.98,206.673-435.4,175.172-198.02,397.761-391.82,397.761-719.53,0-378.83-664.272-1228.17-664.272-1228.17l0.137-322.41S274.481,5584.42,435.546,5915.21ZM601.575,13213.8c-135.86-190-237.6-276.4-322.322-384.1-115.583-146.8-187.945-292.4-187.945-464.6,0-137.9,38.821-335.3,261.146-791.9,141.339-290.3,397.41-712,397.41-712l-0.615,309S124.07,11996.7,124.07,12351.1c0,327.7,222.589,521.5,397.761,719.5,110.057,124.5,202.6,253.4,206.673,435.4,17.632,788.5-728.41,2177.7-728.41,2177.7l0.048-675.5S968.072,13726.2,601.575,13213.8Z" transform="translate(0 -0.25)"/>
</svg>
