<svg id="icon-new" xmlns="http://www.w3.org/2000/svg" width="109" height="80" viewBox="0 0 109 80">
  <defs>
    <style>
      .cls-1 {
        fill: #ffb100;
      }

      .cls-1, .cls-2 {
        fill-rule: evenodd;
      }

      .cls-2 {
        fill: #323232;
      }
    </style>
  </defs>
  <path id="bg" class="cls-1" d="M268.782,544.454c6.976-4.91,19.954-13.491,19.842-31.309-0.136-21.453-15.322-32.87-39.528-32.717s-29.217,11.368-46.3,12.914-23.234,13.083-23.167,23.608,18.981,43.687,52.7,43.474C257.08,560.268,261.31,549.713,268.782,544.454Z" transform="translate(-179.625 -480.438)"/>
  <path id="new" class="cls-2" d="M268.432,515.691q-0.3,1.981-.812,4.3t-1.21,4.674a35.863,35.863,0,0,1-1.526,4.259,15.544,15.544,0,0,1-1.744,3.11,2.455,2.455,0,0,1-1.824,1.208,2.859,2.859,0,0,1-2.28-1.347,14.032,14.032,0,0,1-1.764-3.228,29.747,29.747,0,0,1-1.249-3.863q-0.5-1.98-.733-3.288-0.318.793-.853,1.941t-1.229,2.417q-0.694,1.267-1.487,2.555a20.493,20.493,0,0,1-1.645,2.317,10.014,10.014,0,0,1-1.7,1.664,2.787,2.787,0,0,1-1.645.634,2.36,2.36,0,0,1-1.883-1.03,8.84,8.84,0,0,1-1.368-2.694,27.541,27.541,0,0,1-.932-3.684q-0.377-2.02-.575-4.041t-0.277-3.763q-0.081-1.743-.08-2.813a17.371,17.371,0,0,1,.1-1.9,5.832,5.832,0,0,1,.4-1.624,2.585,2.585,0,0,1,.872-1.129,2.551,2.551,0,0,1,1.527-.416,2.108,2.108,0,0,1,1.566.674,5.352,5.352,0,0,1,1.09,1.762,14.406,14.406,0,0,1,.714,2.457q0.276,1.366.436,2.773t0.218,2.733q0.058,1.327.1,2.278,0.237-.831.674-2.04t0.951-2.575q0.516-1.367,1.13-2.714t1.229-2.416a10.688,10.688,0,0,1,1.21-1.743,1.623,1.623,0,0,1,1.149-.674h0.04a1.977,1.977,0,0,1,1.388.674,8.825,8.825,0,0,1,1.308,1.743,18.327,18.327,0,0,1,1.189,2.436q0.555,1.366,1.031,2.773t0.833,2.734q0.357,1.327.594,2.278,0.039-1.149.119-2.6t0.3-2.912a24.709,24.709,0,0,1,.594-2.852,12.869,12.869,0,0,1,.932-2.476,5.246,5.246,0,0,1,1.368-1.743,2.916,2.916,0,0,1,1.883-.654,1.866,1.866,0,0,1,1.646.772,3.231,3.231,0,0,1,.535,1.882A22.367,22.367,0,0,1,268.432,515.691Zm-31.439,14.916a11.923,11.923,0,0,1-2.756,1.624,7.03,7.03,0,0,1-2.7.614,6.809,6.809,0,0,1-3.746-1.05,9.463,9.463,0,0,1-2.756-2.674,12.579,12.579,0,0,1-1.685-3.585,13.56,13.56,0,0,1-.575-3.823,17.8,17.8,0,0,1,.555-4.239,15.206,15.206,0,0,1,1.685-4.16,10.636,10.636,0,0,1,2.855-3.169,6.738,6.738,0,0,1,4.1-1.268,7.372,7.372,0,0,1,2.577.456,6.378,6.378,0,0,1,3.608,3.268,5.849,5.849,0,0,1,.555,2.575,7.838,7.838,0,0,1-.793,3.487,9.232,9.232,0,0,1-2.1,2.812,10.763,10.763,0,0,1-3.013,1.922,9.882,9.882,0,0,1-3.489.812,2.242,2.242,0,0,0,.932,1.664,3.39,3.39,0,0,0,3.389.118,13.626,13.626,0,0,0,1.467-.891q0.714-.5,1.408-0.891a2.807,2.807,0,0,1,1.407-.4,2.211,2.211,0,0,1,1.428.515,1.653,1.653,0,0,1,.634,1.347,4.713,4.713,0,0,1-.853,2.634A9.777,9.777,0,0,1,236.993,530.607Zm-6.582-12.024a7.787,7.787,0,0,0,1.467-.534,4.177,4.177,0,0,0,1.19-.852,1.711,1.711,0,0,0,.495-1.228,2.4,2.4,0,0,0-.277-1.07,0.92,0.92,0,0,0-.873-0.555,2.348,2.348,0,0,0-1.467.456,3.815,3.815,0,0,0-.991,1.149,6.392,6.392,0,0,0-.614,1.485,7.082,7.082,0,0,0-.258,1.466Q229.638,518.782,230.411,518.583Zm-9.753,5.764q-0.258,1.605-.694,3.289a21.383,21.383,0,0,1-1.031,3.07,7.765,7.765,0,0,1-1.407,2.258,2.47,2.47,0,0,1-1.844.871,1.218,1.218,0,0,1-1.07-.614,4.619,4.619,0,0,1-.595-1.406,9.387,9.387,0,0,1-.257-1.6q-0.06-.812-0.06-1.248a20.36,20.36,0,0,1,.139-2.377q0.138-1.189.317-2.377t0.317-2.377a20.373,20.373,0,0,0,.139-2.377c0-.317-0.014-0.66-0.04-1.03a5.292,5.292,0,0,0-.178-1.05,1.827,1.827,0,0,0-.456-0.812,1.129,1.129,0,0,0-.833-0.317,1.158,1.158,0,0,0-.793.574,8.848,8.848,0,0,0-.812,1.308,11.6,11.6,0,0,0-.635,1.466,3.687,3.687,0,0,0-.257,1.089q0,0.871.019,1.763t0.02,1.8v2.3q-0.039.712-.119,1.466a13.027,13.027,0,0,1-.238,1.466,7.691,7.691,0,0,1-.356,1.366,4.338,4.338,0,0,1-.615,1.149,3.247,3.247,0,0,1-.892.812,2.3,2.3,0,0,1-1.229.317,1.772,1.772,0,0,1-1.308-.515,3.779,3.779,0,0,1-.833-1.327,7.936,7.936,0,0,1-.456-1.822c-0.093-.674-0.158-1.333-0.2-1.981s-0.053-1.241-.04-1.783,0.02-.97.02-1.287v-1.862q0-1.5-.059-2.971t-0.06-2.932q0-.792.02-2.02a11.106,11.106,0,0,1,.3-2.4,5.26,5.26,0,0,1,.912-2,2.2,2.2,0,0,1,1.864-.832,1.524,1.524,0,0,1,.991.357,3.847,3.847,0,0,1,.773.872,5.5,5.5,0,0,1,.555,1.109q0.218,0.594.337,1.03a7.709,7.709,0,0,1,.932-1.07,6.4,6.4,0,0,1,1.209-.911,6.475,6.475,0,0,1,1.506-.634,6.964,6.964,0,0,1,1.9-.238,4.687,4.687,0,0,1,3.152.971,5.769,5.769,0,0,1,1.666,2.417,11.269,11.269,0,0,1,.654,3.109q0.119,1.665.119,3.011,0,0.675-.119,2T220.658,524.347Z" transform="translate(-179.625 -480.438)"/>
</svg>
