<svg id="logo-sp" xmlns="http://www.w3.org/2000/svg" xmlns:xlink="http://www.w3.org/1999/xlink" width="525" height="424" viewBox="0 0 525 424">
  <defs>
    <style>
      .cls-1 {
        fill: #fff;
        filter: url(#filter);
      }

      .cls-1, .cls-2, .cls-3, .cls-4, .cls-5, .cls-6, .cls-7, .cls-8 {
        fill-rule: evenodd;
      }

      .cls-2 {
        fill: #ffc600;
      }

      .cls-3 {
        fill: #ffba00;
      }

      .cls-4 {
        fill: #ffb100;
      }

      .cls-5 {
        fill: #ff9600;
      }

      .cls-6 {
        fill: #ff9400;
      }

      .cls-7, .cls-8 {
        fill: #333;
      }

      .cls-7 {
        stroke: #333;
        stroke-linejoin: round;
        stroke-width: 1px;
      }
    </style>
    <filter id="filter" x="112" y="381" width="525" height="424" filterUnits="userSpaceOnUse">
      <feOffset result="offset" dy="20" in="SourceAlpha"/>
      <feGaussianBlur result="blur" stdDeviation="6.325"/>
      <feFlood result="flood" flood-color="$shadowColor" flood-opacity="0.15"/>
      <feComposite result="composite" operator="in" in2="blur"/>
      <feBlend result="blend" in="SourceGraphic"/>
    </filter>
  </defs>
  <path id="logo_base" class="cls-1" d="M200.564,408.745s42.712-8.75,175.5-8.75,171.675,8.75,171.675,8.75c25.715,0,46.561,31.443,46.561,70.228,0,0,2.7,47.522,2.7,93.733,0,48.021-2.7,94.8-2.7,94.8,0,38.785-20.846,70.228-46.561,70.228,0,0-62.117,7.269-176.672,7.269s-170.5-7.269-170.5-7.269c-25.715,0-46.561-31.443-46.561-70.228,0,0-3-50.892-3-99.737,0-45.287,3-88.8,3-88.8C154,440.188,174.849,408.745,200.564,408.745Z" transform="translate(-112 -381)"/>
  <path id="bg" class="cls-2" d="M241.066,563.591h27.309v23.28H241.066v-23.28Z" transform="translate(-112 -381)"/>
  <path id="bg-2" data-name="bg" class="cls-3" d="M325.658,529.669h27.309v23.28H325.658v-23.28Z" transform="translate(-112 -381)"/>
  <path id="bg-3" data-name="bg" class="cls-4" d="M397.594,548.293h38.632v38.578H397.594V548.293Z" transform="translate(-112 -381)"/>
  <path id="bg-4" data-name="bg" class="cls-5" d="M492.843,543.637h21.981v32.591H492.843V543.637Z" transform="translate(-112 -381)"/>
  <path id="bg-5" data-name="bg" class="cls-6" d="M233.739,640.745h21.98v20.619h-21.98V640.745Z" transform="translate(-112 -381)"/>
  <path id="沿線価値_向上" data-name="沿線価値 向上" class="cls-7" d="M556.267,646.771L406.616,685.038a3.435,3.435,0,0,1-4.2-2.435,3.391,3.391,0,0,1,.021-1.787,4.286,4.286,0,0,1-.18-1.167V673.01a4.33,4.33,0,0,1,8.659,0v3.846l143.59-36.717A3.431,3.431,0,1,1,556.267,646.771Zm-22.646-56.536L386.882,627.758v49.965a3.6,3.6,0,0,1-7.2,0V626.767a3.617,3.617,0,0,1,.078-0.741,3.429,3.429,0,0,1,2.446-4.155l122.99-31.45c-1.21,0-2.421.011-3.63,0.011-5.765,0-11.449-.081-16.4-0.243-5.846-.162-8.769-3.811-8.851-9.163,0-4.135-.081-10.622-0.081-17.109s0.081-12.973.081-17.189a3.7,3.7,0,0,1,3.817-3.811,3.509,3.509,0,0,1,3.654,3.73v0.081c-0.081,3.811-.081,10.216-0.081,16.622s0,12.73.081,16.379c0,2.027.974,3.243,3,3.324,4.629,0.244,10.638.325,16.971,0.325,4.341,0,8.866-.047,13.229-0.173a3.621,3.621,0,0,1,1.494-.326h14a3.656,3.656,0,0,1,3.654,3.624A3.42,3.42,0,0,1,533.621,590.235ZM520.73,536.916H505.058l-0.324,3.974c2.436,0,4.79.081,6.414,0.162,3.736,0.243,6.5,2.594,6.578,5.838,0.081,4.054.162,7.946,0.162,11.757,0,4.622-.081,9.162-0.162,13.784-0.082,3.811-2.274,6.325-6.821,6.649-2.03.162-5.278,0.243-8.445,0.243-2.68,0-5.278-.081-6.9-0.243-3.816-.405-6.171-2.919-6.171-6.649-0.081-5.027-.081-10.054-0.081-14.838,0-3.568,0-7.054.081-10.379,0.081-3.487,2.03-5.919,6.009-6.162,0.487,0,.974-0.081,1.542-0.081l0.325-4.055H479.4a3.258,3.258,0,1,1,0-6.486H497.75l0.488-6.082a3.863,3.863,0,0,1,4.141-3.486c1.867,0,3.735,1.135,3.735,3.243v0.324l-0.487,6h15.1A3.252,3.252,0,1,1,520.73,536.916ZM496.289,571.3c0,1.946.162,2.189,7.064,2.189,1.868,0,3.735-.081,4.953-0.081,2.193-.081,2.436-0.892,2.436-5.838H496.208C496.208,568.864,496.289,570.08,496.289,571.3Zm-0.163-9h14.779v-5.027H496.126V562.3Zm7.308-15.974c-1.948,0-3.978,0-5.278.081a1.85,1.85,0,0,0-1.867,2.108c0,1.055-.081,2.19-0.081,3.406h14.534c0-3.568,0-5.514-2.192-5.514C507.413,546.322,505.464,546.322,503.434,546.322Zm-32.805-8.351-1.055,51.569a3.827,3.827,0,0,1-4.06,3.649,3.531,3.531,0,0,1-3.735-3.568V589.54l0.974-39.245q-1.827,2.433-3.654,4.622a4.744,4.744,0,0,1-3.654,1.865,3.787,3.787,0,0,1-3.9-3.568,3.856,3.856,0,0,1,1.137-2.594c7.389-8.109,12.018-15.974,16-26.839a3.487,3.487,0,0,1,3.41-2.433c2.192,0,4.547,1.784,4.547,4.054a4.314,4.314,0,0,1-.406,1.622Q473.553,532.619,470.629,537.971Zm-31.1-3h-0.081l-12.911-.081v9.73c1.7,0,3.248,0,4.628.082,4.953,0.162,8.851,3.243,8.932,7.946,0.081,5.919.244,11.433,0.244,17.271,0,3.73-.081,7.622-0.244,11.757-0.243,5.108-3.979,7.622-9.5,8.027-3.573.243-8.932,0.406-14.21,0.406-4.791,0-9.582-.163-12.911-0.325-6.5-.324-9.257-3.4-9.5-8.432-0.162-4.379-.243-8.6-0.243-12.812,0-5.432.081-10.784,0.243-16.379,0.082-4.216,3.411-7.378,8.2-7.459,1.461,0,3-.082,4.79-0.082V534.97H396.733c-2.6,0-3.816-1.621-3.816-3.324a3.546,3.546,0,0,1,3.816-3.487h42.712c2.6,0,3.9,1.7,3.9,3.487C443.342,533.268,442.043,534.97,439.526,534.97ZM426.534,583.3c0.812,0,1.7-.082,2.355-0.082,2.923-.162,3.654-1.3,3.735-3.486,0.162-3.73.243-7.46,0.243-11.109q0-7.054-.243-14.108c-0.081-2.514-1.056-3.244-3.492-3.325l-2.6-.081V583.3Zm-19.57-32.191c-0.812,0-1.461.081-2.111,0.081-2.842.162-3.654,1.217-3.654,3.325-0.081,4.784-.162,9.73-0.162,14.6,0,3.486,0,7.054.162,10.46,0.081,2.757.731,3.486,4.3,3.648,0.487,0,.893.082,1.461,0.082V551.106Zm12.749-16.3-5.928.081v9.649h5.928v-9.73Zm0,16.217h-5.928v32.353h5.928V551.025Zm-32.805,38.11a3.736,3.736,0,0,1-3.979,3.567,3.466,3.466,0,0,1-3.735-3.486v-0.081l0.893-36.731c-3.654,5.27-5.6,6.892-7.714,6.892a3.592,3.592,0,0,1-3.654-3.406,4.282,4.282,0,0,1,1.137-2.6c7.064-7.865,12.342-17.919,16.078-29.028a3.493,3.493,0,0,1,3.491-2.513c2.111,0,4.466,1.621,4.466,3.811,0,1.946-5.359,12.487-6.009,13.7Zm-27.693-.649c-3.817,0-11.855-8.514-16.809-18.406l0.082,0.973,0.487,11.6v0.567c0,4.3-2.274,9.568-10.475,9.568-6.171,0-7.552-1.459-7.552-4.135,0-1.865,1.056-3.649,3-3.649a2.019,2.019,0,0,1,.649.081,18.873,18.873,0,0,0,3.817.568c2.192,0,3.573-.973,3.573-4.7l-0.163-25.379c-1.867,0-3.735-.081-5.521-0.162-5.116-.325-8.364-3.244-8.445-7.379-0.082-1.3-.082-2.514-0.082-3.811,0-3.081.163-6.162,0.244-9.163,0.162-3.567,2.842-6.811,8.12-7.054,1.3-.081,2.6-0.081,3.9-0.081a39.629,39.629,0,0,0,1.055-5.433c0.163-1.621,1.787-2.432,3.492-2.432,2.111,0,4.3,1.135,4.3,3.324a13.823,13.823,0,0,1-1.218,4.46c2.517,0,5.034.081,7.632,0.162,3.979,0.081,7.471,3.325,7.633,6.487,0.163,2.432.163,4.946,0.163,7.46,0,2.108,0,4.135-.082,6-0.162,3.973-3.572,7.216-8.12,7.46-2.192.081-4.3,0.162-6.414,0.162v1.459a46.684,46.684,0,0,0,4.3,9.406,39.651,39.651,0,0,0,7.389-6.568,3.139,3.139,0,0,1,2.436-1.135,4.124,4.124,0,0,1,3.9,3.892c0,3.487-9.663,8.676-10.231,9a40.777,40.777,0,0,0,11.043,9.731,3.558,3.558,0,0,1,1.949,3.162A4.106,4.106,0,0,1,359.215,588.486Zm-9.095-51.651c-0.081-1.784-1.136-2.919-3.329-3-2.6-.081-5.115-0.162-7.551-0.162s-4.872.081-7.227,0.162c-2.436.081-3.248,1.541-3.33,3.081,0,0.568-.081,1.136-0.081,1.784H350.12v-1.865Zm-0.081,9.73c0-.729.081-1.459,0.081-2.27h-21.6c0,0.811.081,1.7,0.081,2.433,0.081,2.838,2.518,3,10.719,3S349.877,549.647,350.039,546.565Zm-6.916-72.727L196.384,511.361v49.965a3.6,3.6,0,1,1-7.2,0V510.369a3.607,3.607,0,0,1,.078-0.74,3.429,3.429,0,0,1,2.446-4.156L341.36,467.206A3.431,3.431,0,1,1,343.123,473.838ZM213.619,543c2.6,0,8.445,1.784,12.829,4.865a4.142,4.142,0,0,1,1.868,3.486c0,2.271-1.786,4.46-3.9,4.46a3.579,3.579,0,0,1-2.354-.892c-3.573-2.838-6.9-3.973-10.394-5.189a2.863,2.863,0,0,1-2.111-2.757A4.162,4.162,0,0,1,213.619,543Zm10.556,21.892A3.518,3.518,0,0,1,227.5,562.7a3.86,3.86,0,0,1,3.979,3.892c0,2.514-5.928,14.839-11.937,22.542a5.148,5.148,0,0,1-3.9,2.108,4.374,4.374,0,0,1-4.385-4.135,3.82,3.82,0,0,1,1.056-2.595C217.11,578.918,221.414,571.053,224.175,564.89Zm0.243,57.331c3.817-.081,7.8-0.162,11.774-0.162a75.157,75.157,0,0,0,2.518-9.73c0.243-1.784,2.111-2.595,4.06-2.595,2.273,0,4.79,1.217,4.79,3.568,0,2.27-2.842,8.352-3,8.676,7.308,0,14.779.081,22.087,0.243,4.953,0.081,9.825,3.649,9.906,9.487,0.162,9.163.162,18.082,0.325,27.244l0.162,11.433v0.162c0,4.784-3.979,10.785-15.1,10.785-5.116,0-9.744-.649-9.744-4.7a3.54,3.54,0,0,1,3.735-3.568,4.645,4.645,0,0,1,1.056.081,30.914,30.914,0,0,0,5.359.568c3.573,0,6.415-1.054,6.415-4.7,0-27.326-.163-32.758-0.244-34.218-0.162-4.621-1.786-5.432-5.765-5.513-5.928-.081-11.855-0.163-17.621-0.163-5.846,0-11.53.082-17.052,0.163-4.628.081-5.927,1.378-6.008,5.513-0.163,7.379-.244,14.758-0.244,22.055V678.9c0,2.352-2.03,3.568-3.979,3.568-2.03,0-4.06-1.216-4.06-3.487V678.9c0.163-15.082.163-31.866,0.487-47.84C214.35,625.87,218.328,622.3,224.418,622.221Zm12.5,14.92c1.949-.081,4.385-0.162,6.9-0.162,3.086,0,6.253.081,8.851,0.162,3.329,0.162,7.146,2.513,7.308,6.487,0.081,2.027.163,4.54,0.163,6.973,0,2.513-.082,4.946-0.163,6.811a7.762,7.762,0,0,1-7.552,7.622c-2.273.081-5.034,0.162-7.714,0.162s-5.359-.081-7.632-0.162c-3.979-.244-6.578-3.406-6.74-7.541,0-1.7-.081-4.054-0.081-6.406,0-2.432.081-4.946,0.081-6.973A6.823,6.823,0,0,1,236.923,637.141Zm0.406,18.811c0.081,2.271,1.056,2.514,8.12,2.514,5.441,0,7.227-.324,7.308-2.6,0.081-.892.081-2.351,0.081-3.973,0-2.108,0-4.46-.081-5.838-0.162-2.676-2.273-2.676-7.064-2.676-2.111,0-4.3,0-5.765.081-2.6.163-2.68,1.946-2.68,6.892C237.248,652.466,237.248,654.655,237.329,655.952Zm7.877-95.927c2.517-.081,5.765-0.162,9.013-0.162,3.9,0,7.8.081,10.475,0.162,4.385,0.163,8.445,2.919,8.607,7.136,0.162,3.324.325,8.433,0.325,12.487,0,1.216-.081,2.351-0.081,3.324-0.163,4.379-3.167,7.46-8.689,7.865-2.355.163-5.684,0.244-9.094,0.244-3.817,0-7.714-.081-10.475-0.244-6.009-.324-8.445-3.567-8.607-7.7-0.082-1.378-.082-2.919-0.082-4.54,0-3.892.163-8.271,0.244-11.109C237,563.188,240.252,560.269,245.206,560.025Zm-0.731,21.244c0.162,2.838,2.03,3,10.718,3,2.68,0,5.36-.081,6.9-0.163,3.33-.243,3.573-2.351,3.573-6.567,0-9.974,0-11.109-3.41-11.271-1.7-.081-4.466-0.081-7.308-0.081-2.761,0-5.441,0-7.065.081-2.273.081-3.167,1.3-3.248,2.676-0.081,2.027-.243,5.838-0.243,9C244.394,579.242,244.394,580.378,244.475,581.269Zm-15.753-42.244a3.647,3.647,0,0,1-2.761-1.379,31.405,31.405,0,0,0-9.419-7.216A2.766,2.766,0,0,1,214.837,528c0-1.946,2.03-3.892,4.385-3.892,2.517,0,13.722,6.081,13.722,10.541A4.5,4.5,0,0,1,228.722,539.025Zm15.834-5.514a3.97,3.97,0,0,1,4.141,3.73c0,2.919-8.2,21.487-14.21,21.487a4.243,4.243,0,0,1-4.222-3.811,3.091,3.091,0,0,1,1.137-2.351c5.359-4.946,7.876-10.217,9.662-16.379A3.555,3.555,0,0,1,244.556,533.511Zm15.509-.73c-0.406-1.3-1.38-1.7-3.41-1.7l-8.689.163h-0.081a3.357,3.357,0,0,1-3.491-3.487,3.3,3.3,0,0,1,3.491-3.406l10.719-.081c3.654,0,7.145,2.108,8.2,5.514,2.517,7.946,6.334,14.514,13.317,20.19a3.919,3.919,0,0,1,1.624,3.081,4.858,4.858,0,0,1-4.791,4.46C272.327,557.512,264.288,546.4,260.065,532.781Zm34.108,35.272a3.009,3.009,0,0,1,3.086-2.838,3.5,3.5,0,0,1,3.573,3.568c0,2.432-2.517,12.568-5.278,16.784a3.828,3.828,0,0,1-3.167,1.784,3.425,3.425,0,0,1-3.573-3.162,3.74,3.74,0,0,1,.65-2.109A37.241,37.241,0,0,0,294.173,568.053Zm22.168-2.676c0.893,1.216,4.222,6.892,4.222,10.135a3.608,3.608,0,0,1-3.654,3.568,2.869,2.869,0,0,1-3-2.757,23.26,23.26,0,0,0-2.761-8.189,2.987,2.987,0,0,1-.406-1.3c0-1.54,1.624-2.594,3.167-2.594A2.825,2.825,0,0,1,316.341,565.377Zm10.8-4.946c2.842,0,7.064.081,7.064,4.865a11.941,11.941,0,0,1-.406,2.838c-3.573,13.3-12.667,21.893-15.672,21.893a4.179,4.179,0,0,1-3.9-3.811,3.1,3.1,0,0,1,1.543-2.514c7.308-4.865,11.2-14.757,11.2-16.217a0.852,0.852,0,0,0-.893-0.892c-0.487,0-5.44.243-5.765,0.243a2.827,2.827,0,0,1-2.842-3.081,3.309,3.309,0,0,1,1.38-2.757,4.034,4.034,0,0,1-.974.163,2.413,2.413,0,0,1-2.436-2.109l-0.081-.243c-1.3.243-3.248,0.568-5.522,0.973l0.162,29.19a3.682,3.682,0,0,1-3.816,3.73,3.467,3.467,0,0,1-3.573-3.648v-0.082l0.244-28.136c-4.141.568-9.1,1.135-9.582,1.135a3.046,3.046,0,0,1-3-3.243,2.807,2.807,0,0,1,2.6-3c0.975-.081,2.193-0.162,3.573-0.243,1.462-1.7,3.167-3.73,4.791-6a79.236,79.236,0,0,0-9.176-7.54,3.138,3.138,0,0,1,1.7-5.838,5.389,5.389,0,0,1,2.193.729,57.976,57.976,0,0,0,6.252-13.865,3.069,3.069,0,0,1,3.248-2.27c1.949,0,4.06,1.3,4.06,3.324,0,1.216-3.085,9.163-8.282,16.622,1.3,1.054,2.6,2.271,3.654,3.244a88.138,88.138,0,0,0,6.171-11.676,3.278,3.278,0,0,1,3.167-2.109c1.949,0,3.9,1.379,3.9,3.406,0,2.432-7.389,13.784-12.992,21.163,3.167-.324,6.253-0.73,8.283-0.973-0.487-.892-1.056-1.784-1.543-2.514a2.61,2.61,0,0,1-.487-1.459c0-1.46,1.543-2.514,3.085-2.514a3.1,3.1,0,0,1,2.112.892c1.38,1.46,4.953,6.892,4.953,9.568a3.487,3.487,0,0,1-1.868,3,1.589,1.589,0,0,1,.65-0.081C322.35,560.512,324.705,560.431,327.141,560.431Zm-31.831,110.6h25.01V616.14a3.933,3.933,0,0,1,4.222-3.973c2.193,0,4.3,1.3,4.3,3.973V636.9h22a3.53,3.53,0,0,1,3.573,3.729,3.621,3.621,0,0,1-3.573,3.892h-22v26.515h28.907a3.466,3.466,0,0,1,3.492,3.73,3.582,3.582,0,0,1-3.492,3.811H295.31a3.621,3.621,0,0,1-3.573-3.892A3.42,3.42,0,0,1,295.31,671.034Z" transform="translate(-112 -381)"/>
  <path id="選ばれる_南海沿線を目指して" data-name="選ばれる 南海沿線を目指して" class="cls-7" d="M527.052,495.341c-0.123.387-.575,0.843-2.012,0.752a8.054,8.054,0,0,0-3.058.637,6.21,6.21,0,0,0-2.628,2.666c-1.807,3.348-.431,8.132,4.167,7.95,2.156-.091,2.279,2.6.1,2.574-6.2-.023-8.335-6.333-6.1-10.912a8.051,8.051,0,0,1,.657-1.184c0.328-.478.226-0.456-0.164-0.319a26.839,26.839,0,0,0-2.587,1.139,18.187,18.187,0,0,1-1.848.683,1.28,1.28,0,1,1-.7-2.46c0.431-.114,1.622-0.364,2.279-0.547,1.006-.273,2.792-0.729,4.886-1.389a25.3,25.3,0,0,1,5.6-1.344A1.306,1.306,0,0,1,527.052,495.341Zm-30.716,10.137c-0.082-2.392.144-4.328,0.247-6.743,0.061-1.481.2-3.713,0.164-5.125a1.122,1.122,0,1,1,2.238-.046c-0.041,1.435-.185,3.6-0.288,5.126-0.144,2.414-.451,4.487-0.369,6.7,0.123,3.326,3.777,3.1,7.349-.023,1.334-1.162,2.587.934,1.417,1.982C503.09,510.968,496.521,511.629,496.336,505.478Zm-11.726-5.444c-2.526,0-4.517-.023-4.517-2.529,0-1.321.021-4.237,0.041-5.49a1,1,0,0,1,1.971-.023v0.023c0,0.615-.021,1.481-0.041,2.324a36.661,36.661,0,0,0,5.112-1.914,1.1,1.1,0,0,1,.431-0.114,1.124,1.124,0,0,1,1.047,1.139,1.075,1.075,0,0,1-.76,1.025,39.668,39.668,0,0,1-5.851,1.732v0.911c0,0.911.555,1.07,2.833,1.07,2.218,0,3.059-.273,3.059-1.594a0.877,0.877,0,0,1,.965-0.889,1.064,1.064,0,0,1,1.15,1.094C490.05,499.737,487.627,500.034,484.61,500.034Zm-6.139-.342a0.734,0.734,0,0,1,.288-0.068,0.917,0.917,0,0,1,.759,1c0,0.683-.287.82-2.566,1.845v2.483c0,0.365.062,2.438,0.082,3.235v0.091a2.388,2.388,0,0,1-2.627,2.551c-1.088,0-1.848-.205-1.848-1.23a0.932,0.932,0,0,1,.8-1.048,0.506,0.506,0,0,1,.184.023,2.878,2.878,0,0,0,.657.091,0.718,0.718,0,0,0,.842-0.752v-4.647a8.123,8.123,0,0,1-2.155.684,1.022,1.022,0,0,1-1.006-1.094,0.991,0.991,0,0,1,.718-1c0.8-.228,1.622-0.5,2.443-0.775v-3.576h-1.95a1.011,1.011,0,0,1,0-2h1.95l-0.02-3.644a0.991,0.991,0,0,1,.985-1.071,0.965,0.965,0,0,1,.965,1.071V495.5h1.478a1.008,1.008,0,0,1,0,2h-1.478v2.87C477.507,500.147,478.02,499.92,478.471,499.692ZM465.1,510.125c-0.8.046-1.745,0.068-2.689,0.068-4.66,0-6.364-.045-6.446-3.12-0.041-1.367-.062-3.645-0.062-5.969,0-2.3.021-4.67,0.062-6.173a2.5,2.5,0,0,1,2.648-2.734c0.842-.023,2.628-0.068,4.25-0.068,1.108,0,2.155.023,2.812,0.068a2.5,2.5,0,0,1,2.546,2.552c0.041,1.458.061,4.168,0.061,6.743,0,2.255-.02,4.4-0.041,5.535C468.182,509.146,467.094,510.034,465.1,510.125Zm-7.267-3.508c0.041,1.526.636,1.549,4.373,1.549,0.924,0,1.868-.023,2.545-0.068,1.581-.091,1.581-0.775,1.581-3.554h-8.54C457.794,505.387,457.815,506.116,457.835,506.617Zm8.458-11c-0.062-1.526-.534-1.549-4.126-1.549-1.129,0-2.2.023-2.854,0.069-1.437.091-1.519,0.478-1.519,3.325h8.54C466.334,496.73,466.314,496.093,466.293,495.614Zm0.062,3.782h-8.581v3.212h8.581V499.4Zm-17.906,2.05c-0.862.364-1.786,0.82-2.607,1.253a20.321,20.321,0,0,1,.041,2.506,1.3,1.3,0,0,1-1.088,1.412,1.016,1.016,0,0,1-.924-1.3c0.02-.479.041-1,0.041-1.481-0.185.114-.37,0.228-0.534,0.342-2.545,1.822-2.238,3.189-1.088,3.827,1.088,0.615,3.1.159,4.065-.183,1.806-.615,2.381,1.846.493,2.392-1.212.342-4,.684-5.605-0.319-2.771-1.731-2.279-4.806,1.437-7.517,0.288-.2.616-0.456,1.006-0.706-0.554-1.914-2.135-1.686-3.469.023-0.021.022-.062,0.068-0.082,0.091a4.915,4.915,0,0,1-.473.592c-1.129,1.116-2.627-.182-1.4-1.412a11.113,11.113,0,0,0,1.663-2.142,19.729,19.729,0,0,0,.965-2.027,3.766,3.766,0,0,1-2.545-.251c-1.479-.82-0.473-2.961.964-1.891a2.855,2.855,0,0,0,1.93.046c0.082-.023.2-0.023,0.308-0.046a10.448,10.448,0,0,0,.226-1.913,1.033,1.033,0,0,1,2.053-.114,4.79,4.79,0,0,1-.164,1.321l-0.042.091a6.719,6.719,0,0,0,.863-0.41c1.129-.751,2.237,1.139.718,1.982a10.675,10.675,0,0,1-2.258.752,24.657,24.657,0,0,1-.985,2.3,2.93,2.93,0,0,1,3.448,1.982c0.842-.479,1.7-0.957,2.5-1.344a15.232,15.232,0,0,0,1.6-.843c1.54-.957,2.464,1.321,1.15,2.05A22.96,22.96,0,0,1,448.449,501.446ZM433.4,509.761c-0.965,0-3-2.392-4.25-5.171l0.021,0.273,0.123,3.258v0.159a2.46,2.46,0,0,1-2.648,2.688c-1.561,0-1.91-.41-1.91-1.162a0.9,0.9,0,0,1,.76-1.025,0.456,0.456,0,0,1,.164.023,4.344,4.344,0,0,0,.965.159c0.554,0,.9-0.273.9-1.321l-0.041-7.13c-0.472,0-.944-0.023-1.4-0.046a2.092,2.092,0,0,1-2.135-2.073c-0.02-.364-0.02-0.706-0.02-1.07,0-.866.041-1.732,0.061-2.574a2.016,2.016,0,0,1,2.053-1.982c0.329-.023.657-0.023,0.986-0.023a12.257,12.257,0,0,0,.266-1.526,0.807,0.807,0,0,1,.883-0.684,0.994,0.994,0,0,1,1.088.934,4.212,4.212,0,0,1-.308,1.253c0.637,0,1.273.023,1.93,0.046a2.059,2.059,0,0,1,1.93,1.822c0.041,0.684.041,1.39,0.041,2.1,0,0.592,0,1.162-.021,1.686a2.166,2.166,0,0,1-2.053,2.1c-0.554.023-1.088,0.046-1.621,0.046v0.41a13.763,13.763,0,0,0,1.088,2.642,10.415,10.415,0,0,0,1.868-1.845,0.764,0.764,0,0,1,.616-0.319,1.105,1.105,0,0,1,.985,1.094c0,0.979-2.443,2.437-2.587,2.528a10.736,10.736,0,0,0,2.792,2.734,1.02,1.02,0,0,1,.493.888A1.1,1.1,0,0,1,433.4,509.761Zm-2.3-14.511a0.794,0.794,0,0,0-.841-0.843c-0.657-.023-1.294-0.046-1.91-0.046s-1.231.023-1.827,0.046a0.812,0.812,0,0,0-.841.866c0,0.159-.021.318-0.021,0.5h5.44V495.25Zm-0.02,2.733c0-.2.02-0.41,0.02-0.637h-5.46c0,0.227.02,0.478,0.02,0.683,0.021,0.8.637,0.843,2.71,0.843S431.036,498.849,431.077,497.983Zm-8.6-13.6a2.4,2.4,0,0,1,1.211-4.487,3.024,3.024,0,0,1,3.244,3.075,2.7,2.7,0,0,0,1.191-.729c1.5-1.481,1.437-3.645.266-4.51-1.067-.8-3.284-0.957-5.358.387a4.716,4.716,0,0,0-1.724,1.708c-0.739,1.208-2.792-.136-1.519-1.526a78.072,78.072,0,0,0,6.2-7.358c0.225-.319.02-0.228-0.144-0.137a15.251,15.251,0,0,1-3.449,1.162,1.063,1.063,0,1,1-.534-2.05,29.077,29.077,0,0,0,4.517-1.116c1.642-.524,3,1.093,1.97,2.369-0.657.82-1.478,1.708-2.3,2.551s-1.642,1.663-2.381,2.461a5.74,5.74,0,0,1,5.768-.069c2.957,1.959,1.992,5.969-.164,7.7C427.238,485.435,424.035,485.526,422.475,484.387Zm1.273-2.824a0.734,0.734,0,0,0-.287,1.412,3.385,3.385,0,0,0,1.724.342C425.206,482.269,424.651,481.472,423.748,481.563Zm-3.942,9.154a0.994,0.994,0,0,1,1.027.934,16.468,16.468,0,0,1-2.094,4.669c0.328,0.3.657,0.638,0.924,0.912a25.862,25.862,0,0,0,1.56-3.281,0.831,0.831,0,0,1,.8-0.592,0.977,0.977,0,0,1,.985.957c0,0.683-1.868,3.872-3.285,5.945,0.8-.091,1.581-0.205,2.094-0.273-0.123-.251-0.267-0.5-0.39-0.706a0.794,0.794,0,0,1-.123-0.41,0.758,0.758,0,0,1,.78-0.706,0.747,0.747,0,0,1,.534.25,6.437,6.437,0,0,1,1.252,2.688,0.994,0.994,0,0,1-.472.843,0.361,0.361,0,0,1,.164-0.023c0.513-.022,1.109-0.045,1.725-0.045,0.718,0,1.786.023,1.786,1.367a3.685,3.685,0,0,1-.1.8c-0.9,3.736-3.2,6.15-3.962,6.15a1.117,1.117,0,0,1-.985-1.07,0.89,0.89,0,0,1,.39-0.706,8.686,8.686,0,0,0,2.833-4.556,0.228,0.228,0,0,0-.226-0.251c-0.123,0-1.376.068-1.458,0.068a0.766,0.766,0,0,1-.718-0.865,0.968,0.968,0,0,1,.349-0.775,0.935,0.935,0,0,1-.247.046,0.633,0.633,0,0,1-.616-0.592l-0.02-.069c-0.329.069-.821,0.16-1.4,0.274l0.041,8.2a0.981,0.981,0,0,1-.965,1.048,0.928,0.928,0,0,1-.9-1.025V509.9l0.061-7.9c-1.046.159-2.3,0.319-2.422,0.319a0.825,0.825,0,0,1-.759-0.912,0.765,0.765,0,0,1,.656-0.842c0.247-.023.555-0.046,0.9-0.069,0.369-.478.8-1.048,1.211-1.686a20.561,20.561,0,0,0-2.32-2.118,0.938,0.938,0,0,1-.39-0.752,0.867,0.867,0,0,1,.821-0.888,1.262,1.262,0,0,1,.555.2,17.238,17.238,0,0,0,1.58-3.9A0.786,0.786,0,0,1,419.806,490.717Zm-2.073,12.506a0.933,0.933,0,0,1,.9,1,14.9,14.9,0,0,1-1.334,4.716,0.95,0.95,0,0,1-.8.5,0.9,0.9,0,0,1-.9-0.889,1.135,1.135,0,0,1,.164-0.592,11.274,11.274,0,0,0,1.191-3.941A0.793,0.793,0,0,1,417.733,503.223Zm-4.111-2.164c-1.17,0-3.2-3.121-4.27-6.948a0.714,0.714,0,0,0-.862-0.479l-2.2.046h-0.021a0.9,0.9,0,0,1-.883-0.98,0.884,0.884,0,0,1,.883-0.956l2.71-.023a2.142,2.142,0,0,1,2.073,1.549,11.436,11.436,0,0,0,3.367,5.672,1.148,1.148,0,0,1,.411.866A1.293,1.293,0,0,1,413.622,501.059Zm-4.906-21.25c0.1-1.208.472-3.668,0.534-5.035,0.061-1.617-.247-2.847-3.121-0.2a25.732,25.732,0,0,0-2.935,2.962,37.1,37.1,0,0,0,.164,6.765c0.246,1.572-1.909,2.1-2.073.182a39.255,39.255,0,0,1-.021-4.214c-0.431.82-.8,1.686-1.129,2.347-0.924,1.8-3,.41-1.868-1.071a1.72,1.72,0,0,1,.164-0.205,45.424,45.424,0,0,0,3.059-5.08c0.041-.456.061-0.889,0.1-1.344a7.252,7.252,0,0,0-1.56.82c-1.416,1-2.053-1.23-.944-1.8,0.739-.387,1.724-0.843,2.689-1.253,0.144-1.708.308-3.234,0.411-4.237a0.955,0.955,0,1,1,1.888.228c-0.143.82-.287,1.959-0.431,3.28,0.657-.091,1.232.593,0.924,1.663,0.246-.25.493-0.5,0.719-0.706,3.182-2.893,6.158-2.688,5.891,1.845-0.082,1.367-.41,3.782-0.513,5.08-0.2,2.6,1.006,2.324,2.382.707,1.047-1.231,2.34.432,1.478,1.5C411.918,485.207,408.244,484.843,408.716,479.809Zm-9.69,11.864c0.637,0,3.47,1.709,3.47,2.962a1.212,1.212,0,0,1-1.068,1.23,0.892,0.892,0,0,1-.7-0.387,8.082,8.082,0,0,0-2.381-2.028,0.782,0.782,0,0,1-.431-0.683A1.152,1.152,0,0,1,399.026,491.673Zm1.827,6.675a1.2,1.2,0,0,1,.473.979,1.188,1.188,0,0,1-.986,1.253,0.854,0.854,0,0,1-.595-0.25,7.768,7.768,0,0,0-2.628-1.458,0.8,0.8,0,0,1-.534-0.775,1.115,1.115,0,0,1,1.027-1.116A6.581,6.581,0,0,1,400.853,498.348Zm-5.794-30.043a6.857,6.857,0,0,0-1.621-1.23,0.771,0.771,0,1,1,.615-1.413,6.059,6.059,0,0,1,1.992,1.23C396.825,467.758,395.737,469.125,395.059,468.305Zm-1.745,1.913a6.967,6.967,0,0,0-1.6-1.276,1.084,1.084,0,0,1-.369-0.3v0.16c-0.041.638-.062,1.594-0.062,2.711,0.349-.114.719-0.2,1.047-0.319a1.08,1.08,0,1,1,.452,2.1c-0.493.137-.986,0.274-1.478,0.388,0.02,1.777.082,3.553,0.123,4.67,0.02,0.569.1,1.321,0.123,2.05a9.755,9.755,0,0,1,2.32,1.663c1.17,1.184-.288,3.166-1.314,1.959a9.858,9.858,0,0,0-1.273-1.185c-0.78,1.8-3.285,3.326-5.522,1.914a2.689,2.689,0,0,1,.308-4.784,5.3,5.3,0,0,1,3.613-.273c0-.365-0.041-0.707-0.062-1.139-0.061-.934-0.1-2.688-0.164-4.488a12.74,12.74,0,0,1-3.367.159,1.1,1.1,0,1,1,.411-2.164,7.767,7.767,0,0,0,2.894-.068c-0.02-1.276-.041-2.437-0.02-3.144a1.007,1.007,0,0,1,1.868-.569,0.825,0.825,0,0,1,1.15-.729,6.233,6.233,0,0,1,1.929,1.3C395.08,469.74,393.951,471.061,393.314,470.218Zm-3.818,11.55a3.369,3.369,0,0,0-2.833-.137,0.8,0.8,0,0,0-.123,1.344,2.054,2.054,0,0,0,2.977-1.207H389.5Zm-7.534.022c-0.164.57-.287,1.071-0.37,1.436-0.164.637,0.1,1.275-.41,1.822-0.534.547-1.458,0.456-1.807-.775a22.8,22.8,0,0,1-.328-8c0.267-2.757.718-5.308,0.821-6.789,0.123-1.845,2.279-1.389,2.073.046-0.143,1.025-.492,3.007-0.759,4.943a28.065,28.065,0,0,0-.39,4.761c0.041,0.41.061,0.478,0.267,0.023,0.061-.137.2-0.547,0.246-0.661,0.472-1.093,2.032-.319,1.293,1.39A14.842,14.842,0,0,0,381.962,481.79Zm0.02,12.23a1.219,1.219,0,0,1-1.046,1.253,0.829,0.829,0,0,1-.678-0.388,7.7,7.7,0,0,0-1.848-1.731,0.863,0.863,0,0,1-.39-0.706,1.08,1.08,0,0,1,1.027-1.025C379.56,491.423,381.982,492.858,381.982,494.02Zm-1.539,4.032a1.143,1.143,0,0,1,.451.956,1.164,1.164,0,0,1-.985,1.231,0.878,0.878,0,0,1-.554-0.228,7.772,7.772,0,0,0-2.176-1.344,0.771,0.771,0,0,1-.513-0.752,1.073,1.073,0,0,1,.985-1.093A6.926,6.926,0,0,1,380.443,498.052ZM374.71,485.8c-1.293.136-3.223,0.273-5.173,0.273-5.173,0-6.774-1.025-8.252-2.8-0.575.729-2.135,2.688-2.936,2.688a1.2,1.2,0,0,1-1.088-1.184,1,1,0,0,1,.493-0.843,10.163,10.163,0,0,0,2.627-2.392c0.021-1.23.082-2.3,0.082-3.326,0-.8-0.02-1.048-0.862-1.048-0.328,0-.6.023-0.9,0.023a0.866,0.866,0,0,1-.985-0.98,0.924,0.924,0,0,1,.821-1.025h1.252c1.457,0,2.587.182,2.587,2.142,0,1.321-.083,2.87-0.083,4.328a5,5,0,0,0,.924.957,1.042,1.042,0,0,1-.143-0.547,0.706,0.706,0,0,1,.656-0.752,6.144,6.144,0,0,0,3.1-1.3,0.578,0.578,0,0,1,.39-0.16,0.9,0.9,0,0,1,.719.934,0.774,0.774,0,0,1-.308.661,8.72,8.72,0,0,1-3.552,1.594H363.83c0.78,0.456,1.93.912,4.8,0.912,2.135,0,4.455-.251,6.015-0.388h0.1a1.019,1.019,0,0,1,.986,1.094A1.089,1.089,0,0,1,374.71,485.8Zm-4.311-5.878a8.713,8.713,0,0,0,3.552,1.231,0.785,0.785,0,0,1,.739.842,0.976,0.976,0,0,1-.924,1.026,10.8,10.8,0,0,1-4.188-1.641,0.737,0.737,0,0,1-.369-0.66,0.9,0.9,0,0,1,.8-0.911A0.853,0.853,0,0,1,370.4,479.922Zm4.045-1.913a0.739,0.739,0,0,1,.759.8,0.751,0.751,0,0,1-.759.8l-5.687-.046-5.461.046a0.751,0.751,0,0,1-.759-0.8,0.739,0.739,0,0,1,.759-0.8l2.731,0.023v-1.39l-1.971.023a0.786,0.786,0,0,1,0-1.572l1.971,0.023v-0.638a0.678,0.678,0,0,1,.431-0.638,6.678,6.678,0,0,1-.678.023c-2.032,0-2.812-.3-2.812-2.46,0-.729.02-1.891,1.622-1.891h1.19c0.6,0,.78,0,0.78-0.524,0-.319-0.041-0.41-0.328-0.433H363.6a0.719,0.719,0,0,1-.718-0.8,0.783,0.783,0,0,1,.7-0.843h0.7c0.965,0,2.073.023,2.4,0.023,1.088,0,1.5.5,1.5,2.118,0,1.937-.472,1.937-3.2,1.937-0.329,0-.37.159-0.37,0.751,0,0.57.164,0.593,1.211,0.593,0.7,0,1.232-.046,1.273-0.752a0.724,0.724,0,0,1,.76-0.729,0.851,0.851,0,0,1,.9.843,1.913,1.913,0,0,1-1.663,2.05,0.75,0.75,0,0,1,.678.729v0.638l0.985,0.023H369.7v-0.661a0.736,0.736,0,0,1,.7-0.729,1.743,1.743,0,0,1-1.4-2.073c0-1.025.021-2.164,1.6-2.164h1.252c0.739,0,.8-0.023.8-0.524,0-.319-0.042-0.41-0.329-0.433h-2.771a0.708,0.708,0,0,1-.7-0.774,0.791,0.791,0,0,1,.7-0.866h0.7c1.006,0,2.176.023,2.5,0.023,1.191,0,1.519.615,1.519,2.118,0,1.891-.39,1.937-3.305,1.937-0.39,0-.39.2-0.39,0.729,0,0.569.082,0.615,1.293,0.615,1.027,0,1.5-.046,1.54-0.866a0.724,0.724,0,0,1,.76-0.729,0.887,0.887,0,0,1,.923.866c0,2.1-1.786,2.278-3.2,2.278-0.308,0-.6-0.023-0.883-0.046a0.678,0.678,0,0,1,.431.638v0.638l2.135-.023a0.786,0.786,0,0,1,0,1.572l-2.135-.023v1.39Zm-4.743-1.367-0.944-.023-0.985.023v1.39l1.006,0.023,0.923-.023v-1.39Zm-8.273-5.125a0.8,0.8,0,0,1-.7-0.479,6.388,6.388,0,0,0-2.012-1.982,0.808,0.808,0,0,1-.41-0.706,1.1,1.1,0,0,1,1.047-1.025c0.616,0,3.182,1.754,3.182,2.916A1.274,1.274,0,0,1,361.428,471.517ZM358.8,492.972h6.733v-1.208a1.07,1.07,0,1,1,2.135,0l-0.021,1.208h6.775a1,1,0,0,1,0,1.982h-6.775v1.571c1.417,0,2.813,0,4.188.046a2.436,2.436,0,0,1,2.382,2.46c0.02,1.435.041,5.718,0.061,6.584l0.041,2.278v0.045c0,1.435-.739,2.939-3.284,2.939-1.93,0-2.423-.433-2.423-1.276a0.928,0.928,0,0,1,.863-1.025c0.061,0,.1.023,0.164,0.023a9.206,9.206,0,0,0,1.293.137,1.151,1.151,0,0,0,1.4-1.208c0-.706.021-1.549,0.021-2.437,0-1.8-.021-3.782-0.083-5.262-0.041-1.208-.41-1.413-1.375-1.436-1.416-.022-2.895-0.045-4.332-0.045s-2.853.023-4.187,0.045c-1.13.023-1.417,0.365-1.437,1.436-0.042,2.8-.042,6.9-0.062,10.319a0.888,0.888,0,0,1-.944.911,0.925,0.925,0,0,1-.986-0.911c0.021-3.258.041-7.973,0.1-11.276a2.28,2.28,0,0,1,2.443-2.3c1.293-.023,2.669-0.046,4.065-0.046v-1.571H358.8A0.991,0.991,0,0,1,358.8,492.972Zm2.935,9.294a0.815,0.815,0,0,1,.821-0.843h1.848a0.845,0.845,0,0,1-.185-0.273,7.04,7.04,0,0,0-.718-1.39,0.618,0.618,0,0,1-.1-0.364,0.935,0.935,0,0,1,.944-0.8c0.78,0,1.519,1.595,1.519,2a1.02,1.02,0,0,1-.431.843h1.458c0.02-.046.041-0.068,0.061-0.114a8.085,8.085,0,0,0,.883-2.255,0.653,0.653,0,0,1,.678-0.524,1.03,1.03,0,0,1,1.067.911,6.467,6.467,0,0,1-.8,1.959h1.786a0.855,0.855,0,0,1,0,1.709l-3.059-.023,0.02,1.549,2.915-.023a0.878,0.878,0,0,1,0,1.754l-2.915-.023,0.021,2.985a0.955,0.955,0,0,1-.965,1,0.926,0.926,0,0,1-.944-1l0.02-2.985-2.915.023a0.877,0.877,0,0,1,0-1.754l2.915,0.023,0.021-1.549-3.121.023A0.821,0.821,0,0,1,361.736,502.266Zm18.317,0.82a0.894,0.894,0,0,1,.841-0.638,1,1,0,0,1,.986,1.048,18.681,18.681,0,0,1-2.936,6.424,1.2,1.2,0,0,1-.965.57,1.119,1.119,0,0,1-1.067-1.117,1.14,1.14,0,0,1,.267-0.729A18.953,18.953,0,0,0,380.053,503.086Zm14.6-9.317a0.938,0.938,0,0,1-.883,1.048H384.98a21.61,21.61,0,0,1-1.889,2.779,1.1,1.1,0,0,1-.821.433,1.022,1.022,0,0,1-1.027-.98,1.186,1.186,0,0,1,.308-0.729,18.438,18.438,0,0,0,3.08-5.125,0.85,0.85,0,0,1,.821-0.57,1.023,1.023,0,0,1,1.026,1,3.356,3.356,0,0,1-.431,1.184l7.719-.068A0.93,0.93,0,0,1,394.649,493.769ZM382.5,500.922h0.965c0.082-.729.184-1.481,0.266-2.21,0.206-1.777.863-2.369,2.505-2.414,0.883-.023,1.971-0.046,3.018-0.046,0.636,0,1.252,0,1.786.023a2.054,2.054,0,0,1,2.278,2.141c0,0.729-.02,1.6-0.041,2.506h1.437a0.97,0.97,0,0,1,0,1.936h-1.519c-0.061,1.071-.143,2.1-0.246,3.007h1.15a0.857,0.857,0,0,1,.841.934,0.869,0.869,0,0,1-.841.934h-1.458c-0.6,2.255-1.827,3.3-3.572,3.3a6.219,6.219,0,0,1-1.622-.25,0.83,0.83,0,0,1-.554-0.866,1.007,1.007,0,0,1,.883-1.093,1.443,1.443,0,0,1,.287.045,3.093,3.093,0,0,0,1.026.182,1.62,1.62,0,0,0,1.561-1.3l-5.728.046h-0.041a1.936,1.936,0,0,1-2.176-2,3.5,3.5,0,0,1,.1-0.775c0.164-.637.287-1.366,0.41-2.164H382.5a0.881,0.881,0,0,1-.945-0.934A0.946,0.946,0,0,1,382.5,500.922Zm8.93-2.073c0-.843-0.554-0.843-2.094-0.843-0.041.889-.1,1.914-0.185,2.984h2.258C391.426,500.216,391.426,499.487,391.426,498.849Zm-0.349,7.039c0.123-.911.226-1.982,0.287-3.1H389c-0.1,1.093-.225,2.164-0.369,3.121Zm-3.49-7.882c-1.6,0-2.012.023-2.115,0.889-0.061.569-.143,1.321-0.246,2.1h2.156C387.464,499.92,387.546,498.9,387.587,498.006Zm-2.936,7.29a0.621,0.621,0,0,0,.637.638l1.6-.023c0.144-.98.246-2.028,0.349-3.121H385c-0.123.911-.246,1.777-0.349,2.392V505.3Zm15.628-2.164a0.889,0.889,0,0,1,.841-0.615,1.029,1.029,0,0,1,1.006,1.093,21.2,21.2,0,0,1-3.018,6.333,1.265,1.265,0,0,1-.985.592,1.166,1.166,0,0,1-1.109-1.162,1.146,1.146,0,0,1,.267-0.729A24.951,24.951,0,0,0,400.279,503.132Zm1.827-3.463a9.62,9.62,0,0,0,2.443-4.6,0.916,0.916,0,0,1,.882-0.752,1.05,1.05,0,0,1,1.047,1.048c0,0.82-2.073,6.036-3.592,6.036a1.125,1.125,0,0,1-1.068-1.07A0.909,0.909,0,0,1,402.106,499.669Zm3.49,2.1c0.636-.023,1.457-0.046,2.278-0.046,0.986,0,1.971.023,2.649,0.046a2.162,2.162,0,0,1,2.176,2c0.041,0.933.082,2.369,0.082,3.508,0,0.341-.021.66-0.021,0.934a2.176,2.176,0,0,1-2.2,2.209c-0.6.046-1.437,0.069-2.3,0.069-0.965,0-1.95-.023-2.648-0.069a2.074,2.074,0,0,1-2.176-2.164c-0.02-.387-0.02-0.82-0.02-1.276,0-1.093.041-2.323,0.061-3.12A2.089,2.089,0,0,1,405.6,501.765Zm-0.185,5.968c0.041,0.8.513,0.843,2.71,0.843,0.677,0,1.355-.023,1.745-0.045,0.841-.069.9-0.661,0.9-1.846,0-2.8,0-3.121-.862-3.166-0.431-.023-1.129-0.023-1.848-0.023-0.7,0-1.375,0-1.786.023a0.757,0.757,0,0,0-.821.752c-0.021.569-.062,1.64-0.062,2.528C405.39,507.164,405.39,507.483,405.411,507.733Zm16.53-4.784a0.69,0.69,0,0,1,.616.319,7.482,7.482,0,0,1,1.068,2.848,0.961,0.961,0,0,1-.924,1,0.758,0.758,0,0,1-.76-0.774,7.029,7.029,0,0,0-.7-2.3,0.916,0.916,0,0,1-.1-0.365A0.78,0.78,0,0,1,421.941,502.949Zm60.431-1.617c0.842-.023,1.889-0.046,2.853-0.046,0.637,0,1.212.023,1.7,0.046A2.145,2.145,0,0,1,489,503.268c0.02,0.957.061,2.506,0.061,3.805,0,0.524,0,1.025-.02,1.389a2.34,2.34,0,0,1-2.217,2.21c-0.637.045-1.376,0.068-2.115,0.068-0.821,0-1.642-.023-2.3-0.068a2.224,2.224,0,0,1-2.258-2.187c0-.342-0.021-0.729-0.021-1.139,0-1.344.041-2.939,0.082-3.918A2.063,2.063,0,0,1,482.372,501.332Zm4.763,2.6a0.836,0.836,0,0,0-.883-0.911c-0.431-.023-1.068-0.023-1.7-0.023s-1.252,0-1.663.023c-0.924.023-.924,0.683-0.924,1.959h5.194C487.155,504.567,487.135,504.18,487.135,503.929Zm-5.153,4.078c0.02,0.729.226,0.865,2.71,0.865,1.724,0,2.422,0,2.463-.911,0.021-.319.021-0.774,0.021-1.3h-5.235C481.941,507.187,481.961,507.688,481.982,508.007Z" transform="translate(-112 -381)"/>
  <path id="Project" class="cls-8" d="M539.149,612.455a16.432,16.432,0,0,1-2.4,1.447,24.207,24.207,0,0,1-2.4,1.04q-0.306,2.172-.433,3.962t-0.28,3.614q-0.1.9-.179,1.806t-0.076,1.828c0,0.441.016,0.954,0.051,1.538a4.826,4.826,0,0,0,.357,1.607,2.348,2.348,0,0,0,.968,1.134,2.314,2.314,0,0,0,1.835.081,10.659,10.659,0,0,0,1.478-.533,11.015,11.015,0,0,1,1.53-.548,1.666,1.666,0,0,1,1.911.391,3.506,3.506,0,0,1,.586,2.181,3.628,3.628,0,0,1-.637,2.033,7.161,7.161,0,0,1-1.606,1.713,12.469,12.469,0,0,1-2.166,1.334,15.53,15.53,0,0,1-7.9,1.483,4.478,4.478,0,0,1-3.007-1.846,7.928,7.928,0,0,1-1.2-3.845q-0.2-2.387-.2-5.39,0-2.393.153-4.852T526,617.34c-0.477.131-.85,0.243-1.122,0.334s-0.493.161-.663,0.207a4.942,4.942,0,0,1-2.829.065,1.726,1.726,0,0,1-1.2-1.86,2.986,2.986,0,0,1,.688-1.818,8.94,8.94,0,0,1,1.758-1.7,16.657,16.657,0,0,1,2.32-1.452,20.393,20.393,0,0,1,2.37-1.058,28.592,28.592,0,0,1,.2-3.212,17.451,17.451,0,0,1,.739-3.435,10.463,10.463,0,0,1,1.453-2.919,4.2,4.2,0,0,1,2.344-1.662,2.017,2.017,0,0,1,1.453.084,2.576,2.576,0,0,1,1.045.935,4.666,4.666,0,0,1,.612,1.486,7.507,7.507,0,0,1,.2,1.725,15.607,15.607,0,0,1-.153,2.129q-0.153,1.112-.561,2.8,0.867-.339,1.172-0.449t0.561-.18a11.927,11.927,0,0,1,1.81-.344,6.094,6.094,0,0,1,1.733.033,2.634,2.634,0,0,1,1.3.584,1.589,1.589,0,0,1,.509,1.26,2.916,2.916,0,0,1-.739,1.832A9.722,9.722,0,0,1,539.149,612.455Zm-18.924,7.795a2.8,2.8,0,0,1-.051.523,3.2,3.2,0,0,1-.051.548,3.409,3.409,0,0,1-.153.577,6.8,6.8,0,0,1-1.427,2.351,4.778,4.778,0,0,1-2.294,1.419,2,2,0,0,1-2.7-1.242,1.341,1.341,0,0,1-.1-0.558,4.717,4.717,0,0,0-.051-0.673v-1.476a2.278,2.278,0,0,0-.357-1.022,0.752,0.752,0,0,0-.867-0.169,3.117,3.117,0,0,0-1.656,1.55,16.133,16.133,0,0,0-1.377,2.974,26.868,26.868,0,0,0-.943,3.338,13.5,13.5,0,0,0-.356,2.643q0,0.764.1,1.83a9.147,9.147,0,0,0,.407,2,4.179,4.179,0,0,0,.841,1.526,1.289,1.289,0,0,0,1.4.352,3.626,3.626,0,0,0,1.606-.975,18.54,18.54,0,0,0,1.453-1.646q0.662-.793,1.452-1.672a3.762,3.762,0,0,1,1.81-1.159,1.967,1.967,0,0,1,2.013.363,2.5,2.5,0,0,1,.74,1.884,7.457,7.457,0,0,1-.918,3.484,14.62,14.62,0,0,1-2.294,3.226,16.512,16.512,0,0,1-3.058,2.571,11.556,11.556,0,0,1-3.212,1.519,6.866,6.866,0,0,1-4.664-.093,7.046,7.046,0,0,1-3.084-2.639,11.436,11.436,0,0,1-1.229-2.561c-0.135.309-.29,0.622-0.468,0.94a18.747,18.747,0,0,1-2.753,3.708,22.5,22.5,0,0,1-3.542,3.061,11.69,11.69,0,0,1-3.467,1.741,7.821,7.821,0,0,1-4.817-.026,8.188,8.188,0,0,1-3.542-2.462,11.641,11.641,0,0,1-2.167-4.011,15.4,15.4,0,0,1-.739-4.709,25.314,25.314,0,0,1,.714-5.643,25.629,25.629,0,0,1,2.166-5.939,20.33,20.33,0,0,1,3.67-5.081,11.643,11.643,0,0,1,5.276-3.078,9.186,9.186,0,0,1,3.313-.325,6.136,6.136,0,0,1,2.753.9,5.58,5.58,0,0,1,1.886,2.027,6.3,6.3,0,0,1,.714,3.112,11.934,11.934,0,0,1-1.02,4.76,17.346,17.346,0,0,1-2.7,4.356,20.573,20.573,0,0,1-3.874,3.533,16.5,16.5,0,0,1-4.486,2.276,2.052,2.052,0,0,0,1.2,1.809,3.73,3.73,0,0,0,2.37.01,5.548,5.548,0,0,0,1.988-1.055q0.967-.774,1.886-1.664t1.81-1.642a4.8,4.8,0,0,1,1.809-1.006,2.628,2.628,0,0,1,1.156-.065c-0.048-.571-0.095-1.142-0.095-1.7a27.175,27.175,0,0,1,.713-5.82,27.515,27.515,0,0,1,2.192-6.227,20.659,20.659,0,0,1,3.8-5.37,12.091,12.091,0,0,1,5.53-3.25,6.021,6.021,0,0,1,3.441-.08,5.044,5.044,0,0,1,2.4,1.607,7.81,7.81,0,0,1,1.427,2.738,11.239,11.239,0,0,1,.484,3.278v0.509Zm-30.7,10.318a13.807,13.807,0,0,0,1.886-1.206,7.952,7.952,0,0,0,1.529-1.514,2.856,2.856,0,0,0,.637-1.753,2.507,2.507,0,0,0-.357-1.276,0.89,0.89,0,0,0-1.121-.4,4.056,4.056,0,0,0-1.886,1.1,7.225,7.225,0,0,0-1.274,1.826,10.8,10.8,0,0,0-.791,2.126,10.491,10.491,0,0,0-.331,1.974Q488.53,631.1,489.524,630.568ZM477.174,650.4a34.7,34.7,0,0,1-1.5,6.012,17.416,17.416,0,0,1-2.854,5.213q-1.022,1.246-2.4,2.694t-2.931,2.79a28.044,28.044,0,0,1-3.135,2.363,11.024,11.024,0,0,1-3.008,1.412,2.576,2.576,0,0,1-2.421-.226,2.82,2.82,0,0,1-.79-2.252,4.075,4.075,0,0,1,.867-2.681,12.459,12.459,0,0,1,2.141-2.013q1.274-.962,2.778-2.112a13.278,13.278,0,0,0,2.778-2.978,16.837,16.837,0,0,0,2.141-4.584,23.3,23.3,0,0,0,.866-6.88q0-2.6-.1-5.062t-0.306-5.006q-0.1-1.448-.2-2.922t-0.1-2.95a9.3,9.3,0,0,1,1.02-4.072,6.511,6.511,0,0,1,1.3-1.731,4.41,4.41,0,0,1,1.911-1.06,2.159,2.159,0,0,1,2.116.386,5.326,5.326,0,0,1,1.376,2.09,13.111,13.111,0,0,1,.765,3.15q0.229,1.8.331,3.523t0.1,3.2V639q0,2.394-.128,5.355A54.144,54.144,0,0,1,477.174,650.4Zm-1.657-30.544a7.671,7.671,0,0,1-1.325,1,5.491,5.491,0,0,1-1.325.593,2.8,2.8,0,0,1-1.785-.019,1.3,1.3,0,0,1-.764-1.368,2.959,2.959,0,0,1,.382-1.454,4.926,4.926,0,0,1,.969-1.233,6.882,6.882,0,0,1,1.274-.936,5.893,5.893,0,0,1,1.351-.574,3.22,3.22,0,0,1,1.809-.014,1.208,1.208,0,0,1,.841,1.322,2.775,2.775,0,0,1-.407,1.41A5.687,5.687,0,0,1,475.517,619.858Zm-11.126,32.325a16.819,16.819,0,0,1-3.365,4.487,11.24,11.24,0,0,1-4.842,2.705,6.708,6.708,0,0,1-4.537-.128,8,8,0,0,1-3.262-2.616,12.346,12.346,0,0,1-1.988-4.213,18.914,18.914,0,0,1-.663-4.984,27.232,27.232,0,0,1,.663-5.756c0.044-.2.119-0.394,0.168-0.6a5.833,5.833,0,0,1-1.789.914,3.108,3.108,0,0,1-1.224.209q-0.51-.038-1.019-0.1-0.459-.078-0.918-0.13a2.248,2.248,0,0,0-1.019.153,4.87,4.87,0,0,0-1.81,1.057,9.5,9.5,0,0,0-1.427,1.664,11.994,11.994,0,0,0-1.1,2.007,14.111,14.111,0,0,0-.713,2.054,12.255,12.255,0,0,0-.23,1.92q-0.076,1.269-.076,2.694-0.051,1.491-.051,2.813a17.311,17.311,0,0,1-.1,2.115,18.077,18.077,0,0,1-.255,1.979,11.426,11.426,0,0,1-.637,2.237,7.2,7.2,0,0,1-1.147,1.944,3.552,3.552,0,0,1-1.835,1.165,2.007,2.007,0,0,1-1.5-.095,2.744,2.744,0,0,1-1.07-1.055,6.859,6.859,0,0,1-.714-1.764,17.228,17.228,0,0,1-.433-2.171q-0.153-1.181-.23-2.381t-0.1-2.288q-0.025-1.086,0-2.01c0.017-.616.026-1.109,0.026-1.483q-0.051-1.767-.179-3.54t-0.127-3.553q0-1.119.1-2.522a10.629,10.629,0,0,1,.561-2.725,7.476,7.476,0,0,1,1.351-2.382,4.783,4.783,0,0,1,2.472-1.493,1.77,1.77,0,0,1,1.478.153,2.925,2.925,0,0,1,.994,1.1,6.408,6.408,0,0,1,.586,1.569,9.933,9.933,0,0,1,.255,1.61,18.913,18.913,0,0,1,2.753-3.988,8.912,8.912,0,0,1,3.976-2.442,9.349,9.349,0,0,1,2.421-.436,5.678,5.678,0,0,1,2.192.314,3.533,3.533,0,0,1,1.631,1.206,3.242,3.242,0,0,1,.518,1.091c0.094-.2.161-0.418,0.262-0.618a17.938,17.938,0,0,1,3.517-4.835,11.566,11.566,0,0,1,5.1-2.9,6.722,6.722,0,0,1,4.868.216,7.854,7.854,0,0,1,3.237,2.979,13.608,13.608,0,0,1,1.733,4.588,20.049,20.049,0,0,1,.357,5.094,32.944,32.944,0,0,1-.841,5.678A23.512,23.512,0,0,1,464.391,652.183ZM459.6,640.647a13,13,0,0,0-.586-2.359,4.58,4.58,0,0,0-.969-1.668,1.3,1.3,0,0,0-1.35-.392,2.4,2.4,0,0,0-1.351,1.185,9.845,9.845,0,0,0-.969,2.252,18.884,18.884,0,0,0-.586,2.629,15.943,15.943,0,0,0-.2,2.322,15.563,15.563,0,0,0,.23,2.583,12.984,12.984,0,0,0,.637,2.447,5.1,5.1,0,0,0,.994,1.712,1.276,1.276,0,0,0,1.35.418,2.468,2.468,0,0,0,1.4-1.149,8.233,8.233,0,0,0,.943-2.193,16.374,16.374,0,0,0,.51-2.711,25.363,25.363,0,0,0,.153-2.663A15.669,15.669,0,0,0,459.6,640.647Zm-38.64,16.886a25.963,25.963,0,0,1-4.537,4.708,16.872,16.872,0,0,1-5.25,2.944q-0.051.93-.077,2.337t-0.178,2.975q-0.153,1.569-.433,3.173a15.426,15.426,0,0,1-.816,2.973,8.3,8.3,0,0,1-1.376,2.363,4.062,4.062,0,0,1-2.065,1.331,2.365,2.365,0,0,1-2.268-.318,4.382,4.382,0,0,1-1.274-1.915,11.244,11.244,0,0,1-.586-2.613q-0.153-1.41-.2-2.413-0.1-1.447-.128-2.866t-0.025-2.895v-2.468q0-1.808.025-4.13t0.077-4.857q0.05-2.533.153-4.725t0.229-3.753a5.563,5.563,0,0,1,.331-1.873c0.034-.042.136-0.147,0.306-0.313s0.357-.335.561-0.51,0.39-.337.561-0.485,0.288-.249.356-0.3a44.354,44.354,0,0,1,5.149-3.7,21.311,21.311,0,0,1,5.556-2.493,8.87,8.87,0,0,1,4.256-.228,7.192,7.192,0,0,1,3.263,1.6,7.548,7.548,0,0,1,2.064,3.047,11.267,11.267,0,0,1,.714,4.054,15.314,15.314,0,0,1-1.2,5.724A24.926,24.926,0,0,1,420.959,657.533Zm-4.919-9.414a1.4,1.4,0,0,0-1.606-.323,6.7,6.7,0,0,0-1.937.914q-0.969.648-1.784,1.279,0.153,1.741.28,3.385a25.868,25.868,0,0,1,.026,3.454q0.815-.631,1.784-1.432a18.027,18.027,0,0,0,1.784-1.686,10.112,10.112,0,0,0,1.376-1.88,4.14,4.14,0,0,0,.561-2.063A2.637,2.637,0,0,0,416.04,648.119Z" transform="translate(-112 -381)"/>
</svg>
