<svg id="heading-contact" xmlns="http://www.w3.org/2000/svg" width="218.625" height="56.56" viewBox="0 0 218.625 56.56">
  <defs>
    <style>
      .cls-1 {
        fill: #323232;
      }

      .cls-1, .cls-2 {
        fill-rule: evenodd;
      }

      .cls-2 {
        fill: #ff9400;
      }
    </style>
  </defs>
  <path id="text-black" class="cls-1" d="M635.692,5256.88a19.315,19.315,0,0,0-1.973-5.72,12.888,12.888,0,0,0-3.734-4.32,9.489,9.489,0,0,0-5.778-1.71,13.69,13.69,0,0,0-6.446,1.54,19.407,19.407,0,0,0-5.249,4.04,26.986,26.986,0,0,0-4.052,5.79,41.788,41.788,0,0,0-2.853,6.8,47.97,47.97,0,0,0-1.691,7.01,40.2,40.2,0,0,0-.564,6.41,41.873,41.873,0,0,0,.951,8.82,25.669,25.669,0,0,0,3.136,8.02,17.908,17.908,0,0,0,5.707,5.86,15.564,15.564,0,0,0,8.6,2.27,13.628,13.628,0,0,0,4.4-.84,18.2,18.2,0,0,0,4.509-2.3,15.27,15.27,0,0,0,3.487-3.38,6.886,6.886,0,0,0,1.41-4.15,4.468,4.468,0,0,0-1.057-2.9,3.317,3.317,0,0,0-2.678-1.29,11.387,11.387,0,0,0-2.783.35c-0.915.23-1.82,0.5-2.712,0.8s-1.786.57-2.677,0.8a10.534,10.534,0,0,1-2.748.35,4.073,4.073,0,0,1-3.241-1.29,8.4,8.4,0,0,1-1.691-3.13,16.149,16.149,0,0,1-.669-3.87c-0.071-1.35-.106-2.51-0.106-3.49,0-.74.046-1.71,0.141-2.89s0.246-2.45.458-3.77,0.493-2.66.845-4.01a19.781,19.781,0,0,1,1.3-3.63,9.015,9.015,0,0,1,1.831-2.61,3.471,3.471,0,0,1,2.466-1.01,1.618,1.618,0,0,1,1.656.87,6.244,6.244,0,0,1,.458,2.2q0.069,1.32.106,2.82a8.557,8.557,0,0,0,.528,2.82,4.669,4.669,0,0,0,1.691,2.2,6.251,6.251,0,0,0,3.664.87,4.53,4.53,0,0,0,2.748-.83,6.639,6.639,0,0,0,1.832-2.1,9.646,9.646,0,0,0,1.021-2.72,13.128,13.128,0,0,0,.317-2.79A33.15,33.15,0,0,0,635.692,5256.88Zm23.461,41.53a15.554,15.554,0,0,0,4.65-4.88,24.361,24.361,0,0,0,2.783-6.77,39.512,39.512,0,0,0,1.163-7.46,28.816,28.816,0,0,0-.493-7.11,24.116,24.116,0,0,0-2.4-6.94,16.2,16.2,0,0,0-4.474-5.3,10.745,10.745,0,0,0-6.728-2.13,12.044,12.044,0,0,0-7.046,2.06,16.559,16.559,0,0,0-4.861,5.3,25.546,25.546,0,0,0-2.819,7.18,33.8,33.8,0,0,0-.915,7.64,28.668,28.668,0,0,0,.915,7.08,22.96,22.96,0,0,0,2.748,6.52,16.565,16.565,0,0,0,4.509,4.81,10.66,10.66,0,0,0,6.271,1.88A11.8,11.8,0,0,0,659.153,5298.41Zm-4.121-28.59a8.832,8.832,0,0,1,1.338,2.65,21.356,21.356,0,0,1,.811,3.45,22.67,22.67,0,0,1,.281,3.38,32.8,32.8,0,0,1-.211,3.59,18.9,18.9,0,0,1-.7,3.52,8.2,8.2,0,0,1-1.3,2.65,2.392,2.392,0,0,1-1.938,1.05,2.319,2.319,0,0,1-1.867-1.08,9.874,9.874,0,0,1-1.373-2.72,21.575,21.575,0,0,1-.881-3.59,22.633,22.633,0,0,1-.317-3.63,19.97,19.97,0,0,1,.282-3.1,21.4,21.4,0,0,1,.81-3.38,9.776,9.776,0,0,1,1.338-2.72,2.3,2.3,0,0,1,1.868-1.12A2.336,2.336,0,0,1,655.032,5269.82Zm39.6,28.87a13.773,13.773,0,0,0,2.5-3.98,37.442,37.442,0,0,0,1.832-5.4q0.774-2.97,1.233-5.79t0.669-5.16c0.141-1.56.212-2.73,0.212-3.52,0-1.58-.071-3.35-0.212-5.3a19.53,19.53,0,0,0-1.162-5.47,10.158,10.158,0,0,0-2.959-4.26,8.379,8.379,0,0,0-5.6-1.71,12.412,12.412,0,0,0-3.382.42,11.477,11.477,0,0,0-4.826,2.72,13.945,13.945,0,0,0-1.656,1.88c-0.14-.51-0.341-1.11-0.6-1.81a9.393,9.393,0,0,0-.987-1.95,6.655,6.655,0,0,0-1.374-1.54,2.763,2.763,0,0,0-1.761-.62,3.909,3.909,0,0,0-3.312,1.46,9.237,9.237,0,0,0-1.62,3.52,19.362,19.362,0,0,0-.528,4.22c-0.025,1.44-.036,2.63-0.036,3.56q0,2.58.106,5.16c0.071,1.72.106,3.46,0.106,5.23v3.27c0,0.56-.012,1.32-0.035,2.27s0,2,.07,3.14,0.187,2.3.352,3.49a13.893,13.893,0,0,0,.81,3.2,6.593,6.593,0,0,0,1.48,2.34,3.186,3.186,0,0,0,2.325.91,4.136,4.136,0,0,0,2.184-.56,5.765,5.765,0,0,0,1.585-1.43,7.686,7.686,0,0,0,1.093-2.02,13.539,13.539,0,0,0,.634-2.41,23.208,23.208,0,0,0,.422-2.58q0.141-1.32.212-2.58v-4.04q0-1.605-.035-3.18c-0.025-1.04-.036-2.08-0.036-3.1a6.442,6.442,0,0,1,.458-1.92,20.333,20.333,0,0,1,1.128-2.58,15.62,15.62,0,0,1,1.444-2.3,2.059,2.059,0,0,1,1.409-1.01,2.025,2.025,0,0,1,1.48.56,3.2,3.2,0,0,1,.81,1.43,9.134,9.134,0,0,1,.317,1.85c0.046,0.65.07,1.25,0.07,1.81a35.728,35.728,0,0,1-.246,4.18c-0.165,1.4-.353,2.79-0.564,4.19s-0.4,2.79-.564,4.18a35.512,35.512,0,0,0-.246,4.18c0,0.52.035,1.25,0.106,2.2a16.163,16.163,0,0,0,.458,2.82,8.139,8.139,0,0,0,1.056,2.48,2.168,2.168,0,0,0,1.9,1.08A4.4,4.4,0,0,0,694.628,5298.69Zm29.944,1.74a12.544,12.544,0,0,0,2.994-1.01,6.572,6.572,0,0,0,2.219-1.74,3.912,3.912,0,0,0,.881-2.55,5.843,5.843,0,0,0-.81-3.21,2.92,2.92,0,0,0-2.642-1.25,13.694,13.694,0,0,0-2.114.17,12.174,12.174,0,0,1-2.043.18,3.7,3.7,0,0,1-2.537-.81,4.722,4.722,0,0,1-1.338-1.91,7.88,7.88,0,0,1-.493-2.34q-0.072-1.215-.071-2.13c0-.83.035-1.66,0.106-2.47s0.152-1.62.246-2.41c0.141-1.62.27-3.24,0.388-4.84s0.317-3.36.6-5.27a27.514,27.514,0,0,0,3.311-.52,17.361,17.361,0,0,0,3.312-1.08,9,9,0,0,0,2.571-1.68,3,3,0,0,0,1.022-2.23,2.791,2.791,0,0,0-.705-1.91,5.018,5.018,0,0,0-1.8-1.29,9.407,9.407,0,0,0-2.4-.7,15.745,15.745,0,0,0-2.5-.21c-0.236,0-.493.01-0.775,0.03s-0.822.09-1.621,0.18a33.76,33.76,0,0,0,.775-3.63,19.938,19.938,0,0,0,.212-2.86,11.2,11.2,0,0,0-.282-2.44,8.431,8.431,0,0,0-.845-2.26,5.243,5.243,0,0,0-1.445-1.68,3.264,3.264,0,0,0-2.008-.66,4.216,4.216,0,0,0-3.241,1.39,10.337,10.337,0,0,0-2.008,3.46,19.914,19.914,0,0,0-1.021,4.42,36.9,36.9,0,0,0-.282,4.33,21.958,21.958,0,0,0-3.276.56,16.444,16.444,0,0,0-3.206,1.11,8.373,8.373,0,0,0-2.431,1.67,3.14,3.14,0,0,0-.951,2.24,3.24,3.24,0,0,0,1.656,2.99,7.468,7.468,0,0,0,3.91.98q0.351,0,.916-0.03c0.375-.03.892-0.04,1.55-0.04q-0.423,3.765-.634,7.08c-0.141,2.21-.212,4.4-0.212,6.59q0,4.11.282,7.46a13.545,13.545,0,0,0,1.656,5.72,9.013,9.013,0,0,0,4.157,3.66,18.948,18.948,0,0,0,7.785,1.29A15.425,15.425,0,0,0,724.572,5300.43Zm67.884-29.64v-0.69a17.227,17.227,0,0,0-.67-4.68,14.64,14.64,0,0,0-1.972-4.28,10.272,10.272,0,0,0-3.312-3.11,9.185,9.185,0,0,0-4.755-1.18,12.5,12.5,0,0,0-7.645,2.37,19.019,19.019,0,0,0-5.249,5.93,28.718,28.718,0,0,0-3.03,7.7,33.5,33.5,0,0,0-.986,7.71,32.141,32.141,0,0,0,.705,6.48,21.807,21.807,0,0,0,2.325,6.31,14.506,14.506,0,0,0,4.262,4.78,10.857,10.857,0,0,0,6.447,1.88,12.663,12.663,0,0,0,4.439-.87,15.618,15.618,0,0,0,4.227-2.37,13.6,13.6,0,0,0,3.171-3.56,8.272,8.272,0,0,0,1.268-4.43,4.387,4.387,0,0,0-1.022-2.85,3.392,3.392,0,0,0-2.783-1.26,3.777,3.777,0,0,0-2.5.91q-1.094.9-2.008,1.74a17.055,17.055,0,0,1-2.008,1.71,3.717,3.717,0,0,1-2.219.73,2.3,2.3,0,0,1-1.938-1.01,7.9,7.9,0,0,1-1.162-2.41,14.566,14.566,0,0,1-.564-2.89c-0.1-1-.141-1.85-0.141-2.54a16.427,16.427,0,0,1,.493-3.49,29.051,29.051,0,0,1,1.3-4.22,15.915,15.915,0,0,1,1.9-3.56,2.972,2.972,0,0,1,2.29-1.5,1.313,1.313,0,0,1,1.2.56,4,4,0,0,1,.493,1.54v2.02a6.678,6.678,0,0,1,.07.94,2.1,2.1,0,0,0,.141.8,3.7,3.7,0,0,0,3.734,2.72,4.9,4.9,0,0,0,3.171-1.08,6.427,6.427,0,0,0,1.973-2.68,3.979,3.979,0,0,0,.211-0.74,4.091,4.091,0,0,0,.07-0.73A3.463,3.463,0,0,0,792.456,5270.79Zm23.426,29.64a12.552,12.552,0,0,0,3-1.01,6.582,6.582,0,0,0,2.219-1.74,3.912,3.912,0,0,0,.881-2.55,5.843,5.843,0,0,0-.81-3.21,2.922,2.922,0,0,0-2.643-1.25,13.682,13.682,0,0,0-2.113.17,12.174,12.174,0,0,1-2.043.18,3.7,3.7,0,0,1-2.537-.81,4.724,4.724,0,0,1-1.339-1.91,7.944,7.944,0,0,1-.493-2.34q-0.071-1.215-.07-2.13c0-.83.035-1.66,0.106-2.47s0.151-1.62.246-2.41c0.141-1.62.27-3.24,0.388-4.84s0.317-3.36.6-5.27a27.545,27.545,0,0,0,3.311-.52,17.351,17.351,0,0,0,3.311-1.08,8.995,8.995,0,0,0,2.572-1.68,3,3,0,0,0,1.022-2.23,2.791,2.791,0,0,0-.705-1.91,5.013,5.013,0,0,0-1.8-1.29,9.4,9.4,0,0,0-2.395-.7,15.745,15.745,0,0,0-2.5-.21c-0.236,0-.493.01-0.775,0.03s-0.823.09-1.621,0.18a34.007,34.007,0,0,0,.775-3.63,19.938,19.938,0,0,0,.212-2.86,11.2,11.2,0,0,0-.282-2.44,8.4,8.4,0,0,0-.846-2.26,5.227,5.227,0,0,0-1.444-1.68,3.264,3.264,0,0,0-2.008-.66,4.213,4.213,0,0,0-3.241,1.39,10.337,10.337,0,0,0-2.008,3.46,19.97,19.97,0,0,0-1.022,4.42,37.1,37.1,0,0,0-.281,4.33,21.992,21.992,0,0,0-3.277.56,16.457,16.457,0,0,0-3.205,1.11,8.373,8.373,0,0,0-2.431,1.67,3.14,3.14,0,0,0-.951,2.24,3.24,3.24,0,0,0,1.655,2.99,7.474,7.474,0,0,0,3.911.98q0.351,0,.916-0.03c0.375-.03.891-0.04,1.55-0.04q-0.423,3.765-.634,7.08c-0.141,2.21-.212,4.4-0.212,6.59q0,4.11.282,7.46a13.545,13.545,0,0,0,1.656,5.72,9.013,9.013,0,0,0,4.157,3.66,18.945,18.945,0,0,0,7.785,1.29A15.415,15.415,0,0,0,815.882,5300.43Z" transform="translate(-603.344 -5245.13)"/>
  <path id="text-orange" class="cls-2" d="M761.878,5282.54q-0.143-3.03-.564-6.06a49.4,49.4,0,0,0-1.2-5.93,29.92,29.92,0,0,0-2.044-5.47,10.954,10.954,0,0,0-2.219-3.18,14.351,14.351,0,0,0-3.065-2.3,13.861,13.861,0,0,0-3.593-1.39,16.5,16.5,0,0,0-3.805-.46,15.568,15.568,0,0,0-4.474.74,18.455,18.455,0,0,0-4.509,2.02,12.21,12.21,0,0,0-3.452,3.17,6.947,6.947,0,0,0-1.374,4.19,3.213,3.213,0,0,0,1.092,2.51,3.823,3.823,0,0,0,2.642.97,5.432,5.432,0,0,0,2.537-.59c0.75-.4,1.5-0.84,2.254-1.33a20.029,20.029,0,0,1,2.4-1.32,7.18,7.18,0,0,1,3.029-.59,4.335,4.335,0,0,1,3.382,1.32,5.025,5.025,0,0,1,1.2,3.49,5.263,5.263,0,0,1-.035.63,4.6,4.6,0,0,0-.036.62,38.439,38.439,0,0,0-6.094,1.4,30.444,30.444,0,0,0-6.447,2.82,19.253,19.253,0,0,0-5.108,4.29,8.908,8.908,0,0,0-2.078,5.86,9.4,9.4,0,0,0,.845,3.8,12.477,12.477,0,0,0,2.255,3.45,12.112,12.112,0,0,0,3.241,2.51,8.133,8.133,0,0,0,3.875.98,15.917,15.917,0,0,0,5.812-1.12,17.385,17.385,0,0,0,5.108-3.07,6.007,6.007,0,0,0,1.339,4.19,4.972,4.972,0,0,0,4.016,1.67,3.521,3.521,0,0,0,2.959-1.39,9.238,9.238,0,0,0,1.55-3.32,19.87,19.87,0,0,0,.6-3.94c0.071-1.34.106-2.44,0.106-3.27C762.019,5286.53,761.972,5284.57,761.878,5282.54Zm-14.232,5.23a7.961,7.961,0,0,1-3.312.81,3.635,3.635,0,0,1-1.62-.35,1.352,1.352,0,0,1-.705-1.33,2.99,2.99,0,0,1,.881-2.02,10.446,10.446,0,0,1,2.149-1.78,12,12,0,0,1,2.642-1.25,7.4,7.4,0,0,1,2.29-.46,1.389,1.389,0,0,1,.282.04,1.338,1.338,0,0,0,.282.03l0.211,4.74A34.149,34.149,0,0,1,747.646,5287.77Z" transform="translate(-603.344 -5245.13)"/>
</svg>
