<svg id="heading-news" xmlns="http://www.w3.org/2000/svg" width="150.531" height="53.88" viewBox="0 0 150.531 53.88">
  <defs>
    <style>
      .cls-1 {
        fill: #323232;
      }

      .cls-1, .cls-2 {
        fill-rule: evenodd;
      }

      .cls-2 {
        fill: #ff9400;
      }
    </style>
  </defs>
  <path id="text-black" class="cls-1" d="M698.689,2387.32c-0.048-1.4-.165-2.92-0.352-4.57s-0.447-3.31-.774-5.02a24.6,24.6,0,0,0-1.337-4.64,10.744,10.744,0,0,0-2.111-3.41,4.035,4.035,0,0,0-3.026-1.34,3.347,3.347,0,0,0-2.5,1.05,8.417,8.417,0,0,0-1.689,2.71,17.881,17.881,0,0,0-1.02,3.69q-0.354,2.04-.528,4.05c-0.118,1.33-.188,2.59-0.211,3.76s-0.035,2.08-.035,2.74c0,1.5.011,3.02,0.035,4.57s0.058,3.09.105,4.64v2.36c0,0.21.011,0.44,0.036,0.7s0.035,0.69.035,1.3c-0.282-.7-0.517-1.34-0.7-1.9-0.188-.51-0.352-0.98-0.492-1.4s-0.236-.68-0.282-0.78q-1.056-3.375-2.181-6.64t-2.322-6.58c-0.423-1.12-.939-2.53-1.549-4.22a30.928,30.928,0,0,0-2.251-4.85,18.484,18.484,0,0,0-3.061-4,5.428,5.428,0,0,0-3.906-1.69,4.978,4.978,0,0,0-3.94,2.07,18.576,18.576,0,0,0-2.885,5.35,44.741,44.741,0,0,0-1.936,7.27c-0.492,2.67-.891,5.28-1.2,7.81s-0.5,4.84-.6,6.92-0.141,3.67-.141,4.75c0,0.7.023,1.64,0.071,2.81s0.151,2.45.316,3.83,0.4,2.79.7,4.22a19.188,19.188,0,0,0,1.232,3.87,8.848,8.848,0,0,0,1.9,2.81,3.783,3.783,0,0,0,2.745,1.09h0.211q0.633-.135,1.161-0.21a3.29,3.29,0,0,0,1.161-.42,4.467,4.467,0,0,0,1.794-1.97,12.761,12.761,0,0,0,1.021-2.88,28.315,28.315,0,0,0,.527-3.13c0.117-1.06.223-1.98,0.317-2.78a45.945,45.945,0,0,0,.458-5.94c0.023-1.99.035-4,.035-6.01v-1.97q1.335,3.585,2.814,7.07t2.956,7.06c0.468,1.13,1.055,2.37,1.759,3.73a23.92,23.92,0,0,0,2.463,3.83,14.438,14.438,0,0,0,3.166,3.02,6.619,6.619,0,0,0,3.871,1.24,4.98,4.98,0,0,0,3.87-1.87,16.1,16.1,0,0,0,2.744-4.74,38.364,38.364,0,0,0,1.83-6.44q0.7-3.54,1.09-6.96t0.528-6.26c0.094-1.89.141-3.36,0.141-4.39C698.759,2389.83,698.735,2388.73,698.689,2387.32Zm75.293,32.24a27.555,27.555,0,0,0,3.1-5.52,63.826,63.826,0,0,0,2.709-7.56c0.821-2.78,1.536-5.55,2.146-8.29s1.091-5.29,1.443-7.63a39.828,39.828,0,0,0,.528-5.63,5.741,5.741,0,0,0-.95-3.34,3.319,3.319,0,0,0-2.92-1.37,5.2,5.2,0,0,0-3.343,1.16,9.408,9.408,0,0,0-2.428,3.1,22.821,22.821,0,0,0-1.653,4.39,43.823,43.823,0,0,0-1.056,5.06c-0.258,1.74-.434,3.46-0.527,5.17s-0.165,3.25-.212,4.61c-0.281-1.13-.633-2.47-1.055-4.05s-0.915-3.18-1.478-4.85-1.173-3.3-1.829-4.92a32.116,32.116,0,0,0-2.111-4.32,15.648,15.648,0,0,0-2.323-3.1,3.524,3.524,0,0,0-2.462-1.19h-0.071a2.894,2.894,0,0,0-2.04,1.19,18.986,18.986,0,0,0-2.147,3.1q-1.092,1.89-2.181,4.29-1.092,2.385-2.006,4.81t-1.688,4.57c-0.517,1.43-.915,2.64-1.2,3.62-0.047-1.12-.105-2.47-0.176-4.04s-0.2-3.19-.387-4.85-0.446-3.31-.774-4.92a25.3,25.3,0,0,0-1.266-4.36,9.536,9.536,0,0,0-1.935-3.13,3.733,3.733,0,0,0-2.78-1.2,4.2,4.2,0,0,0-4.257,2.75,10.3,10.3,0,0,0-.7,2.88,31.246,31.246,0,0,0-.176,3.37c0,1.27.046,2.93,0.141,5s0.257,4.28.493,6.68,0.574,4.78,1.02,7.17a49,49,0,0,0,1.654,6.54,15.791,15.791,0,0,0,2.427,4.78,4.192,4.192,0,0,0,3.343,1.83,4.946,4.946,0,0,0,2.92-1.13,17.765,17.765,0,0,0,3.026-2.95,36.1,36.1,0,0,0,2.92-4.12q1.407-2.28,2.639-4.53t2.181-4.29q0.951-2.04,1.513-3.45,0.423,2.325,1.3,5.84a53.368,53.368,0,0,0,2.217,6.86,25.172,25.172,0,0,0,3.131,5.73,5.081,5.081,0,0,0,4.046,2.39C771.824,2421.71,772.9,2420.99,773.982,2419.56Zm33.882-39.65a4.109,4.109,0,0,0-1.372-1.41,5.668,5.668,0,0,0-1.935-.74,11.713,11.713,0,0,0-2.217-.21,14.7,14.7,0,0,0-5.629,1.09,15.783,15.783,0,0,0-4.75,2.99,14.386,14.386,0,0,0-3.307,4.46,12.784,12.784,0,0,0-1.232,5.59,8.938,8.938,0,0,0,1.161,4.5,31.509,31.509,0,0,0,2.569,3.84c0.938,1.19,1.794,2.32,2.568,3.37a5.211,5.211,0,0,1,1.161,3.06,3.406,3.406,0,0,1-.774,2.39,5.832,5.832,0,0,1-1.97,1.37,16.253,16.253,0,0,1-2.569.88,11.527,11.527,0,0,0-2.568.98,5.645,5.645,0,0,0-1.97,1.73,5.194,5.194,0,0,0-.774,3.06,3.807,3.807,0,0,0,.633,2.28,4.428,4.428,0,0,0,1.583,1.37,6.8,6.8,0,0,0,2.146.67,16.064,16.064,0,0,0,2.393.18,14.113,14.113,0,0,0,5.84-1.34,19.242,19.242,0,0,0,5.313-3.55,19.58,19.58,0,0,0,3.87-5.06,12.258,12.258,0,0,0,1.513-5.8,8.849,8.849,0,0,0-.6-3.45,8.615,8.615,0,0,0-1.478-2.39,12.545,12.545,0,0,0-1.935-1.76c-0.7-.51-1.349-1.02-1.935-1.51a7.442,7.442,0,0,1-1.477-1.65,3.893,3.893,0,0,1-.6-2.18,4.506,4.506,0,0,1,1.373-3.59,15.6,15.6,0,0,1,3.061-2.07,25.355,25.355,0,0,0,3.061-1.87,3.458,3.458,0,0,0,1.372-3.02A4.21,4.21,0,0,0,807.864,2379.91Z" transform="translate(-657.875 -2367.84)"/>
  <path id="text-orange" class="cls-2" d="M731.761,2405.89a3.918,3.918,0,0,0-2.533-.92,4.983,4.983,0,0,0-2.5.71c-0.821.46-1.654,0.99-2.5,1.58a26.135,26.135,0,0,1-2.6,1.58,6.047,6.047,0,0,1-6.016-.21,3.979,3.979,0,0,1-1.654-2.95,17.635,17.635,0,0,0,6.193-1.45,18.877,18.877,0,0,0,5.348-3.41,16.336,16.336,0,0,0,3.729-4.99,13.9,13.9,0,0,0,1.408-6.19,10.391,10.391,0,0,0-.986-4.57,11.352,11.352,0,0,0-6.4-5.8,13.272,13.272,0,0,0-4.574-.81,12.024,12.024,0,0,0-7.283,2.25,18.97,18.97,0,0,0-5.067,5.63,26.935,26.935,0,0,0-2.99,7.38,31.531,31.531,0,0,0-.985,7.53,24.011,24.011,0,0,0,1.02,6.78,22.27,22.27,0,0,0,2.991,6.36,16.7,16.7,0,0,0,4.89,4.75,12.109,12.109,0,0,0,6.65,1.86,12.439,12.439,0,0,0,4.785-1.09,20.741,20.741,0,0,0,4.891-2.88,17.153,17.153,0,0,0,3.8-4.08,8.358,8.358,0,0,0,1.513-4.67A2.926,2.926,0,0,0,731.761,2405.89Zm-11.153-12.66a7.384,7.384,0,0,1-2.111,1.51,13.38,13.38,0,0,1-2.6.95c-0.914.24-1.7,0.42-2.357,0.56a12.644,12.644,0,0,1,.458-2.6,11.4,11.4,0,0,1,1.09-2.63,6.783,6.783,0,0,1,1.759-2.04,4.152,4.152,0,0,1,2.6-.81,1.633,1.633,0,0,1,1.548.98,4.259,4.259,0,0,1,.493,1.9A3.045,3.045,0,0,1,720.608,2393.23Z" transform="translate(-657.875 -2367.84)"/>
</svg>
