<svg id="heading-about" xmlns="http://www.w3.org/2000/svg" width="367.812" height="82.719" viewBox="0 0 367.812 82.719">
  <defs>
    <style>
      .cls-1 {
        fill: #323232;
      }

      .cls-1, .cls-2 {
        fill-rule: evenodd;
      }

      .cls-2 {
        fill: #ff9400;
      }
    </style>
  </defs>
  <path id="text-black" class="cls-1" d="M565.484,219.347a36.553,36.553,0,0,1-4.463,2.713,22.789,22.789,0,0,0-4.462,3.02,6.551,6.551,0,0,0-2,5.221,5.651,5.651,0,0,0,.872,3.173,10.914,10.914,0,0,0,2.155,2.406q1.281,1.076,2.821,2.2a18.333,18.333,0,0,1,2.821,2.56,12.587,12.587,0,0,1,2.155,3.48,12.836,12.836,0,0,1,.872,5.017,17.8,17.8,0,0,1-2.206,8.445,28.4,28.4,0,0,1-13.388,12.541,20.594,20.594,0,0,1-8.516,1.945,24.069,24.069,0,0,1-3.488-.256,9.939,9.939,0,0,1-3.129-.972,6.472,6.472,0,0,1-2.308-2,5.546,5.546,0,0,1-.923-3.327,7.6,7.6,0,0,1,1.128-4.453,8.14,8.14,0,0,1,2.873-2.508,17.055,17.055,0,0,1,3.744-1.433,24.115,24.115,0,0,0,3.745-1.28,8.48,8.48,0,0,0,2.872-2,4.961,4.961,0,0,0,1.129-3.481,7.572,7.572,0,0,0-1.693-4.453q-1.692-2.3-3.744-4.914a45.251,45.251,0,0,1-3.745-5.579,12.989,12.989,0,0,1-1.693-6.552,18.537,18.537,0,0,1,1.8-8.139,21.062,21.062,0,0,1,4.821-6.5,23.089,23.089,0,0,1,6.925-4.35,21.562,21.562,0,0,1,8.208-1.587,16.992,16.992,0,0,1,3.231.307,8.235,8.235,0,0,1,2.822,1.075,6.057,6.057,0,0,1,2,2.047,6.175,6.175,0,0,1,.77,3.225A5.049,5.049,0,0,1,565.484,219.347Zm-36.677,33.271a40.444,40.444,0,0,1-2.821,7.934,24.19,24.19,0,0,1-4.565,6.552,20.188,20.188,0,0,1-6.669,4.453,23.466,23.466,0,0,1-9.13,1.638,24.615,24.615,0,0,1-13.389-3.583,31.893,31.893,0,0,1-9.489-9.162,40.646,40.646,0,0,1-5.643-12.49,52.774,52.774,0,0,1-1.847-13.667v-1.33a5.694,5.694,0,0,1,.1-1.126q0.1-2.151.359-5.836t0.872-7.882q0.615-4.2,1.59-8.6a39.45,39.45,0,0,1,2.565-7.882,19.365,19.365,0,0,1,3.847-5.733,7.3,7.3,0,0,1,5.335-2.252,5.606,5.606,0,0,1,3.8,1.33,10.331,10.331,0,0,1,2.513,3.327,16.372,16.372,0,0,1,1.385,4.2,22.25,22.25,0,0,1,.411,4.043,28.429,28.429,0,0,1-.564,5.58q-0.566,2.817-1.078,5.579-0.822,4.4-1.333,8.8a77.567,77.567,0,0,0-.513,9.009q0,2.356.256,5.733a27.278,27.278,0,0,0,1.283,6.5A15.347,15.347,0,0,0,499,253.079a7.136,7.136,0,0,0,10.26.051,13.836,13.836,0,0,0,2.821-5.119,28.437,28.437,0,0,0,1.18-6.244q0.255-3.276.256-5.631a79.19,79.19,0,0,0-1.128-13.359,128.346,128.346,0,0,0-2.975-13.155q-0.514-1.74-.872-3.481a17.059,17.059,0,0,1-.36-3.481,7.877,7.877,0,0,1,1.693-5.016,5.725,5.725,0,0,1,4.771-2.15,6.991,6.991,0,0,1,4.77,2,19.422,19.422,0,0,1,3.95,5.221,42.521,42.521,0,0,1,3.027,7.217q1.281,3.992,2.2,7.934a75.18,75.18,0,0,1,1.385,7.524q0.462,3.585.565,5.835,0.1,1.024.1,2v2.1q0,4.2-.41,8.651A59.473,59.473,0,0,1,528.807,252.618Zm-96.641,3.993a6.963,6.963,0,0,0,1.949,2.815,5.385,5.385,0,0,0,3.693,1.177,18.086,18.086,0,0,0,2.975-.256,18.912,18.912,0,0,1,3.078-.256,4.224,4.224,0,0,1,3.847,1.843,8.6,8.6,0,0,1,1.18,4.709,5.769,5.769,0,0,1-1.282,3.737,9.632,9.632,0,0,1-3.232,2.559,18.31,18.31,0,0,1-4.36,1.485,22.1,22.1,0,0,1-4.565.511q-7.286,0-11.337-1.893a13.166,13.166,0,0,1-6.053-5.375,20.005,20.005,0,0,1-2.411-8.395q-0.411-4.914-.41-10.953,0-4.812.308-9.675t0.923-10.391c-0.959,0-1.71.018-2.257,0.052s-0.992.051-1.334,0.051a10.924,10.924,0,0,1-5.693-1.433,4.77,4.77,0,0,1-2.411-4.4,4.582,4.582,0,0,1,1.385-3.276,12.062,12.062,0,0,1,3.539-2.457,24.231,24.231,0,0,1,4.668-1.638,32.5,32.5,0,0,1,4.77-.819,54.529,54.529,0,0,1,.411-6.347,29.552,29.552,0,0,1,1.487-6.5,15.008,15.008,0,0,1,2.924-5.067,6.072,6.072,0,0,1,4.72-2.048,4.716,4.716,0,0,1,2.923.973,7.773,7.773,0,0,1,2.1,2.457,12.463,12.463,0,0,1,1.231,3.327,16.558,16.558,0,0,1,.41,3.583,29.614,29.614,0,0,1-.308,4.2,50.8,50.8,0,0,1-1.128,5.323q1.743-.2,2.359-0.256c0.411-.033.786-0.051,1.129-0.051a22.911,22.911,0,0,1,3.642.307,13.884,13.884,0,0,1,3.488,1.024,7.505,7.505,0,0,1,2.616,1.894,4.148,4.148,0,0,1,1.026,2.815,4.435,4.435,0,0,1-1.488,3.276,13.147,13.147,0,0,1-3.744,2.457,24.1,24.1,0,0,1-4.822,1.587,38.825,38.825,0,0,1-4.822.768q-0.615,4.2-.872,7.729t-0.564,7.115q-0.207,1.742-.359,3.532t-0.154,3.634q0,1.332.1,3.122A11.5,11.5,0,0,0,432.166,256.611Zm-78.74-2.252a35.832,35.832,0,0,1-4.052,9.93,22.693,22.693,0,0,1-6.771,7.166,17.041,17.041,0,0,1-9.746,2.764,15.38,15.38,0,0,1-9.131-2.764,24.114,24.114,0,0,1-6.566-7.064,33.634,33.634,0,0,1-4-9.572,42.2,42.2,0,0,1-1.334-10.391,49.788,49.788,0,0,1,1.334-11.209,37.616,37.616,0,0,1,4.1-10.545,24.248,24.248,0,0,1,7.078-7.78,17.429,17.429,0,0,1,10.26-3.02A15.582,15.582,0,0,1,344.4,215a23.658,23.658,0,0,1,6.515,7.781,35.569,35.569,0,0,1,3.488,10.186,42.681,42.681,0,0,1,.718,10.442A58.611,58.611,0,0,1,353.426,254.359Zm-13.7-15.919a31.535,31.535,0,0,0-1.18-5.068,12.966,12.966,0,0,0-1.949-3.89,3.4,3.4,0,0,0-2.719-1.536,3.35,3.35,0,0,0-2.718,1.638,14.481,14.481,0,0,0-1.949,3.993,31.779,31.779,0,0,0-1.18,4.965,29.806,29.806,0,0,0-.411,4.556,33.591,33.591,0,0,0,.462,5.323,32.091,32.091,0,0,0,1.282,5.272,14.508,14.508,0,0,0,2,3.993,3.365,3.365,0,0,0,2.719,1.586,3.476,3.476,0,0,0,2.821-1.535,12.19,12.19,0,0,0,1.9-3.89,28.283,28.283,0,0,0,1.026-5.17,48.7,48.7,0,0,0,.308-5.272A33.506,33.506,0,0,0,339.73,238.44ZM305.208,251.8a49.484,49.484,0,0,1-2.565,7.576,29.283,29.283,0,0,1-3.9,6.6,18.639,18.639,0,0,1-5.335,4.658,13.861,13.861,0,0,1-7.028,1.74,15.249,15.249,0,0,1-7.643-1.945,18.587,18.587,0,0,1-5.9-5.323,8.342,8.342,0,0,1-2.257,4.862,6.437,6.437,0,0,1-4.924,2.1,3.457,3.457,0,0,1-2.924-1.74,14.517,14.517,0,0,1-1.9-4.454,40.7,40.7,0,0,1-1.077-5.988q-0.361-3.276-.462-6.347t-0.1-5.529v-3.48q0-3.48.052-6.962t0.154-7.063q0-1.74-.052-5.221t0.052-7.729q0.1-4.248.461-8.7a50.054,50.054,0,0,1,1.283-8.139,18.288,18.288,0,0,1,2.564-6.04,5.221,5.221,0,0,1,4.207-2.457,4.76,4.76,0,0,1,3.488,1.434,11.509,11.509,0,0,1,2.411,3.787,27.5,27.5,0,0,1,1.539,5.273,57.326,57.326,0,0,1,.82,5.835q0.255,2.917.308,5.528t0.051,4.248q0,0.307-.051,1.382t-0.051,2.3v3.276A14.749,14.749,0,0,1,279.1,221.5a22.517,22.517,0,0,1,3.9-3.276,23.723,23.723,0,0,1,4.514-2.355,12.4,12.4,0,0,1,4.514-.921,11.688,11.688,0,0,1,7.233,2.2,16.166,16.166,0,0,1,4.668,5.579,26.117,26.117,0,0,1,2.462,7.32,41.677,41.677,0,0,1,.718,7.422,55.17,55.17,0,0,1-.462,6.7A63.459,63.459,0,0,1,305.208,251.8Zm-13.337-13.922a8.556,8.556,0,0,0-.718-2.662,5.814,5.814,0,0,0-1.539-2.048,3.783,3.783,0,0,0-2.514-.819,7.8,7.8,0,0,0-3.231.717,14.669,14.669,0,0,0-3.027,1.843,25.925,25.925,0,0,0-2.667,2.405,27.424,27.424,0,0,0-2.154,2.509L275,248.933a12.582,12.582,0,0,0,4,3.736,10.344,10.344,0,0,0,5.334,1.382,5.176,5.176,0,0,0,3.745-1.433,10.345,10.345,0,0,0,2.36-3.532,19.15,19.15,0,0,0,1.231-4.453,27.691,27.691,0,0,0,.359-4.095A24.929,24.929,0,0,0,291.871,237.877Zm-41.7,28.613a13.071,13.071,0,0,1-2.77,4.4,6.155,6.155,0,0,1-4.616,1.791,6.446,6.446,0,0,1-5.694-2.764,18.26,18.26,0,0,1-2.719-6.6,45.688,45.688,0,0,1-.974-7.831q-0.155-3.993-.257-6.347-7.386,1.227-14.568,2.149-0.207,2.357-.872,5.836a32.474,32.474,0,0,1-2.052,6.7,19.084,19.084,0,0,1-3.591,5.579,7.1,7.1,0,0,1-5.386,2.355,4.588,4.588,0,0,1-3.847-1.792,12.66,12.66,0,0,1-2.1-4.248,22.733,22.733,0,0,1-.872-5.068q-0.155-2.61-.154-4.35a71.731,71.731,0,0,1,.923-11.517q0.924-5.682,2.155-11.313,0.615-2.967,1.641-6.961t2.514-8.241a80.271,80.271,0,0,1,3.488-8.394,40.675,40.675,0,0,1,4.565-7.422,22.615,22.615,0,0,1,5.848-5.324,13.5,13.5,0,0,1,7.284-2.047,12.818,12.818,0,0,1,6.771,1.74,17.869,17.869,0,0,1,5.027,4.607,27.776,27.776,0,0,1,3.591,6.5,64.368,64.368,0,0,1,2.411,7.37q0.974,3.738,1.641,7.32t1.18,6.347q1.332,6.656,2.257,13.462a101.527,101.527,0,0,1,.923,13.667,40.461,40.461,0,0,1-.359,4.914A22.667,22.667,0,0,1,250.167,266.49Zm-18.056-35.268q0-1.229-.154-4.043a45.035,45.035,0,0,0-.667-5.631,19.259,19.259,0,0,0-1.59-5.016q-1.077-2.2-2.924-2.2a2.5,2.5,0,0,0-1.949,1.382,15,15,0,0,0-1.641,3.481,42.579,42.579,0,0,0-1.283,4.657q-0.565,2.56-.974,4.914t-0.616,4.249q-0.207,1.894-.308,2.713,6.156-.512,12.106-1.536v-2.969Z" transform="translate(-199.688 -192.219)"/>
  <path id="text-orange" class="cls-2" d="M404.133,237.774q-0.155-2.661-.616-5.682t-1.231-6.142a30.33,30.33,0,0,0-1.949-5.63,12.862,12.862,0,0,0-2.924-4.095,5.778,5.778,0,0,0-4-1.587,5.849,5.849,0,0,0-2.975.768,7.419,7.419,0,0,0-2.257,2,9.962,9.962,0,0,0-1.95,5.835,7.642,7.642,0,0,0,.1,1.433q0.511,4.506,1.128,8.856a63.055,63.055,0,0,1,.616,8.855q0,2.049-.2,4.5a18.128,18.128,0,0,1-.975,4.607,8.665,8.665,0,0,1-2.359,3.583,6.117,6.117,0,0,1-4.258,1.433,4.193,4.193,0,0,1-3.18-1.177,7.958,7.958,0,0,1-1.744-2.918,14.3,14.3,0,0,1-.77-3.634q-0.153-1.893-.154-3.429a52.725,52.725,0,0,1,.359-6.143q0.358-3.07.77-6.142,0.408-2.25.769-4.5a29.249,29.249,0,0,0,.359-4.607,32.336,32.336,0,0,0-.205-3.43,12.665,12.665,0,0,0-.923-3.583,8.023,8.023,0,0,0-1.949-2.815A4.681,4.681,0,0,0,370.329,213a5.217,5.217,0,0,0-3.95,2.047,22.2,22.2,0,0,0-3.181,4.863,36.978,36.978,0,0,0-2.257,5.733q-0.871,2.917-1.179,4.556a52.405,52.405,0,0,0-1.437,12.182,56.559,56.559,0,0,0,1.078,11.056,29.645,29.645,0,0,0,3.693,9.726,20.031,20.031,0,0,0,7.027,6.91,24.5,24.5,0,0,0,22.109-.051,20.6,20.6,0,0,0,7.13-7.013,30.361,30.361,0,0,0,3.8-9.879,55.665,55.665,0,0,0,1.129-11.159Q404.287,240.437,404.133,237.774Z" transform="translate(-199.688 -192.219)"/>
</svg>
